<svg width="24" height="24" viewBox="0 0 24 24" fill="none" xmlns="http://www.w3.org/2000/svg">
<path fill-rule="evenodd" clip-rule="evenodd" d="M12.6852 12.6811C12.6852 12.3047 12.3785 11.9978 12.0003 11.9978C11.6247 11.9978 11.318 12.3047 11.318 12.6811C11.318 13.0578 11.6246 13.3645 12.0003 13.3645C12.3785 13.3645 12.6852 13.0578 12.6852 12.6811ZM14.7167 15.2698C14.8886 15.4652 14.751 15.775 14.4893 15.775C14.4075 15.775 14.3232 15.7405 14.2644 15.6733L12.6085 13.8181C11.7577 14.2759 10.7098 13.6574 10.7098 12.6811C10.7098 12.0745 11.1315 11.5647 11.6962 11.4274V8.47131C11.6962 8.30393 11.8342 8.168 12.0003 8.168C12.169 8.168 12.3044 8.30393 12.3044 8.47131V11.4274C13.1847 11.6413 13.5759 12.6777 13.0608 13.4143L14.7167 15.2698ZM18.3889 12.9845C18.2331 16.2698 15.5882 18.9149 12.3044 19.0687V18.4092C12.3044 18.2418 12.1689 18.1061 12.0003 18.1061C11.8342 18.1061 11.6962 18.2418 11.6962 18.4092V19.0687C8.41249 18.9149 5.7676 16.2698 5.61174 12.9845H6.27361C6.43974 12.9845 6.57515 12.8491 6.57515 12.6812C6.57515 12.5138 6.43969 12.3779 6.27361 12.3779H5.61174C5.7676 9.09262 8.41249 6.44748 11.6962 6.2934V6.95345C11.6962 7.12083 11.8342 7.25676 12.0003 7.25676C12.169 7.25676 12.3044 7.12083 12.3044 6.95345V6.29331C15.5882 6.44739 18.233 9.09252 18.3889 12.3778H17.7296C17.561 12.3778 17.4255 12.5137 17.4255 12.6811C17.4255 12.849 17.561 12.9844 17.7296 12.9844H18.3889V12.9845ZM12.0003 19.6831C8.13884 19.6831 4.9984 16.5431 4.9984 12.6804C4.9984 8.81988 8.13904 5.67948 12.0003 5.67948C15.8616 5.67948 19.0022 8.82065 19.0022 12.6811C19.0022 16.5419 15.8616 19.6831 12.0003 19.6831ZM22.0074 12.6811C22.0074 15.8578 20.518 18.803 17.9877 20.7001L18.8105 20.6838C18.9741 20.6838 19.1095 20.8156 19.1121 20.981C19.1172 21.1483 18.9843 21.2871 18.8156 21.2904L16.9681 21.3267C16.8459 21.3285 16.7658 21.2725 16.7023 21.1795C16.6905 21.1795 16.6588 21.0822 16.6588 21.0446L16.6691 20.9442L17.152 19.1589C17.1955 18.9972 17.3616 18.9019 17.5226 18.9456C17.6836 18.9893 17.7807 19.1559 17.7373 19.3174L17.4613 20.3332C19.9094 18.5791 21.4018 15.7147 21.4018 12.6811C21.4018 7.4972 17.1853 3.27968 12.0003 3.27968C6.81788 3.27968 2.59883 7.49715 2.59883 12.6811C2.59883 15.9766 4.35952 19.0736 7.19608 20.763C7.33916 20.8489 7.3852 21.0349 7.30086 21.1788C7.21398 21.3226 7.03 21.3697 6.88432 21.2838C5.42262 20.4121 4.19598 19.1728 3.3399 17.7001C2.45828 16.1821 1.99316 14.4465 1.99316 12.6812C1.99316 7.15035 6.46936 2.67334 12.0003 2.67334C17.5318 2.67329 22.0074 7.15116 22.0074 12.6811Z" fill="black"/>
</svg>
