<svg width="21" height="20" viewBox="0 0 21 20" fill="none" xmlns="http://www.w3.org/2000/svg">
<path d="M10.4145 13.1362C9.88259 13.1277 9.38471 13.0553 8.92939 12.9191C8.44854 13.8851 7.00173 15.3447 2.73791 16.417C1.48684 16.7362 1.41025 18.3106 1.47408 19.2213C1.50386 19.6213 1.19748 19.9702 0.79748 20C0.780458 20 0.763437 20 0.746416 20C0.367693 20 0.0442886 19.7064 0.0187569 19.3234C-0.142946 17 0.716629 15.4255 2.38471 15C6.27833 14.0213 7.32939 12.8085 7.61025 12.2766C7.3379 12.0809 7.08259 11.8553 6.8528 11.5915C4.91237 9.40426 5.22727 5.66809 5.26556 5.29787C5.4911 0.446809 9.2911 0.0170213 10.4528 0H10.4826C10.4911 0 10.4996 0 10.5124 0H10.5379C12.9337 0.0255319 15.5507 1.43404 15.7379 5.29787C15.7762 5.66809 16.0911 9.40426 14.1507 11.5915C13.8868 11.8894 13.589 12.1489 13.2698 12.3617C13.6145 12.9149 14.7549 14.0766 18.4443 15C20.1081 15.4213 20.9719 17 20.806 19.3191C20.7805 19.7021 20.4571 19.9957 20.0783 19.9957C20.0613 19.9957 20.0443 19.9957 20.0273 19.9957C19.6273 19.966 19.3209 19.617 19.3507 19.217C19.4145 18.3064 19.3337 16.7319 18.0868 16.4128C13.9422 15.3745 12.4485 13.9574 11.9251 12.9574C11.5081 13.0681 11.0613 13.1277 10.5847 13.1362H10.4145ZM10.5209 11.6766C11.606 11.6638 12.4358 11.3191 13.0571 10.6255C14.6273 8.85957 14.2868 5.46383 14.2868 5.42979C14.2868 5.41277 14.2826 5.4 14.2826 5.38298C14.1294 2.00426 11.8613 1.47234 10.5209 1.45957H10.4996H10.4741C9.13791 1.4766 6.86982 2.01277 6.71663 5.38298C6.71663 5.39574 6.71663 5.41277 6.71237 5.42553C6.70812 5.45957 6.36769 8.85532 7.94216 10.6213C8.56344 11.3191 9.38897 11.6596 10.4783 11.6723H10.5209V11.6766Z" fill="#3B474B"/>
</svg>
