<svg width="16" height="16" viewBox="0 0 16 16" fill="none" xmlns="http://www.w3.org/2000/svg">
<g clip-path="url(#clip0_36_669)">
<path d="M14.749 8.75H14.249H4.25165C4.25115 8.75 4.25065 8.75 4.25015 8.75H1.74902H1.24902C0.835461 8.75 0.499023 9.08647 0.499023 9.5C0.499023 9.63806 0.610961 9.75 0.749023 9.75C0.887086 9.75 0.999023 9.63806 0.999023 9.5C0.999023 9.36216 1.11118 9.25 1.24902 9.25H1.4539L0.873492 12.7326C0.78568 13.2596 0.88868 13.8021 1.16355 14.2602L1.49902 14.8193V15.7188C1.49902 15.8738 1.62521 16 1.78027 16H14.2178C14.3728 16 14.499 15.8738 14.499 15.7188V14.8193L14.8345 14.2602C15.1094 13.8021 15.2124 13.2596 15.1246 12.7326L14.5441 9.25H14.749C14.8869 9.25 14.999 9.36216 14.999 9.5C14.999 9.63806 15.111 9.75 15.249 9.75C15.3871 9.75 15.499 9.63806 15.499 9.5C15.499 9.08647 15.1626 8.75 14.749 8.75ZM13.1557 14.003L12.8575 14.5H12.1183L12.2949 14.0584C12.432 13.7159 12.4829 13.341 12.4421 12.9742L12.0283 9.25H12.7872L13.3814 12.8148C13.4496 13.2247 13.3695 13.6467 13.1557 14.003ZM10.8304 14.5L10.9971 13.9159C11.0711 13.6568 11.0978 13.3892 11.0765 13.1204L10.7696 9.25H11.5252L11.9452 13.0295C11.9769 13.3147 11.9373 13.6063 11.8307 13.8727L11.5798 14.5H10.8304ZM9.51349 14.5L9.56493 13.5859C9.56793 13.5324 9.56902 13.4781 9.56818 13.4244L9.50296 9.25H10.2681L10.5781 13.16C10.5946 13.369 10.5739 13.5771 10.5163 13.7787L10.3104 14.5H9.51349ZM8.24902 14.5V9.25H9.0029L9.06824 13.4322C9.0689 13.474 9.06806 13.5163 9.06571 13.5578L9.01271 14.5H8.24902ZM6.98387 14.5L6.92537 13.5642C6.92249 13.5179 6.92143 13.4709 6.92224 13.4247L6.99474 9.25H7.74902V14.5H6.98387ZM3.14055 14.5L2.8423 14.003C2.62852 13.6467 2.5484 13.2247 2.61668 12.8148L3.2108 9.25H3.96971L3.5559 12.9742C3.51515 13.341 3.56605 13.7159 3.70309 14.0584L3.87971 14.5H3.14055ZM4.41827 14.5L4.16734 13.8727C4.06074 13.6063 4.02115 13.3147 4.05284 13.0295L4.4728 9.25H5.22827L4.9194 13.1178C4.8978 13.3884 4.92487 13.6578 4.99987 13.9187L5.16702 14.5H4.41827ZM5.68727 14.5L5.4804 13.7805C5.42205 13.5776 5.40099 13.3681 5.4178 13.1576L5.72987 9.25H6.49465L6.42234 13.416C6.42127 13.4754 6.42265 13.5358 6.42637 13.5954L6.48293 14.5H5.68727ZM1.36668 12.8148L1.9608 9.25H2.70393L2.12349 12.7326C2.03568 13.2596 2.13868 13.8021 2.41355 14.2602L2.55743 14.5H1.89055L1.5923 14.003C1.37852 13.6467 1.2984 13.2247 1.36668 12.8148ZM13.999 15.5H1.99902V15H2.99877C2.99893 15 2.99909 15 2.99924 15C2.9994 15 2.99955 15 2.99971 15H4.24827C4.24855 15 4.2488 15.0001 4.24909 15.0001C4.24952 15.0001 4.24996 15 4.2504 15H5.49815C5.4984 15 5.49865 15.0001 5.4989 15.0001C5.49918 15.0001 5.49949 15 5.49977 15H10.4983C10.4986 15 10.4989 15.0001 10.4991 15.0001C10.4994 15.0001 10.4996 15 10.4999 15H11.7476C11.7481 15 11.7485 15.0001 11.749 15.0001C11.7492 15.0001 11.7495 15 11.7498 15H12.9983C12.9985 15 12.9986 15 12.9988 15C12.999 15 12.9991 15 12.9993 15H13.999V15.5ZM14.4057 14.003L14.1075 14.5H13.4406L13.5845 14.2602C13.8594 13.8021 13.9624 13.2596 13.8746 12.7326L13.2941 9.25H14.0372L14.6314 12.8148C14.6996 13.2247 14.6195 13.6467 14.4057 14.003Z" fill="#EE930A"/>
<path d="M3.24902 8.25C3.38709 8.25 3.49902 8.13806 3.49902 8V0.5H12.499V8C12.499 8.13806 12.611 8.25 12.749 8.25C12.8871 8.25 12.999 8.13806 12.999 8V0.5C12.999 0.224313 12.7747 0 12.499 0H3.49902C3.22334 0 2.99902 0.224313 2.99902 0.5V8C2.99902 8.13806 3.11096 8.25 3.24902 8.25Z" fill="black"/>
<path d="M11.749 8.25C11.8871 8.25 11.999 8.13806 11.999 8V1.25C11.999 1.11194 11.8871 1 11.749 1H4.24902C4.11096 1 3.99902 1.11194 3.99902 1.25V8C3.99902 8.13806 4.11096 8.25 4.24902 8.25C4.38709 8.25 4.49902 8.13806 4.49902 8V4.25H6.99899C7.13705 4.25 7.24899 4.13806 7.24899 4C7.24899 3.86194 7.13705 3.75 6.99899 3.75H4.49902V1.5H7.74902V8C7.74902 8.13806 7.86096 8.25 7.99902 8.25C8.13709 8.25 8.24902 8.13806 8.24902 8V4.25H11.499V8C11.499 8.13806 11.611 8.25 11.749 8.25ZM8.24902 3.75V1.5H11.499V3.75H8.24902Z" fill="black"/>
</g>
<defs>
<clipPath id="clip0_36_669">
<rect width="16" height="16" fill="white" transform="translate(-0.000976562)"/>
</clipPath>
</defs>
</svg>
