<svg width="60" height="60" viewBox="0 0 60 60" fill="none" xmlns="http://www.w3.org/2000/svg">
<g clip-path="url(#clip0_435_1055)">
<path d="M6.86719 29.009H18.879V55.9466H6.86719V29.009Z" fill="#FFC365"/>
<path d="M27.2637 10.3669H36.8128V18.3946H27.2637V10.3669Z" fill="#FFC365"/>
<path d="M23.1855 10.3669H27.3904V18.3946H23.1855V10.3669Z" fill="#FFB640"/>
<path d="M7.30316 29.5497L8.08117 29.009H3.38348L2.60547 29.5497V55.2427L3.20992 55.9466H7.90773L7.30316 55.2427V29.5497Z" fill="#FFB640"/>
<path d="M18.3445 24.0791H5.36488L4.82617 24.8236V29.1381L5.61238 29.5499H18.3445L18.8796 29.0092V24.3611L18.3445 24.0791Z" fill="#FFB640"/>
<path d="M5.14301 28.4829V25.1461C5.14301 24.5568 5.62078 24.0791 6.21 24.0791H1.5123C0.922969 24.0791 0.445312 24.5568 0.445312 25.1461V28.4829C0.445312 29.0722 0.923086 29.5499 1.5123 29.5499H6.21C5.62078 29.5499 5.14301 29.0721 5.14301 28.4829Z" fill="#FFA90F"/>
<path d="M18.3441 55.2428H5.4748L4.98438 55.6395V59.4849L5.4557 60H18.3441L18.582 59.6135V55.7583L18.3441 55.2428Z" fill="#FFD086"/>
<path d="M5.14301 58.933V56.3098C5.14301 55.7205 5.62078 55.2428 6.21 55.2428H1.5123C0.922969 55.2428 0.445312 55.7205 0.445312 56.3098V58.933C0.445312 59.5224 0.923086 60 1.5123 60H6.21C5.62078 60 5.14301 59.5224 5.14301 58.933Z" fill="#FFC365"/>
<path d="M6.4759 36.4409C5.98324 36.4409 5.58398 36.0417 5.58398 35.549V34.298C5.58398 33.8054 5.98336 33.406 6.4759 33.406C6.96844 33.406 7.36781 33.8053 7.36781 34.298V35.549C7.36793 36.0417 6.96855 36.4409 6.4759 36.4409Z" fill="#7B6C79"/>
<path d="M14.4739 36.4409C13.9813 36.4409 13.582 36.0417 13.582 35.549V34.298C13.582 33.8054 13.9814 33.406 14.4739 33.406C14.9665 33.406 15.3659 33.8053 15.3659 34.298V35.549C15.3659 36.0417 14.9665 36.4409 14.4739 36.4409Z" fill="#7B6C79"/>
<path d="M10.4759 36.4409C9.98324 36.4409 9.58398 36.0417 9.58398 35.549V34.298C9.58398 33.8054 9.98336 33.406 10.4759 33.406C10.9684 33.406 11.3678 33.8053 11.3678 34.298V35.549C11.3678 36.0417 10.9686 36.4409 10.4759 36.4409Z" fill="#7B6C79"/>
<path d="M6.4759 41.8809C5.98324 41.8809 5.58398 41.4816 5.58398 40.989V39.7381C5.58398 39.2454 5.98336 38.8462 6.4759 38.8462C6.96844 38.8462 7.36781 39.2454 7.36781 39.7381V40.989C7.36793 41.4815 6.96855 41.8809 6.4759 41.8809Z" fill="#7B6C79"/>
<path d="M14.4739 41.8809C13.9813 41.8809 13.582 41.4816 13.582 40.989V39.7381C13.582 39.2454 13.9814 38.8462 14.4739 38.8462C14.9665 38.8462 15.3659 39.2454 15.3659 39.7381V40.989C15.3659 41.4815 14.9665 41.8809 14.4739 41.8809Z" fill="#7B6C79"/>
<path d="M10.4759 41.8809C9.98324 41.8809 9.58398 41.4816 9.58398 40.989V39.7381C9.58398 39.2454 9.98336 38.8462 10.4759 38.8462C10.9684 38.8462 11.3678 39.2454 11.3678 39.7381V40.989C11.3678 41.4815 10.9686 41.8809 10.4759 41.8809Z" fill="#7B6C79"/>
<path d="M6.4759 47.3208C5.98324 47.3208 5.58398 46.9216 5.58398 46.4288V45.1779C5.58398 44.6853 5.98336 44.2859 6.4759 44.2859C6.96844 44.2859 7.36781 44.6851 7.36781 45.1779V46.4288C7.36793 46.9214 6.96855 47.3208 6.4759 47.3208Z" fill="#7B6C79"/>
<path d="M14.4739 47.3208C13.9813 47.3208 13.582 46.9216 13.582 46.4288V45.1779C13.582 44.6853 13.9814 44.2859 14.4739 44.2859C14.9665 44.2859 15.3659 44.6851 15.3659 45.1779V46.4288C15.3659 46.9214 14.9665 47.3208 14.4739 47.3208Z" fill="#7B6C79"/>
<path d="M10.4759 47.3208C9.98324 47.3208 9.58398 46.9216 9.58398 46.4288V45.1779C9.58398 44.6853 9.98336 44.2859 10.4759 44.2859C10.9684 44.2859 11.3678 44.6851 11.3678 45.1779V46.4288C11.3678 46.9214 10.9686 47.3208 10.4759 47.3208Z" fill="#7B6C79"/>
<path d="M6.4759 52.7607C5.98324 52.7607 5.58398 52.3615 5.58398 51.8687V50.6177C5.58398 50.1251 5.98336 49.7257 6.4759 49.7257C6.96844 49.7257 7.36781 50.125 7.36781 50.6177V51.8687C7.36793 52.3615 6.96855 52.7607 6.4759 52.7607Z" fill="#7B6C79"/>
<path d="M14.4739 52.7607C13.9813 52.7607 13.582 52.3615 13.582 51.8687V50.6177C13.582 50.1251 13.9814 49.7257 14.4739 49.7257C14.9665 49.7257 15.3659 50.125 15.3659 50.6177V51.8687C15.3659 52.3615 14.9665 52.7607 14.4739 52.7607Z" fill="#7B6C79"/>
<path d="M10.4759 52.7607C9.98324 52.7607 9.58398 52.3615 9.58398 51.8687V50.6177C9.58398 50.1251 9.98336 49.7257 10.4759 49.7257C10.9684 49.7257 11.3678 50.125 11.3678 50.6177V51.8687C11.3678 52.3615 10.9686 52.7607 10.4759 52.7607Z" fill="#7B6C79"/>
<path d="M56.9079 29.1874H46.0605V55.6988H56.8782L57.3935 55.2427V29.5497L56.9079 29.1874Z" fill="#FFD086"/>
<path d="M41.2383 29.1874H46.2977V55.6988H41.2383V29.1874Z" fill="#FFC365"/>
<path d="M58.4871 24.0791H46.0605V29.5499H58.4871C59.0764 29.5499 59.5541 29.0722 59.5541 28.4829V25.1461C59.5541 24.5568 59.0764 24.0791 58.4871 24.0791Z" fill="#FFC365"/>
<path d="M46.2968 24.0791H41.6536L41.4355 24.2421V29.0786L41.6536 29.5499H46.2968V24.0791Z" fill="#FFB640"/>
<path d="M58.4871 55.2428H46.0605V60H58.4871C59.0764 60 59.5541 59.5224 59.5541 58.933V56.3098C59.5541 55.7206 59.0764 55.2428 58.4871 55.2428Z" fill="#FFDDA8"/>
<path d="M46.2977 55.2428H41.6545L41.2383 55.5601V59.6335L41.6545 60H46.2977V55.2428Z" fill="#FFD086"/>
<path d="M45.5248 36.4409C45.0322 36.4409 44.6328 36.0417 44.6328 35.549V34.298C44.6328 33.8054 45.0322 33.406 45.5248 33.406C46.0175 33.406 46.4168 33.8053 46.4168 34.298V35.549C46.4169 36.0417 46.0175 36.4409 45.5248 36.4409Z" fill="#7B6C79"/>
<path d="M53.5229 36.4409C53.0302 36.4409 52.6309 36.0417 52.6309 35.549V34.298C52.6309 33.8054 53.0302 33.406 53.5229 33.406C54.0155 33.406 54.4148 33.8053 54.4148 34.298V35.549C54.4148 36.0417 54.0155 36.4409 53.5229 36.4409Z" fill="#7B6C79"/>
<path d="M49.5229 36.4409C49.0302 36.4409 48.6309 36.0417 48.6309 35.549V34.298C48.6309 33.8054 49.0302 33.406 49.5229 33.406C50.0155 33.406 50.4148 33.8053 50.4148 34.298V35.549C50.4149 36.0417 50.0155 36.4409 49.5229 36.4409Z" fill="#7B6C79"/>
<path d="M45.5248 41.8809C45.0322 41.8809 44.6328 41.4816 44.6328 40.989V39.7381C44.6328 39.2454 45.0322 38.8462 45.5248 38.8462C46.0175 38.8462 46.4168 39.2454 46.4168 39.7381V40.989C46.4169 41.4815 46.0175 41.8809 45.5248 41.8809Z" fill="#7B6C79"/>
<path d="M53.5229 41.8809C53.0302 41.8809 52.6309 41.4816 52.6309 40.989V39.7381C52.6309 39.2454 53.0302 38.8462 53.5229 38.8462C54.0155 38.8462 54.4148 39.2454 54.4148 39.7381V40.989C54.4148 41.4815 54.0155 41.8809 53.5229 41.8809Z" fill="#7B6C79"/>
<path d="M49.5229 41.8809C49.0302 41.8809 48.6309 41.4816 48.6309 40.989V39.7381C48.6309 39.2454 49.0302 38.8462 49.5229 38.8462C50.0155 38.8462 50.4148 39.2454 50.4148 39.7381V40.989C50.4149 41.4815 50.0155 41.8809 49.5229 41.8809Z" fill="#7B6C79"/>
<path d="M45.5248 47.3208C45.0322 47.3208 44.6328 46.9216 44.6328 46.4288V45.1779C44.6328 44.6853 45.0322 44.2859 45.5248 44.2859C46.0175 44.2859 46.4168 44.6851 46.4168 45.1779V46.4288C46.4169 46.9214 46.0175 47.3208 45.5248 47.3208Z" fill="#7B6C79"/>
<path d="M53.5229 47.3208C53.0302 47.3208 52.6309 46.9216 52.6309 46.4288V45.1779C52.6309 44.6853 53.0302 44.2859 53.5229 44.2859C54.0155 44.2859 54.4148 44.6851 54.4148 45.1779V46.4288C54.4148 46.9214 54.0155 47.3208 53.5229 47.3208Z" fill="#7B6C79"/>
<path d="M49.5229 47.3208C49.0302 47.3208 48.6309 46.9216 48.6309 46.4288V45.1779C48.6309 44.6853 49.0302 44.2859 49.5229 44.2859C50.0155 44.2859 50.4148 44.6851 50.4148 45.1779V46.4288C50.4149 46.9214 50.0155 47.3208 49.5229 47.3208Z" fill="#7B6C79"/>
<path d="M45.5248 52.7607C45.0322 52.7607 44.6328 52.3615 44.6328 51.8687V50.6177C44.6328 50.1251 45.0322 49.7257 45.5248 49.7257C46.0175 49.7257 46.4168 50.125 46.4168 50.6177V51.8687C46.4169 52.3615 46.0175 52.7607 45.5248 52.7607Z" fill="#7B6C79"/>
<path d="M53.5229 52.7607C53.0302 52.7607 52.6309 52.3615 52.6309 51.8687V50.6177C52.6309 50.1251 53.0302 49.7257 53.5229 49.7257C54.0155 49.7257 54.4148 50.125 54.4148 50.6177V51.8687C54.4148 52.3615 54.0155 52.7607 53.5229 52.7607Z" fill="#7B6C79"/>
<path d="M49.5229 52.7607C49.0302 52.7607 48.6309 52.3615 48.6309 51.8687V50.6177C48.6309 50.1251 49.0302 49.7257 49.5229 49.7257C50.0155 49.7257 50.4148 50.125 50.4148 50.6177V51.8687C50.4149 52.3615 50.0155 52.7607 49.5229 52.7607Z" fill="#7B6C79"/>
<path d="M29.9993 7.33418C29.5067 7.33418 29.1074 6.93492 29.1074 6.44227V0.891914C29.1073 0.399258 29.5067 0 29.9993 0C30.492 0 30.8912 0.399258 30.8912 0.891914V6.44215C30.8912 6.9348 30.492 7.33418 29.9993 7.33418Z" fill="#6B7ED9"/>
<path d="M23.0664 29.009H41.6542V51.2432H23.0664V29.009Z" fill="#FFDDA8"/>
<path d="M18.3438 29.009H23.185V51.2432H18.3438V29.009Z" fill="#FFD086"/>
<path d="M37.5582 7.86996L33.4516 6.08203H33.0114L27.0352 8.78098V10.2577L27.3894 10.763H37.5728C37.815 10.763 38.0114 10.5667 38.0114 10.3243V8.56148C38.0114 8.26137 37.8334 7.98984 37.5582 7.86996Z" fill="#8896E0"/>
<path d="M27.3902 9.2157C27.3902 8.91559 27.5682 8.64395 27.8434 8.52418L33.4524 6.08211L30.3003 4.70973C30.1084 4.62605 29.8902 4.62605 29.6982 4.70973L22.4395 7.87004C22.1643 7.9898 21.9863 8.26145 21.9863 8.56156V10.3244C21.9863 10.5666 22.1827 10.763 22.425 10.763H27.3902V9.2157Z" fill="#6B7ED9"/>
<path d="M26.5462 15.9257C26.0536 15.9257 25.6543 15.5264 25.6543 15.0338V13.7828C25.6543 13.2901 26.0537 12.8909 26.5462 12.8909C27.0389 12.8909 27.4381 13.2901 27.4381 13.7828V15.0338C27.4381 15.5264 27.0387 15.9257 26.5462 15.9257Z" fill="#7B6C79"/>
<path d="M29.9993 15.9257C29.5067 15.9257 29.1074 15.5264 29.1074 15.0338V13.7828C29.1074 13.2901 29.5068 12.8909 29.9993 12.8909C30.492 12.8909 30.8912 13.2901 30.8912 13.7828V15.0338C30.8912 15.5264 30.492 15.9257 29.9993 15.9257Z" fill="#7B6C79"/>
<path d="M33.4526 15.9257C32.9599 15.9257 32.5605 15.5264 32.5605 15.0338V13.7828C32.5605 13.2901 32.9599 12.8909 33.4526 12.8909C33.9452 12.8909 34.3445 13.2901 34.3445 13.7828V15.0338C34.3446 15.5264 33.9452 15.9257 33.4526 15.9257Z" fill="#7B6C79"/>
<path d="M22.0013 36.4409C21.5086 36.4409 21.1094 36.0417 21.1094 35.549V34.298C21.1094 33.8054 21.5087 33.406 22.0013 33.406C22.4939 33.406 22.8932 33.8053 22.8932 34.298V35.549C22.8933 36.0417 22.4939 36.4409 22.0013 36.4409Z" fill="#7B6C79"/>
<path d="M29.9993 36.4409C29.5067 36.4409 29.1074 36.0417 29.1074 35.549V34.298C29.1074 33.8054 29.5068 33.406 29.9993 33.406C30.492 33.406 30.8912 33.8053 30.8912 34.298V35.549C30.8912 36.0417 30.492 36.4409 29.9993 36.4409Z" fill="#7B6C79"/>
<path d="M33.9974 36.4409C33.5047 36.4409 33.1055 36.0417 33.1055 35.549V34.298C33.1055 33.8054 33.5048 33.406 33.9974 33.406C34.49 33.406 34.8894 33.8053 34.8894 34.298V35.549C34.8893 36.0417 34.49 36.4409 33.9974 36.4409Z" fill="#7B6C79"/>
<path d="M26.0013 36.4409C25.5086 36.4409 25.1094 36.0417 25.1094 35.549V34.298C25.1094 33.8054 25.5087 33.406 26.0013 33.406C26.4939 33.406 26.8932 33.8053 26.8932 34.298V35.549C26.8933 36.0417 26.4939 36.4409 26.0013 36.4409Z" fill="#7B6C79"/>
<path d="M37.9974 36.4409C37.5047 36.4409 37.1055 36.0417 37.1055 35.549V34.298C37.1055 33.8054 37.5048 33.406 37.9974 33.406C38.49 33.406 38.8894 33.8053 38.8894 34.298V35.549C38.8893 36.0417 38.4899 36.4409 37.9974 36.4409Z" fill="#7B6C79"/>
<path d="M22.0013 41.881C21.5086 41.881 21.1094 41.4817 21.1094 40.9891V39.7382C21.1094 39.2456 21.5087 38.8463 22.0013 38.8463C22.4939 38.8463 22.8932 39.2456 22.8932 39.7382V40.9891C22.8933 41.4816 22.4939 41.881 22.0013 41.881Z" fill="#7B6C79"/>
<path d="M29.9993 41.881C29.5067 41.881 29.1074 41.4817 29.1074 40.9891V39.7382C29.1074 39.2456 29.5068 38.8463 29.9993 38.8463C30.492 38.8463 30.8912 39.2456 30.8912 39.7382V40.9891C30.8912 41.4816 30.492 41.881 29.9993 41.881Z" fill="#7B6C79"/>
<path d="M33.9974 41.881C33.5047 41.881 33.1055 41.4817 33.1055 40.9891V39.7382C33.1055 39.2456 33.5048 38.8463 33.9974 38.8463C34.49 38.8463 34.8894 39.2456 34.8894 39.7382V40.9891C34.8893 41.4816 34.49 41.881 33.9974 41.881Z" fill="#7B6C79"/>
<path d="M26.0013 41.881C25.5086 41.881 25.1094 41.4817 25.1094 40.9891V39.7382C25.1094 39.2456 25.5087 38.8463 26.0013 38.8463C26.4939 38.8463 26.8932 39.2456 26.8932 39.7382V40.9891C26.8933 41.4816 26.4939 41.881 26.0013 41.881Z" fill="#7B6C79"/>
<path d="M37.9974 41.881C37.5047 41.881 37.1055 41.4817 37.1055 40.9891V39.7382C37.1055 39.2456 37.5048 38.8463 37.9974 38.8463C38.49 38.8463 38.8894 39.2456 38.8894 39.7382V40.9891C38.8893 41.4816 38.4899 41.881 37.9974 41.881Z" fill="#7B6C79"/>
<path d="M22.0013 47.3208C21.5086 47.3208 21.1094 46.9216 21.1094 46.4288V45.1779C21.1094 44.6853 21.5087 44.2859 22.0013 44.2859C22.4939 44.2859 22.8932 44.6851 22.8932 45.1779V46.4288C22.8933 46.9214 22.4939 47.3208 22.0013 47.3208Z" fill="#7B6C79"/>
<path d="M29.9993 47.3208C29.5067 47.3208 29.1074 46.9216 29.1074 46.4288V45.1779C29.1074 44.6853 29.5068 44.2859 29.9993 44.2859C30.492 44.2859 30.8912 44.6851 30.8912 45.1779V46.4288C30.8912 46.9214 30.492 47.3208 29.9993 47.3208Z" fill="#7B6C79"/>
<path d="M33.9974 47.3208C33.5047 47.3208 33.1055 46.9216 33.1055 46.4288V45.1779C33.1055 44.6853 33.5048 44.2859 33.9974 44.2859C34.49 44.2859 34.8894 44.6851 34.8894 45.1779V46.4288C34.8893 46.9214 34.49 47.3208 33.9974 47.3208Z" fill="#7B6C79"/>
<path d="M26.0013 47.3208C25.5086 47.3208 25.1094 46.9216 25.1094 46.4288V45.1779C25.1094 44.6853 25.5087 44.2859 26.0013 44.2859C26.4939 44.2859 26.8932 44.6851 26.8932 45.1779V46.4288C26.8933 46.9214 26.4939 47.3208 26.0013 47.3208Z" fill="#7B6C79"/>
<path d="M37.9974 47.3208C37.5047 47.3208 37.1055 46.9216 37.1055 46.4288V45.1779C37.1055 44.6853 37.5048 44.2859 37.9974 44.2859C38.49 44.2859 38.8894 44.6851 38.8894 45.1779V46.4288C38.8893 46.9214 38.4899 47.3208 37.9974 47.3208Z" fill="#7B6C79"/>
<path d="M40.9803 21.2246H38.686C38.3138 21.2246 38.012 20.9228 38.012 20.5506V18.7272C38.012 18.355 37.7103 18.0532 37.3381 18.0532H27.0802L26.5452 18.5284V20.8029H23.3093L22.9551 21.6948V28.9793L23.1392 29.5497H41.6543V21.8986C41.6542 21.5263 41.3525 21.2246 40.9803 21.2246Z" fill="#FFD086"/>
<path d="M23.9235 21.2246H26.2178C26.59 21.2246 26.8918 20.9228 26.8918 20.5506V18.7272C26.8918 18.355 27.1935 18.0532 27.5657 18.0532H22.6599C22.2877 18.0532 21.9859 18.355 21.9859 18.7272V20.5506C21.9859 20.9228 21.6842 21.2246 21.312 21.2246H19.0177C18.6455 21.2246 18.3438 21.5263 18.3438 21.8985V29.5496H23.2496V21.8985C23.2495 21.5263 23.5512 21.2246 23.9235 21.2246Z" fill="#FFC365"/>
<path d="M31.062 21.8804C30.4636 22.2969 30.0703 22.9873 30.0703 23.7717C30.0703 24.556 30.4636 25.2465 31.062 25.6629C31.7225 25.2909 32.1695 24.5839 32.1695 23.7717C32.1695 22.9594 31.7227 22.2526 31.062 21.8804Z" fill="#938493"/>
<path d="M30.1337 23.7717C30.1337 22.9971 30.5408 22.3191 31.1513 21.9351C30.817 21.7248 30.4227 21.6013 29.9986 21.6013C28.7998 21.6013 27.8281 22.573 27.8281 23.7717C27.8281 24.9705 28.7998 25.9422 29.9986 25.9422C30.4227 25.9422 30.817 25.8187 31.1513 25.6084C30.5408 25.2244 30.1337 24.5465 30.1337 23.7717Z" fill="#7B6C79"/>
<path d="M23.0664 50.4857V60.0001H23.1012L23.9328 59.693V55.9467H36.451V59.4849L36.897 60.0001H41.6542V50.4857H23.0664Z" fill="#FFEAC8"/>
<path d="M23.1851 50.4857H18.3438V60.0001H23.101L23.1851 59.969V50.4857Z" fill="#FFDDA8"/>
<path d="M36.226 55.2428H23.7729C23.4021 55.2428 23.1016 55.5434 23.1016 55.9142V60H36.8973V55.9142C36.8973 55.5434 36.5968 55.2428 36.226 55.2428Z" fill="#E39B74"/>
<path d="M28.1139 55.2428H23.7729C23.4021 55.2428 23.1016 55.5434 23.1016 55.9142V60H27.4425V55.9142C27.4425 55.5434 27.7431 55.2428 28.1139 55.2428Z" fill="#DD8858"/>
</g>
<defs>
<clipPath id="clip0_435_1055">
<rect width="60" height="60" fill="white"/>
</clipPath>
</defs>
</svg>
