<svg width="60" height="60" viewBox="0 0 60 60" fill="none" xmlns="http://www.w3.org/2000/svg">
<mask id="mask0_435_637" style="mask-type:luminance" maskUnits="userSpaceOnUse" x="0" y="0" width="60" height="60">
<path d="M0 3.8147e-06H60V60H0V3.8147e-06Z" fill="white"/>
</mask>
<g mask="url(#mask0_435_637)">
<path d="M2.37512 23.4375L29.9991 25.7812L57.623 23.4375C54.2077 11.3977 43.1334 2.57812 29.9991 2.57812C16.8649 2.57812 5.79055 11.3977 2.375 23.4375H2.37512Z" fill="#2D3C6B"/>
<path d="M36.4453 57.3893L38.2031 58.8085C40.7072 58.0632 43.0678 56.9858 45.2344 55.6268L46.9922 53.0317H48.75C54.8498 47.7668 58.7109 39.9789 58.7109 31.2888C58.7109 30.2193 58.6505 29.164 58.5366 28.1246L30 25.781L1.46344 28.1246C1.34953 29.164 1.28906 30.2193 1.28906 31.2888C1.28906 39.9789 5.15016 47.7668 11.25 53.0317H13.0078L14.7656 55.6268C16.9322 56.9858 19.2928 58.0632 21.7969 58.8085L23.5547 57.3893L25.3125 59.6168C26.8382 59.8673 28.4034 59.9998 30 59.9998C31.5966 59.9998 33.1618 59.8673 34.6875 59.6168L36.4453 57.3893Z" fill="#A05838"/>
<path d="M34.7324 59.5601C21.268 57.187 11.0378 45.4341 11.0378 31.2891C11.0378 29.9407 11.1328 28.6148 11.3127 27.3161L1.46344 28.1249C1.34953 29.1641 1.28906 30.2195 1.28906 31.2891C1.28906 39.9791 5.15016 47.7669 11.25 53.0318H13.0078L14.7656 55.6269C16.9322 56.9861 19.2928 58.0635 21.7969 58.8088L23.5547 57.3895L25.3125 59.6169C26.8382 59.8676 28.4034 60 30 60C31.5969 60 33.1625 59.8666 34.6884 59.6159L34.7324 59.5601Z" fill="#934A2E"/>
<path d="M19.5648 11.1925C20.2087 11.1925 20.7906 10.6682 20.8294 10.0254C20.8729 9.30321 20.3001 8.70391 19.5873 8.70391C19.5322 8.70391 19.4781 8.7079 19.4249 8.71481C19.1475 8.11985 18.5444 7.70723 17.8447 7.70723C17.7027 7.70723 17.5647 7.72469 17.4326 7.7568C17.2281 7.60915 16.9769 7.52196 16.7054 7.52196C16.4846 7.52196 16.2774 7.57961 16.0977 7.68051C15.7827 7.36704 15.3485 7.17344 14.8691 7.17344C14.3895 7.17344 13.9554 7.36704 13.6403 7.68051C13.4605 7.57961 13.2534 7.52196 13.0326 7.52196C12.761 7.52196 12.51 7.60915 12.3055 7.7568C12.1733 7.72469 12.0353 7.70723 11.8932 7.70723C11.1935 7.70723 10.5906 8.11985 10.3133 8.71481C10.26 8.7079 10.2058 8.70391 10.1506 8.70391C9.43791 8.70391 8.8651 9.30321 8.90857 10.0254C8.94736 10.6682 9.5292 11.1925 10.1731 11.1925H19.5648Z" fill="#E9EFFF"/>
<path d="M12.5769 9.94821C12.5769 9.26102 13.134 8.70391 13.8212 8.70391C13.9204 8.70403 14.0119 8.65118 14.0624 8.56563C14.3655 8.052 14.9242 7.70723 15.5638 7.70723C15.6553 7.70723 15.7448 7.7145 15.8324 7.72821C15.9231 7.74239 16.0156 7.72528 16.0956 7.6804L16.0969 7.67969C15.782 7.3668 15.348 7.17344 14.8691 7.17344C14.3895 7.17344 13.9554 7.36715 13.6403 7.68051C13.4605 7.57973 13.2533 7.52196 13.0326 7.52196C12.761 7.52196 12.51 7.60915 12.3055 7.7568C12.1733 7.72469 12.0353 7.70723 11.8932 7.70723C11.1935 7.70723 10.5906 8.11985 10.3133 8.71493C10.26 8.7079 10.2058 8.70391 10.1506 8.70391C9.43791 8.70391 8.8651 9.30321 8.90857 10.0254C8.94736 10.6682 9.5292 11.1925 10.1731 11.1925H13.8212C13.134 11.1925 12.5769 10.6354 12.5769 9.94821Z" fill="#DAE2FE"/>
<path d="M9.77977 19.0342C10.3485 20.5963 10.6433 22.2443 10.6533 23.9062H19.0827C19.0927 22.2443 19.3875 20.5963 19.9562 19.0342C20.346 17.9632 20.607 16.8517 20.7361 15.7233L14.868 14.631L9 15.7233C9.12902 16.8517 9.39 17.9632 9.77977 19.0342Z" fill="#FFDD40"/>
<path d="M9.77977 19.0342C10.3485 20.5963 10.6433 22.2443 10.6533 23.9062H13.0921C13.0821 22.2444 12.7881 20.5963 12.2194 19.0342C11.7784 17.8225 11.5021 16.5588 11.3954 15.2773L9 15.7233C9.12902 16.8517 9.39 17.9632 9.77977 19.0342Z" fill="#FFC839"/>
<path d="M20.3088 10.8439H9.42902C9.14027 10.8439 8.90625 11.078 8.90625 11.3667V14.0748C8.90625 14.6266 8.93836 15.1769 9.00094 15.7233H20.737C20.7995 15.1769 20.8316 14.6266 20.8316 14.0748V11.3667C20.8316 11.078 20.5976 10.8439 20.3088 10.8439Z" fill="#BEC8F7"/>
<path d="M10.6875 10.4954V15.7233C10.6875 16.1082 10.9995 16.4203 11.3844 16.4203C11.7694 16.4203 12.0816 16.1082 12.0816 15.7233V10.4954H10.6875Z" fill="#DAE2FE"/>
<path d="M13.4746 10.4954V14.3291C13.4746 14.7142 13.7867 15.0262 14.1716 15.0262C14.5566 15.0262 14.8687 14.7142 14.8687 14.3291C14.8687 13.9442 15.1809 13.6322 15.5657 13.6322C15.9507 13.6322 16.2627 13.9442 16.2627 14.3291V15.7233C16.2627 16.1082 16.5748 16.4203 16.9598 16.4203C17.3447 16.4203 17.6568 16.1082 17.6568 15.7233C17.6568 15.3383 17.969 15.0262 18.3539 15.0262C18.7389 15.0262 19.051 14.7142 19.051 14.3292V10.4954H13.4746Z" fill="#E9EFFF"/>
<path d="M33.8342 11.1925C34.4782 11.1925 35.06 10.6682 35.0988 10.0254C35.1424 9.30321 34.5696 8.70391 33.8568 8.70391C33.8017 8.70391 33.7475 8.7079 33.6943 8.71481C33.4169 8.11985 32.8139 7.70723 32.1141 7.70723C31.9721 7.70723 31.8343 7.72469 31.702 7.7568C31.4975 7.60915 31.2464 7.52196 30.975 7.52196C30.7542 7.52196 30.5469 7.57961 30.3672 7.68051C30.0521 7.36704 29.6179 7.17344 29.1385 7.17344C28.659 7.17344 28.2248 7.36704 27.9097 7.68051C27.7299 7.57961 27.5228 7.52196 27.3021 7.52196C27.0304 7.52196 26.7795 7.60915 26.5749 7.7568C26.4427 7.72469 26.3048 7.70723 26.1626 7.70723C25.4629 7.70723 24.86 8.11985 24.5827 8.71481C24.5294 8.7079 24.4753 8.70391 24.4201 8.70391C23.7073 8.70391 23.1345 9.30321 23.1781 10.0254C23.2168 10.6682 23.7986 11.1925 24.4426 11.1925H33.8342Z" fill="#E9EFFF"/>
<path d="M26.8463 9.94821C26.8463 9.26102 27.4034 8.70391 28.0906 8.70391C28.19 8.70403 28.2814 8.65118 28.3318 8.56563C28.635 8.052 29.1937 7.70723 29.8332 7.70723C29.9247 7.70723 30.0144 7.7145 30.1019 7.72821C30.1925 7.74239 30.2852 7.72528 30.3651 7.6804L30.3664 7.67969C30.0514 7.3668 29.6175 7.17344 29.1385 7.17344C28.659 7.17344 28.2248 7.36715 27.9097 7.68051C27.7299 7.57973 27.5227 7.52196 27.3021 7.52196C27.0304 7.52196 26.7795 7.60915 26.5749 7.7568C26.4427 7.72469 26.3048 7.70723 26.1626 7.70723C25.4629 7.70723 24.86 8.11985 24.5827 8.71493C24.5294 8.7079 24.4753 8.70391 24.4201 8.70391C23.7073 8.70391 23.1345 9.30321 23.1781 10.0254C23.2168 10.6682 23.7986 11.1925 24.4426 11.1925H28.0906C27.4034 11.1925 26.8463 10.6354 26.8463 9.94821Z" fill="#DAE2FE"/>
<path d="M24.0494 19.0342C24.618 20.5963 24.9129 22.2443 24.9229 23.9062H33.3522C33.3622 22.2443 33.6571 20.5963 34.2257 19.0342C34.6155 17.9632 34.8765 16.8517 35.0056 15.7233L29.1376 14.631L23.2695 15.7233C23.3986 16.8517 23.6595 17.9632 24.0494 19.0342Z" fill="#FFDD40"/>
<path d="M24.0494 19.0342C24.618 20.5963 24.9129 22.2443 24.9229 23.9062H27.3616C27.3516 22.2444 27.0576 20.5963 26.489 19.0342C26.048 17.8225 25.7716 16.5588 25.665 15.2773L23.2695 15.7233C23.3986 16.8517 23.6595 17.9632 24.0494 19.0342Z" fill="#FFC839"/>
<path d="M34.5784 10.8439H23.6986C23.4098 10.8439 23.1758 11.078 23.1758 11.3667V14.0748C23.1758 14.6266 23.2079 15.1769 23.2705 15.7233H35.0066C35.069 15.1769 35.1011 14.6266 35.1011 14.0748V11.3667C35.1011 11.078 34.8671 10.8439 34.5784 10.8439Z" fill="#BEC8F7"/>
<path d="M24.9551 10.4954V15.7233C24.9551 16.1082 25.2671 16.4203 25.6521 16.4203C26.037 16.4203 26.3491 16.1082 26.3491 15.7233V10.4954H24.9551Z" fill="#DAE2FE"/>
<path d="M27.7441 10.4954V14.3291C27.7441 14.7142 28.0562 15.0262 28.4412 15.0262C28.8261 15.0262 29.1382 14.7142 29.1382 14.3291C29.1382 13.9442 29.4504 13.6322 29.8354 13.6322C30.2203 13.6322 30.5323 13.9442 30.5323 14.3291V15.7233C30.5323 16.1082 30.8443 16.4203 31.2293 16.4203C31.6143 16.4203 31.9263 16.1082 31.9263 15.7233C31.9263 15.3383 32.2385 15.0262 32.6235 15.0262C33.0084 15.0262 33.3205 14.7142 33.3205 14.3292V10.4954H27.7441Z" fill="#E9EFFF"/>
<path d="M51.0937 12.942V11.6885C51.0937 10.4639 50.468 9.32402 49.4349 8.66648C48.4017 8.00895 47.776 6.86918 47.776 5.64445L46.1172 3.17766L44.4583 5.64445C44.4583 6.86918 43.8327 8.00895 42.7995 8.66648C41.7663 9.32402 41.1406 10.4639 41.1406 11.6885V21.7786C41.1406 22.6948 41.8834 23.4375 42.7995 23.4375H49.4349C50.351 23.4375 51.0937 22.6948 51.0937 21.7786V20.5252L49.1979 16.7336L51.0937 12.942Z" fill="#49D88B"/>
<path d="M42.7994 21.7787V11.6886C42.7994 10.4639 43.4251 9.32414 44.4582 8.6666C45.4914 8.00906 46.1172 6.86918 46.1172 5.64457V3.17778L44.4582 5.64457C44.4582 6.86918 43.8325 8.00906 42.7994 8.6666C41.7663 9.32414 41.1406 10.4639 41.1406 11.6886V21.7787C41.1406 22.6949 41.8834 23.4375 42.7994 23.4375H44.4582C43.5421 23.4375 42.7994 22.6949 42.7994 21.7787Z" fill="#38C674"/>
<path d="M47.7768 2.13278H44.459V5.64453H47.7768V2.13278Z" fill="#FFC839"/>
<path d="M44.459 5.64453H46.1179V2.13278H44.459V5.64453Z" fill="#FFB332"/>
<path d="M47.7767 1.42188H44.4589C44.0664 1.42188 43.748 1.10359 43.748 0.710898C43.748 0.31832 44.0664 3.89814e-05 44.4589 3.89814e-05H47.7767C48.1694 3.89814e-05 48.4876 0.31832 48.4876 0.710898C48.4876 1.10359 48.1694 1.42188 47.7767 1.42188Z" fill="#B76C4E"/>
<path d="M45.4068 0.710899C45.4068 0.31832 45.7252 3.92199e-05 46.1178 3.92199e-05H44.4589C44.0663 3.92199e-05 43.748 0.31832 43.748 0.710899C43.748 1.10359 44.0663 1.42188 44.4589 1.42188H46.1178C45.7252 1.42188 45.4068 1.10359 45.4068 0.710899Z" fill="#A05838"/>
<path d="M47.7767 2.84375H44.4589C44.0664 2.84375 43.748 2.52547 43.748 2.13277C43.748 1.7402 44.0664 1.42191 44.4589 1.42191H47.7767C48.1694 1.42191 48.4876 1.7402 48.4876 2.13277C48.4876 2.52547 48.1694 2.84375 47.7767 2.84375Z" fill="#FFDD40"/>
<path d="M45.4068 2.13277C45.4068 1.74008 45.7252 1.42191 46.1178 1.42191H44.4589C44.0663 1.42191 43.748 1.74008 43.748 2.13277C43.748 2.52547 44.0663 2.84375 44.4589 2.84375H46.1178C45.7252 2.84375 45.4068 2.52547 45.4068 2.13277Z" fill="#FFC839"/>
<path d="M48.2507 20.5253H51.0945V12.9421H48.2507C47.7272 12.9421 47.3027 13.3664 47.3027 13.8899V19.5773C47.3027 20.1008 47.7272 20.5253 48.2507 20.5253Z" fill="#E9EFFF"/>
<path d="M49.0605 19.5773V13.8899C49.0605 13.3664 49.485 12.9419 50.0085 12.9419H48.2507C47.7272 12.9419 47.3027 13.3664 47.3027 13.8899V19.5773C47.3027 20.1008 47.7272 20.5253 48.2507 20.5253H50.0085C49.485 20.5253 49.0605 20.1008 49.0605 19.5773Z" fill="#DAE2FE"/>
<path d="M1.46289 28.125H58.5359C58.3599 26.5191 58.0532 24.9525 57.6234 23.4375H2.37543C1.94559 24.9525 1.63891 26.5191 1.46289 28.125Z" fill="#B76C4E"/>
<path d="M11.2495 23.4375H2.37543C1.94559 24.9525 1.63891 26.5191 1.46289 28.125H11.2495C9.955 28.125 8.9057 27.0757 8.9057 25.7813C8.9057 24.4868 9.955 23.4375 11.2495 23.4375Z" fill="#A05838"/>
<path d="M13.0078 47.7633H23.5547V44.2477H13.0078V47.7633Z" fill="#BEC8F7"/>
<path d="M11.25 53.0318C12.3517 53.9828 13.5274 54.8502 14.7656 55.627V35.1562H11.25V53.0318Z" fill="#E9EFFF"/>
<path d="M11.25 35.1563V44.2477C11.25 43.2768 12.037 42.4899 13.0078 42.4899C13.9786 42.4899 14.7656 43.2768 14.7656 44.2477V35.1563H11.25Z" fill="#DAE2FE"/>
<path d="M21.7969 58.8088C22.9406 59.1492 24.1139 59.4202 25.3125 59.6169V35.1563H21.7969V58.8088Z" fill="#E9EFFF"/>
<path d="M21.7969 35.1563V44.2477C21.7969 43.2768 22.5839 42.4899 23.5547 42.4899C24.5255 42.4899 25.3125 43.2768 25.3125 44.2477V35.1563H21.7969Z" fill="#DAE2FE"/>
<path d="M11.25 37.5H25.3125C26.607 37.5 27.6562 36.4507 27.6562 35.1563C27.6562 33.8618 26.607 32.8125 25.3125 32.8125H11.25C9.95555 32.8125 8.90625 33.8618 8.90625 35.1563C8.90625 36.4507 9.95555 37.5 11.25 37.5Z" fill="#FF7186"/>
<path d="M15.9375 35.1563C15.9375 33.8618 16.9868 32.8125 18.2812 32.8125H11.25C9.95555 32.8125 8.90625 33.8618 8.90625 35.1563C8.90625 36.4507 9.95555 37.5 11.25 37.5H18.2812C16.9868 37.5 15.9375 36.4507 15.9375 35.1563Z" fill="#FF4155"/>
<path d="M36.4453 47.7633H46.9922V44.2477H36.4453V47.7633Z" fill="#BEC8F7"/>
<path d="M34.6875 59.6169C35.8861 59.4201 37.0594 59.1491 38.2031 58.8088V35.1563H34.6875V59.6169Z" fill="#E9EFFF"/>
<path d="M34.6875 35.1563V44.2477C34.6875 43.2768 35.4745 42.4899 36.4453 42.4899C37.4161 42.4899 38.2031 43.2768 38.2031 44.2477V35.1563H34.6875Z" fill="#DAE2FE"/>
<path d="M45.2344 55.627C46.4726 54.8502 47.6483 53.9828 48.75 53.0318V35.1562H45.2344V55.627Z" fill="#E9EFFF"/>
<path d="M45.2344 35.1563V44.2477C45.2344 43.2768 46.0214 42.4899 46.9922 42.4899C47.963 42.4899 48.75 43.2768 48.75 44.2477V35.1563H45.2344Z" fill="#DAE2FE"/>
<path d="M34.6875 37.5H48.75C50.0445 37.5 51.0937 36.4507 51.0937 35.1563C51.0937 33.8618 50.0445 32.8125 48.75 32.8125H34.6875C33.393 32.8125 32.3438 33.8618 32.3438 35.1563C32.3438 36.4507 33.393 37.5 34.6875 37.5Z" fill="#FF7186"/>
<path d="M39.375 35.1563C39.375 33.8618 40.4243 32.8125 41.7187 32.8125H34.6875C33.393 32.8125 32.3438 33.8618 32.3438 35.1563C32.3438 36.4507 33.393 37.5 34.6875 37.5H41.7187C40.4243 37.5 39.375 36.4507 39.375 35.1563Z" fill="#FF4155"/>
</g>
</svg>
