<svg width="16" height="16" viewBox="0 0 16 16" fill="none" xmlns="http://www.w3.org/2000/svg">
<path d="M3.61183 8.258C3.61183 8.54264 3.84332 8.77412 4.12796 8.77412V9.29025C4.12796 9.5749 4.35944 9.80638 4.64409 9.80638H5.67635C5.96099 9.80638 6.19248 9.5749 6.19248 9.29025V8.77412C6.47712 8.77412 6.7086 8.54264 6.7086 8.258V7.74187H7.22473V7.22574H6.7086V6.70961C6.7086 6.42497 6.47712 6.19348 6.19248 6.19348H4.12796C3.84332 6.19348 3.61183 6.42497 3.61183 6.70961V7.22574H3.0957V7.74187H3.61183V8.258ZM5.67635 9.29025H4.64409V8.77412H5.67635V9.29025ZM4.12796 6.70961H6.19248L6.19299 8.258H4.12796V6.70961Z" fill="#EE930A"/>
<path d="M14.6396 14.6945C14.4855 14.4377 14.2251 14.2637 13.9348 14.2116V10.1871C14.8354 9.86736 15.4832 9.00904 15.4832 8.00001V7.22582C15.4832 6.94117 15.2517 6.70969 14.967 6.70969H11.3541V6.19356H10.838V6.70969H10.3219V4.64517C10.3219 4.36053 10.5534 4.12904 10.838 4.12904C11.1227 4.12904 11.3541 4.36053 11.3541 4.64517V5.1613H11.8703V4.64517C11.8703 4.07588 11.4073 3.61292 10.838 3.61292C10.2687 3.61292 9.80575 4.07588 9.80575 4.64517V6.70969H8.77349C8.48885 6.70969 8.25737 6.94117 8.25737 7.22582V8.00001C8.25737 9.00904 8.90511 9.86736 9.80575 10.1871V14.2116C9.51543 14.2637 9.25504 14.4379 9.10098 14.6945L8.62743 15.4839H5.1095L4.74614 13.849L5.69634 13.7897C6.84317 13.7179 7.74124 12.7618 7.74124 11.6129C7.74124 11.1861 7.39388 10.8387 6.96704 10.8387H2.7944L1.81763 5.58453C1.77221 5.33911 1.55647 5.1613 1.30434 5.1613H0.521115C0.36447 5.1613 0.217373 5.2302 0.11776 5.34969C0.0199537 5.46737 -0.0200463 5.62091 0.00756661 5.77059L1.00215 11.1203V15.4839H-0.000691437V16H15.7412V15.4839H15.1131L14.6396 14.6945ZM8.77349 8.00001V7.22582H14.967V8.00001C14.967 8.99588 14.1565 9.80646 13.1606 9.80646H10.5799C9.58407 9.80646 8.77349 8.99588 8.77349 8.00001ZM10.5799 10.3226H13.1606C13.2478 10.3226 13.3337 10.3169 13.4187 10.3074V14.1936H10.3219V10.3074C10.4068 10.3169 10.4927 10.3226 10.5799 10.3226ZM9.5433 14.9603C9.6362 14.8057 9.80575 14.7097 9.98588 14.7097H13.7547C13.9348 14.7097 14.1043 14.8057 14.1972 14.9603L14.5113 15.4839H9.22924L9.5433 14.9603ZM7.22511 11.6129C7.22511 11.7007 7.21633 11.7866 7.20317 11.871H1.51879V11.3548H6.96704C7.1095 11.3548 7.22511 11.4705 7.22511 11.6129ZM0.521115 5.67743L1.31002 5.67846L2.2695 10.8387H1.47131L0.521115 5.67743ZM1.51879 12.3871H7.03285C6.76963 12.8852 6.26124 13.2372 5.66408 13.2743L3.33789 13.4196L3.37014 13.9347L4.2246 13.8813L4.58072 15.4839H1.51879V12.3871Z" fill="black"/>
<path d="M15.4831 0H8.25734C7.97269 0 7.74121 0.231484 7.74121 0.516129V4.64516C7.74121 4.9298 7.97269 5.16129 8.25734 5.16129H9.2896V4.64516H8.25734V0.516129H15.4831V4.64516H12.3864V5.16129H15.4831C15.7678 5.16129 15.9993 4.9298 15.9993 4.64516V0.516129C15.9993 0.231484 15.7678 0 15.4831 0Z" fill="#EE930A"/>
<path d="M9.62207 2.50586L9.98703 2.1409L10.7613 2.91516L10.3963 3.28012L9.62207 2.50586Z" fill="#EE930A"/>
<path d="M10.6543 1.47388L11.0192 1.10897L13.0835 3.17323L12.7186 3.53813L10.6543 1.47388Z" fill="#EE930A"/>
<path d="M12.4609 1.47412L12.8258 1.10922L14.116 2.39933L13.7511 2.76424L12.4609 1.47412Z" fill="#EE930A"/>
</svg>
