<svg width="16" height="16" viewBox="0 0 16 16" fill="none" xmlns="http://www.w3.org/2000/svg">
<g clip-path="url(#clip0_36_638)">
<path fill-rule="evenodd" clip-rule="evenodd" d="M5.10906 8.49801C5.26429 8.35837 5.38519 8.15561 5.40293 7.9221L5.41415 7.7743C5.45025 7.29879 5.31248 6.84425 5.00635 6.50397C5.00634 6.50396 5.00635 6.50397 5.00635 6.50397L3.86779 5.23826C3.57962 4.91789 3.174 4.73434 2.72776 4.70277L2.52322 4.6883C2.27714 4.6709 2.05037 4.77301 1.88891 4.91825C1.72745 5.06349 1.60198 5.27821 1.59333 5.52475L1.58614 5.7297C1.57049 6.1768 1.71024 6.5995 1.9984 6.91985L3.13698 8.18553C3.13699 8.18554 3.13699 8.18555 3.137 8.18555C3.44309 8.52586 3.88053 8.71082 4.35722 8.7251L4.50536 8.72951C4.50538 8.72951 4.50539 8.72951 4.50541 8.72951C4.73947 8.7365 4.95383 8.63765 5.10906 8.49801ZM4.69106 8.03336C4.63329 8.08533 4.56996 8.10616 4.52405 8.10479L4.37594 8.10038C4.37591 8.10038 4.37589 8.10038 4.37587 8.10038C4.0496 8.09059 3.78069 7.96662 3.60167 7.76758L3.60165 7.76756L2.46307 6.50188C2.46307 6.50188 2.46307 6.50188 2.46307 6.50188C2.29423 6.31417 2.20017 6.05417 2.21076 5.7516M2.21076 5.7516L2.21795 5.54667C2.21795 5.54667 2.21795 5.54667 2.21795 5.54667C2.21955 5.50109 2.24605 5.43765 2.30689 5.38292C2.36774 5.32819 2.43362 5.30853 2.47912 5.31174L2.68365 5.32621C2.98565 5.34758 3.23428 5.46853 3.40311 5.65623L4.54168 6.92195C4.72073 7.12098 4.81565 7.40151 4.79094 7.72699L4.77973 7.87476C4.77972 7.87477 4.77973 7.87476 4.77973 7.87476C4.77624 7.9206 4.74883 7.98139 4.69106 8.03336" fill="black"/>
<path fill-rule="evenodd" clip-rule="evenodd" d="M-0.000976562 8.41736C-0.000976562 8.58995 0.138934 8.72986 0.311523 8.72986H1.89777C2.07036 8.72986 2.21027 8.58995 2.21027 8.41736V4.0608C2.21027 3.60648 1.84197 3.23823 1.38771 3.23823H0.821586C0.367322 3.23823 -0.000976562 3.60648 -0.000976562 4.0608V8.41736ZM0.624023 8.10486V4.0608C0.624023 3.95168 0.712475 3.86323 0.821586 3.86323H1.38771C1.49682 3.86323 1.58527 3.95168 1.58527 4.0608V8.10486H0.624023Z" fill="black"/>
<path fill-rule="evenodd" clip-rule="evenodd" d="M-0.000976562 11.7936C-0.000976562 11.9662 0.138934 12.1061 0.311523 12.1061H3.29893C3.47152 12.1061 3.61143 11.9662 3.61143 11.7936C3.61143 11.621 3.47152 11.4811 3.29893 11.4811H0.624023V8.72983H4.79527V9.54424C4.79527 10.0268 5.18645 10.418 5.66902 10.418H15.1253C15.2117 10.418 15.2952 10.4054 15.374 10.382V11.4811H6.04865C5.87606 11.4811 5.73615 11.621 5.73615 11.7936C5.73615 11.9662 5.87606 12.1061 6.04865 12.1061H15.6865C15.8591 12.1061 15.999 11.9662 15.999 11.7936V9.54424C15.999 9.37165 15.8591 9.23174 15.6865 9.23174C15.5139 9.23174 15.374 9.37165 15.374 9.54424C15.374 9.6816 15.2627 9.79295 15.1253 9.79295H5.66902C5.5316 9.79295 5.42027 9.6816 5.42027 9.54424V8.41733C5.42027 8.24474 5.28036 8.10483 5.10777 8.10483H0.311523C0.138934 8.10483 -0.000976562 8.24474 -0.000976562 8.41733V11.7936Z" fill="black"/>
<path fill-rule="evenodd" clip-rule="evenodd" d="M5.66873 9.79285C5.53132 9.79285 5.41992 9.68145 5.41992 9.54403V7.89316H13.4135C14.181 7.89316 14.6642 8.04052 14.9585 8.19101L14.9585 8.19103C15.2129 8.3211 15.3739 8.58736 15.3739 8.87903V9.54403C15.3739 9.68145 15.2625 9.79285 15.125 9.79285H5.66873ZM4.79492 9.54403C4.79492 10.0266 5.18615 10.4178 5.66873 10.4178H15.125C15.6076 10.4178 15.9989 10.0266 15.9989 9.54403V8.87903C15.9989 8.35864 15.7117 7.87416 15.243 7.63454C14.8458 7.43141 14.2617 7.26816 13.4135 7.26816H5.10742C4.93483 7.26816 4.79492 7.40807 4.79492 7.58066V9.54403Z" fill="#EE930A"/>
<path fill-rule="evenodd" clip-rule="evenodd" d="M-0.000976562 2.75766C-0.000976562 3.36828 0.494067 3.86328 1.10465 3.86328C1.71527 3.86328 2.21027 3.36828 2.21027 2.75766C2.21027 2.14704 1.71527 1.65203 1.10465 1.65203C0.494067 1.65203 -0.000976562 2.14703 -0.000976562 2.75766ZM1.10465 3.23828C0.839229 3.23828 0.624023 3.02309 0.624023 2.75766C0.624023 2.49222 0.839229 2.27703 1.10465 2.27703C1.37009 2.27703 1.58527 2.49221 1.58527 2.75766C1.58527 3.0231 1.37009 3.23828 1.10465 3.23828Z" fill="black"/>
<path fill-rule="evenodd" clip-rule="evenodd" d="M-0.000976562 14.0355C-0.000976562 14.2081 0.138934 14.348 0.311523 14.348H1.39012C1.55127 14.348 1.68598 14.2255 1.70122 14.0651C1.70122 14.0651 1.70122 14.0651 1.70122 14.0651L1.70123 14.0649L1.70123 14.0649L1.70147 14.0626C1.7017 14.0603 1.7021 14.0565 1.70267 14.0513C1.7038 14.0409 1.70564 14.025 1.70828 14.0041C1.71358 13.9622 1.72211 13.9007 1.73481 13.8245C1.76029 13.6716 1.80212 13.4621 1.86732 13.2352C2.00259 12.7645 2.2194 12.2882 2.53812 12.0401C2.64346 11.9581 2.68509 11.8183 2.64175 11.692C2.59841 11.5658 2.47966 11.481 2.34618 11.481H0.311523C0.138934 11.481 -0.000976562 11.6209 -0.000976562 11.7935V14.0355ZM1.1181 13.723H0.624023V12.106H1.67037C1.47858 12.4192 1.35137 12.7677 1.26663 13.0626C1.1932 13.3181 1.14661 13.5519 1.11831 13.7217C1.11824 13.7222 1.11817 13.7226 1.1181 13.723Z" fill="black"/>
<path fill-rule="evenodd" clip-rule="evenodd" d="M14.2973 14.0652C14.3126 14.2256 14.4473 14.348 14.6084 14.348H15.687C15.8596 14.348 15.9995 14.2081 15.9995 14.0355V11.7935C15.9995 11.6209 15.8596 11.481 15.687 11.481H13.6524C13.5189 11.481 13.4001 11.5658 13.3568 11.692C13.3135 11.8183 13.3551 11.9581 13.4604 12.0401C13.7791 12.2882 13.9959 12.7645 14.1312 13.2352C14.1964 13.4621 14.2382 13.6716 14.2637 13.8245C14.2764 13.9007 14.285 13.9622 14.2903 14.0041C14.2929 14.025 14.2947 14.0409 14.2959 14.0513C14.2964 14.0565 14.2968 14.0603 14.2971 14.0626L14.2973 14.0649L14.2973 14.065C14.2973 14.065 14.2973 14.065 14.2973 14.0651C14.2973 14.0651 14.2973 14.0651 14.2973 14.0652C14.2973 14.0652 14.2973 14.0652 14.2973 14.0652ZM14.8804 13.723C14.8804 13.7226 14.8803 13.7222 14.8802 13.7217C14.8519 13.5519 14.8053 13.3181 14.7319 13.0626C14.6472 12.7677 14.5199 12.4192 14.3282 12.106H15.3745V13.723H14.8804Z" fill="black"/>
</g>
<defs>
<clipPath id="clip0_36_638">
<rect width="16" height="16" fill="white" transform="translate(-0.000976562)"/>
</clipPath>
</defs>
</svg>
