<svg width="60" height="60" viewBox="0 0 60 60" fill="none" xmlns="http://www.w3.org/2000/svg">
<g clip-path="url(#clip0_435_884)">
<path d="M21.8635 42.7119L20.2363 40.3656L23.2872 32.5424L24.9144 34.8886L21.8635 42.7119Z" fill="#7F9AA7"/>
<path d="M30.0001 42.7119L26.9492 34.8886L28.5764 32.5424L31.6273 40.3656L30.0001 42.7119Z" fill="#7F9AA7"/>
<path d="M44.2366 42.7119L42.6094 40.3656L45.6602 32.5424L47.2874 34.8886L44.2366 42.7119Z" fill="#7F9AA7"/>
<path d="M52.3712 42.7119L49.3203 34.8886L50.9475 32.5424L53.9984 40.3656L52.3712 42.7119Z" fill="#7F9AA7"/>
<path d="M0.507812 39.661H59.4909V51.8644H0.507812V39.661Z" fill="#F9BB4B"/>
<path d="M0.507812 51.8644H4.57561V60H0.507812V51.8644Z" fill="#AD6327"/>
<path d="M55.4238 51.8644H59.4916V60H55.4238V51.8644Z" fill="#AD6327"/>
<path d="M6.60938 3.0509H53.389V7.1187H6.60938V3.0509Z" fill="#7F9AA7"/>
<path d="M59.4909 13.2203H0.507812L4.57561 7.11865H55.4231L59.4909 13.2203Z" fill="#B1D5EA"/>
<path d="M15.7637 0H17.7976V3.05085H15.7637V0Z" fill="#26829E"/>
<path d="M42.2031 0H44.237V3.05085H42.2031V0Z" fill="#26829E"/>
<path d="M54.4073 45.7627C51.9667 45.7627 51.9667 47.7966 49.5197 47.7966C47.0732 47.7966 47.0791 45.7627 44.6326 45.7627C42.1855 45.7627 42.1915 47.7966 39.7509 47.7966C37.3103 47.7966 37.3103 45.7627 34.8698 45.7627C32.4292 45.7627 32.4292 47.7966 29.9881 47.7966C27.5475 47.7966 27.5475 45.7627 25.107 45.7627C22.6664 45.7627 22.6664 47.7966 20.2258 47.7966C17.7847 47.7966 17.7847 45.7627 15.3441 45.7627C12.9036 45.7627 12.9036 47.7966 10.463 47.7966C8.02241 47.7966 8.03433 45.7627 5.59375 45.7627V39.661H54.4073V45.7627Z" fill="#DD3E46"/>
<path d="M2.54297 35.5933H12.7125C12.7125 37.8397 10.8911 39.6611 8.64466 39.6611H6.61077C4.36434 39.6611 2.54297 37.8397 2.54297 35.5933Z" fill="#BDCAD1"/>
<path d="M2.54297 31.5254H12.7125C12.7125 33.7718 10.8911 35.5932 8.64466 35.5932H6.61077C4.36434 35.5932 2.54297 33.7718 2.54297 31.5254Z" fill="#B1D5EA"/>
<path d="M2.54297 27.4576H12.7125C12.7125 29.7041 10.8911 31.5254 8.64466 31.5254H6.61077C4.36434 31.5254 2.54297 29.7041 2.54297 27.4576Z" fill="#BDCAD1"/>
<path d="M2.54297 23.3899H12.7125C12.7125 25.6363 10.8911 27.4577 8.64466 27.4577H6.61077C4.36434 27.4577 2.54297 25.6363 2.54297 23.3899Z" fill="#B1D5EA"/>
<path d="M16.7787 17.2881C19.0252 17.2881 20.8465 15.4668 20.8465 13.2203H12.7109C12.7109 15.4668 14.5323 17.2881 16.7787 17.2881Z" fill="#FCF05A"/>
<path d="M43.2201 17.2881C45.4666 17.2881 47.2879 15.4668 47.2879 13.2203H39.1523C39.1523 15.4668 40.9737 17.2881 43.2201 17.2881Z" fill="#FCF05A"/>
<path d="M29.9994 17.2881C32.2459 17.2881 34.0672 15.4668 34.0672 13.2203H25.9316C25.9316 15.4668 27.753 17.2881 29.9994 17.2881Z" fill="#FCF05A"/>
<path d="M20.8484 27.4576H31.0178C32.1411 27.4576 33.0517 28.3683 33.0517 29.4915V31.5254H18.8145V29.4915C18.8145 28.3683 19.7251 27.4576 20.8484 27.4576Z" fill="#B1D5EA"/>
<path d="M18.8145 31.5254H33.0517V33.5593C33.0517 34.6825 32.1411 35.5932 31.0178 35.5932H20.8484C19.7251 35.5932 18.8145 34.6825 18.8145 33.5593V31.5254Z" fill="#B1D5EA"/>
<path d="M25.9323 23.3899C27.0555 23.3899 27.9662 24.3006 27.9662 25.4238V27.4577H23.8984V25.4238C23.8984 24.3006 24.8091 23.3899 25.9323 23.3899Z" fill="#DD3E46"/>
<path d="M15.7637 30.5084H36.1027V32.5423H15.7637V30.5084Z" fill="#7F9AA7"/>
<path d="M43.2194 27.4576H53.3889C54.5122 27.4576 55.4228 28.3683 55.4228 29.4915V31.5254H41.1855V29.4915C41.1855 28.3683 42.0962 27.4576 43.2194 27.4576Z" fill="#B1D5EA"/>
<path d="M41.1855 31.5254H55.4228V33.5593C55.4228 34.6825 54.5122 35.5932 53.3889 35.5932H43.2194C42.0962 35.5932 41.1855 34.6825 41.1855 33.5593V31.5254Z" fill="#B1D5EA"/>
<path d="M48.3054 23.3899C49.4286 23.3899 50.3393 24.3006 50.3393 25.4238V27.4577H46.2715V25.4238C46.2715 24.3006 47.1822 23.3899 48.3054 23.3899Z" fill="#DD3E46"/>
<path d="M38.1348 30.5084H58.4738V32.5423H38.1348V30.5084Z" fill="#7F9AA7"/>
</g>
<defs>
<clipPath id="clip0_435_884">
<rect width="60" height="60" fill="white"/>
</clipPath>
</defs>
</svg>
