<svg width="20" height="20" viewBox="0 0 20 20" fill="none" xmlns="http://www.w3.org/2000/svg">
<path d="M18.1818 17.1111H20V19H0V17.1111H1.81818V2.94444C1.81818 2.69396 1.91396 2.45374 2.08445 2.27662C2.25494 2.0995 2.48617 2 2.72727 2H11.8182C12.0593 2 12.2905 2.0995 12.461 2.27662C12.6315 2.45374 12.7273 2.69396 12.7273 2.94444V17.1111H14.5455V7.66667H17.2727C17.5138 7.66667 17.7451 7.76617 17.9156 7.94329C18.086 8.12041 18.1818 8.36063 18.1818 8.61111V17.1111ZM5.45455 9.55556V11.4444H9.09091V9.55556H5.45455ZM5.45455 5.77778V7.66667H9.09091V5.77778H5.45455Z" fill="#110C30"/>
</svg>
