<svg width="60" height="60" viewBox="0 0 60 60" fill="none" xmlns="http://www.w3.org/2000/svg">
<path fill-rule="evenodd" clip-rule="evenodd" d="M13.5469 13.8H46.4002V19.3734H13.5469V13.8Z" fill="#FFE5C2"/>
<path fill-rule="evenodd" clip-rule="evenodd" d="M13.5469 13.8H46.4002V15.8667H13.5469V13.8Z" fill="#F0CEA1"/>
<path fill-rule="evenodd" clip-rule="evenodd" d="M5.81445 24.1733H54.2678V58.3467H5.81445V24.1733Z" fill="#FFE5C2"/>
<path fill-rule="evenodd" clip-rule="evenodd" d="M5.81411 24.1733H54.2675V29.88C54.0275 29.9067 53.7875 29.92 53.5475 29.92H53.2408C51.5608 29.92 49.9474 29.2667 48.7208 28.12C47.5075 29.28 45.8941 29.92 44.2008 29.92H43.8941C42.2141 29.92 40.6008 29.2667 39.3741 28.12C38.1608 29.28 36.5474 29.92 34.8541 29.92H34.5475C32.8675 29.92 31.2541 29.2667 30.0274 28.12C28.8141 29.28 27.2008 29.92 25.5075 29.92H25.2008C23.5208 29.92 21.9074 29.2667 20.6808 28.12C19.4674 29.28 17.8541 29.92 16.1608 29.92H15.8674C14.1741 29.92 12.5741 29.2667 11.3474 28.12C10.1208 29.28 8.52078 29.92 6.82745 29.92H6.52078C6.28078 29.92 6.04078 29.9067 5.80078 29.88L5.81411 24.1733Z" fill="#F0CEA1"/>
<path d="M52.8277 14.5066H7.12107C6.74773 14.5066 6.42773 14.2 6.42773 13.8133V1.98664C6.42773 1.61331 6.7344 1.30664 7.12107 1.30664H52.8277C53.2011 1.30664 53.5077 1.61331 53.5077 1.98664V13.8133C53.5211 14.2 53.2011 14.5066 52.8277 14.5066Z" fill="#6C3429"/>
<path d="M7.80078 2.66675H52.1341V13.1201H7.80078V2.66675Z" fill="#A44F3E"/>
<path d="M48.5349 54.6667C48.5349 55.0401 48.2282 55.3467 47.8549 55.3467C47.4816 55.3467 35.6549 55.3467 35.2816 55.3467C34.9082 55.3467 34.6016 55.0401 34.6016 54.6667V39.3467C34.6016 35.5067 37.7349 32.3734 41.5749 32.3734C45.4149 32.3734 48.5482 35.5067 48.5482 39.3467L48.5349 54.6667Z" fill="#A44F3E"/>
<path d="M12.7874 31.7467H29.4141C29.8808 31.7467 30.2941 31.9334 30.6008 32.24C30.9074 32.5467 31.0941 32.96 31.0941 33.4267V49.8C31.0941 50.2667 30.9074 50.68 30.6008 50.9867C30.5874 51 30.5741 51.0134 30.5474 51.0267C30.2408 51.3067 29.8408 51.48 29.4008 51.48H12.7874C12.3208 51.48 11.9074 51.2934 11.6008 50.9867C11.2941 50.68 11.1074 50.2667 11.1074 49.8V33.4267C11.1074 32.96 11.2941 32.5467 11.6008 32.24C11.9074 31.9334 12.3208 31.7467 12.7874 31.7467Z" fill="#A44F3E"/>
<path fill-rule="evenodd" clip-rule="evenodd" d="M12.5868 33.1867C12.5735 33.2 12.5735 33.2 12.5601 33.2133C12.5068 33.2667 12.4668 33.3467 12.4668 33.4267V49.8C12.4668 49.8667 12.4935 49.9333 12.5335 50C12.5468 50 12.5468 50.0133 12.5601 50.0267C12.6135 50.08 12.6935 50.12 12.7735 50.12H29.4001C29.4801 50.12 29.5468 50.0933 29.6135 50.04C29.6268 50.0267 29.6268 50.0267 29.6401 50.0133C29.6935 49.96 29.7201 49.88 29.7201 49.8133V33.4267C29.7201 33.3467 29.6801 33.2667 29.6268 33.2133C29.5735 33.16 29.4935 33.12 29.4135 33.12H12.7868C12.7068 33.12 12.6401 33.1467 12.5868 33.1867Z" fill="#C8EFFE"/>
<path fill-rule="evenodd" clip-rule="evenodd" d="M47.1609 53.9734V39.3467C47.1609 36.2667 44.6409 33.7467 41.5609 33.7467C38.4809 33.7467 35.9609 36.2667 35.9609 39.3467V53.9867C39.6809 53.9734 43.4276 53.9734 47.1609 53.9734Z" fill="#C8EFFE"/>
<path fill-rule="evenodd" clip-rule="evenodd" d="M24.4142 37.2267C24.7208 36.92 25.2142 36.92 25.5208 37.2267C25.8275 37.5334 25.8275 38.0267 25.5208 38.3334L17.7742 46.12C17.4675 46.4267 16.9742 46.4267 16.6675 46.12C16.3608 45.8134 16.3608 45.32 16.6675 45.0134L24.4142 37.2267Z" fill="white"/>
<path fill-rule="evenodd" clip-rule="evenodd" d="M19.1742 37.1067C19.4942 36.8134 19.9875 36.8267 20.2808 37.1334C20.5742 37.44 20.5608 37.9467 20.2542 38.24L17.9475 40.44C17.6275 40.7334 17.1342 40.72 16.8408 40.4134C16.5475 40.1067 16.5608 39.6 16.8675 39.3067L19.1742 37.1067Z" fill="white"/>
<path d="M4.00065 18.1467H11.3473C11.7207 18.1467 12.0407 18.4534 12.0407 18.8267V23.3467C12.0407 24.7734 11.454 26.0801 10.5207 27.0267C9.57399 27.9734 8.28065 28.5467 6.85398 28.5467H6.53398C5.10732 28.5467 3.80065 27.9601 2.86732 27.0267C1.92065 26.0801 1.33398 24.7867 1.33398 23.3467V20.8267C1.33398 20.0934 1.64065 19.4134 2.12065 18.9334C2.60065 18.4401 3.26732 18.1467 4.00065 18.1467Z" fill="#F6A96C"/>
<path d="M11.3613 18.1467H20.708C21.0813 18.1467 21.388 18.4534 21.388 18.8267V23.3467C21.388 24.7734 20.8013 26.0801 19.868 27.0267C18.9213 27.9734 17.628 28.5467 16.188 28.5467H15.868C14.4413 28.5467 13.1346 27.9601 12.188 27.0267C11.2413 26.0801 10.668 24.7867 10.668 23.3467V18.8267C10.668 18.4534 10.9746 18.1467 11.3613 18.1467Z" fill="#A44F3E"/>
<path d="M20.6937 18.1467H30.0403C30.4137 18.1467 30.7203 18.4534 30.7203 18.8267V23.3467C30.7203 24.7734 30.1337 26.0801 29.2003 27.0267C28.2537 27.9734 26.9603 28.5467 25.5203 28.5467H25.2137C23.787 28.5467 22.4803 27.9601 21.5337 27.0267C20.587 26.0801 20.0137 24.7867 20.0137 23.3467V18.8267C20.0137 18.4534 20.3203 18.1467 20.6937 18.1467Z" fill="#F6A96C"/>
<path d="M30.0398 18.1467H39.3865C39.7598 18.1467 40.0665 18.4534 40.0665 18.8267V23.3467C40.0665 24.7734 39.4798 26.0801 38.5331 27.0267C37.5865 27.9734 36.2931 28.5467 34.8665 28.5467H34.5598C33.1331 28.5467 31.8265 27.9601 30.8798 27.0267C29.9331 26.0801 29.3598 24.7867 29.3598 23.3467V18.8267C29.3465 18.4534 29.6531 18.1467 30.0398 18.1467Z" fill="#A44F3E"/>
<path d="M39.3734 18.1467H48.72C49.0934 18.1467 49.4 18.4534 49.4 18.8267V23.3467C49.4 24.7734 48.8134 26.0801 47.8667 27.0267C46.92 27.9734 45.6267 28.5467 44.2 28.5467H43.8934C42.4667 28.5467 41.16 27.9601 40.2267 27.0267C39.28 26.0801 38.6934 24.7867 38.6934 23.3467V18.8267C38.6934 18.4534 39 18.1467 39.3734 18.1467Z" fill="#F6A96C"/>
<path d="M48.7214 18.1467H56.0681C56.8014 18.1467 57.4814 18.4534 57.9614 18.9334C58.4414 19.4134 58.7481 20.0934 58.7481 20.8267V23.3467C58.7481 24.7734 58.1614 26.0801 57.2148 27.0267C56.2681 27.9734 54.9748 28.5467 53.5481 28.5467H53.2414C51.8148 28.5467 50.5081 27.9601 49.5748 27.0267C48.6281 26.0801 48.0414 24.7867 48.0414 23.3467V18.8267C48.0281 18.4534 48.3348 18.1467 48.7214 18.1467Z" fill="#A44F3E"/>
<path d="M44.0137 41.52C44.0137 41.1466 44.3203 40.84 44.6937 40.84C45.067 40.84 45.3737 41.1466 45.3737 41.52V46.1866C45.3737 46.56 45.067 46.8666 44.6937 46.8666C44.3203 46.8666 44.0137 46.56 44.0137 46.1866V41.52Z" fill="#783A2D"/>
<path fill-rule="evenodd" clip-rule="evenodd" d="M23.3604 9.32007C23.6138 9.04007 24.0404 9.01341 24.3204 9.26674C24.6004 9.52007 24.6271 9.94674 24.3738 10.2267C24.0138 10.6267 23.5871 10.9334 23.1071 11.1467C22.6271 11.3601 22.1071 11.4801 21.5738 11.4801C20.5338 11.4801 19.5871 11.0534 18.8938 10.3734C18.2138 9.69341 17.7871 8.74674 17.7871 7.69341C17.7871 6.64007 18.2138 5.70674 18.8938 5.0134C19.5738 4.3334 20.5204 3.90674 21.5738 3.90674C22.0404 3.90674 22.4938 3.98674 22.9204 4.16007C23.3471 4.32007 23.7471 4.56007 24.0938 4.86674C24.3738 5.12007 24.4004 5.54674 24.1471 5.84007C23.8938 6.12007 23.4671 6.14674 23.1738 5.89341C22.9471 5.69341 22.6938 5.54674 22.4271 5.44007C22.1604 5.33341 21.8671 5.28007 21.5738 5.28007C20.9071 5.28007 20.3071 5.54674 19.8671 5.98674C19.4271 6.42674 19.1604 7.02674 19.1604 7.69341C19.1604 8.36007 19.4271 8.96007 19.8671 9.40007C20.3071 9.84007 20.9071 10.1067 21.5738 10.1067C21.9204 10.1067 22.2538 10.0401 22.5604 9.90674C22.8538 9.77341 23.1338 9.57341 23.3604 9.32007Z" fill="#FFE5C2"/>
<path fill-rule="evenodd" clip-rule="evenodd" d="M26.921 11.2534C26.7876 11.6134 26.401 11.7868 26.041 11.6668C25.681 11.5334 25.5076 11.1468 25.6276 10.7868L28.001 4.40009C28.1343 4.04009 28.521 3.86676 28.881 3.98676C29.081 4.05343 29.2276 4.21343 29.2943 4.40009L31.6543 10.7868C31.7876 11.1468 31.601 11.5334 31.241 11.6668C30.881 11.8001 30.4943 11.6134 30.361 11.2534L28.641 6.60009L26.921 11.2534Z" fill="#FFE5C2"/>
<path fill-rule="evenodd" clip-rule="evenodd" d="M27.1468 9.34663C26.7735 9.34663 26.4668 9.03996 26.4668 8.65329C26.4668 8.27996 26.7735 7.95996 27.1468 7.95996H30.1201C30.4935 7.95996 30.8001 8.26663 30.8001 8.65329C30.8001 9.02663 30.4935 9.34663 30.1201 9.34663H27.1468Z" fill="#FFE5C2"/>
<path fill-rule="evenodd" clip-rule="evenodd" d="M32.7207 4.62668C32.7207 4.25335 33.0274 3.93335 33.4007 3.93335C33.774 3.93335 34.0807 4.24002 34.0807 4.62668V11.2C34.0807 11.5733 33.774 11.8933 33.4007 11.8933C33.0274 11.8933 32.7207 11.5867 32.7207 11.2V4.62668Z" fill="#FFE5C2"/>
<path fill-rule="evenodd" clip-rule="evenodd" d="M33.4007 5.32002C33.0274 5.32002 32.7207 5.01335 32.7207 4.62668C32.7207 4.25335 33.0274 3.93335 33.4007 3.93335H36.2407C36.614 3.93335 36.9207 4.24002 36.9207 4.62668C36.9207 5.00002 36.614 5.32002 36.2407 5.32002H33.4007Z" fill="#FFE5C2"/>
<path fill-rule="evenodd" clip-rule="evenodd" d="M33.4007 8.27998C33.0274 8.27998 32.7207 7.97331 32.7207 7.58664C32.7207 7.21331 33.0274 6.89331 33.4007 6.89331H36.2407C36.614 6.89331 36.9207 7.19998 36.9207 7.58664C36.9207 7.95998 36.614 8.27998 36.2407 8.27998H33.4007Z" fill="#FFE5C2"/>
<path fill-rule="evenodd" clip-rule="evenodd" d="M37.9473 4.62668C37.9473 4.25335 38.2539 3.93335 38.6273 3.93335C39.0006 3.93335 39.3073 4.24002 39.3073 4.62668V11.2C39.3073 11.5733 39.0006 11.8933 38.6273 11.8933C38.2539 11.8933 37.9473 11.5867 37.9473 11.2V4.62668Z" fill="#FFE5C2"/>
<path fill-rule="evenodd" clip-rule="evenodd" d="M38.6409 5.32002C38.2676 5.32002 37.9609 5.01335 37.9609 4.62668C37.9609 4.25335 38.2676 3.93335 38.6409 3.93335H41.4676C41.8409 3.93335 42.1476 4.24002 42.1476 4.62668C42.1476 5.00002 41.8409 5.32002 41.4676 5.32002H38.6409Z" fill="#FFE5C2"/>
<path fill-rule="evenodd" clip-rule="evenodd" d="M38.6409 11.8935C38.2676 11.8935 37.9609 11.5868 37.9609 11.2002C37.9609 10.8268 38.2676 10.5068 38.6409 10.5068H41.4676C41.8409 10.5068 42.1476 10.8135 42.1476 11.2002C42.1476 11.5735 41.8409 11.8935 41.4676 11.8935H38.6409Z" fill="#FFE5C2"/>
<path fill-rule="evenodd" clip-rule="evenodd" d="M38.6409 8.60005C38.2676 8.60005 37.9609 8.29338 37.9609 7.90671C37.9609 7.53338 38.2676 7.21338 38.6409 7.21338H41.4676C41.8409 7.21338 42.1476 7.52005 42.1476 7.90671C42.1476 8.28005 41.8409 8.60005 41.4676 8.60005H38.6409Z" fill="#FFE5C2"/>
<path d="M55.3876 58.8933C56.1209 58.8933 56.8009 58.6 57.3209 58.0933C57.8409 57.5733 58.1209 56.8933 58.1209 56.16C58.1209 55.4266 57.8276 54.7466 57.3209 54.2266C56.8009 53.7066 56.1209 53.4266 55.3876 53.4266H4.69427C3.96094 53.4266 3.28094 53.72 2.76094 54.2266C2.24094 54.7466 1.96094 55.4266 1.96094 56.16C1.96094 56.8933 2.25427 57.5733 2.76094 58.0933C3.2676 58.6133 3.96094 58.8933 4.69427 58.8933H55.3876Z" fill="#F6A96C"/>
</svg>
