<svg width="24" height="24" viewBox="0 0 24 24" fill="none" xmlns="http://www.w3.org/2000/svg">
<g clip-path="url(#clip0_36_749)">
<path d="M0.504883 17.7679V20.1372C0.504883 20.5085 0.677336 20.8369 0.942226 21.0581V22.6327C0.942226 23.2314 1.4293 23.7184 2.02795 23.7184H3.50418C4.10282 23.7184 4.5899 23.2314 4.5899 22.6327V21.3419H12.7035V22.6327C12.7035 23.2314 13.1906 23.7184 13.7893 23.7184H15.2655C15.8643 23.7184 16.3514 23.2314 16.3514 22.6327V21.2126C16.7482 21.0154 17.0241 20.6097 17.0241 20.1373V17.7679C17.0241 17.6869 16.9972 17.6082 16.9479 17.5442C15.4045 15.5677 15.6626 15.8394 15.5253 15.736L14.5057 12.9311C14.1368 11.921 13.1679 11.2424 12.0945 11.2424H5.61004C4.57546 11.2424 3.64869 11.8588 3.24941 12.8122C1.88732 16.0556 1.94784 15.8768 1.93382 15.9621L0.59282 17.5299C0.535961 17.5962 0.504883 17.6806 0.504883 17.7679ZM3.85752 22.6327C3.85752 22.8276 3.69909 22.9861 3.50418 22.9861H2.02795C1.83304 22.9861 1.6746 22.8276 1.6746 22.6327V21.3417H1.70788C1.70849 21.3417 1.70905 21.3419 1.70966 21.3419H3.85752V22.6327ZM15.2655 22.986H13.7893C13.5944 22.986 13.436 22.8276 13.436 22.6327V21.3418H15.619V22.6327C15.619 22.8276 15.4604 22.986 15.2655 22.986ZM3.9246 13.0958C4.20998 12.4149 4.87157 11.9748 5.61004 11.9748H12.0945C12.8616 11.9748 13.5541 12.4601 13.8175 13.1817L14.7166 15.6549H13.4278C13.3841 14.6227 12.5374 13.7947 11.4946 13.7947C10.4519 13.7947 9.60515 14.6227 9.56151 15.6549H2.84638L3.9246 13.0958ZM12.6953 15.6549H10.2939C10.3365 15.0267 10.8558 14.5271 11.4946 14.5271C12.1334 14.5272 12.6527 15.0267 12.6953 15.6549ZM1.23726 17.903L2.53382 16.3873H15.1304L16.2917 17.8927V20.1373C16.2917 20.3973 16.0803 20.6089 15.8204 20.6093C11.6217 20.6093 16.4782 20.6096 1.70882 20.6093C1.44876 20.6089 1.2373 20.3973 1.2373 20.1373L1.23726 17.903Z" fill="black"/>
<path d="M3.56861 19.7331H4.94402C5.41052 19.7331 5.78997 19.3536 5.78997 18.8871V18.2545C5.78997 17.788 5.41052 17.4086 4.94402 17.4086H3.56861C3.10211 17.4086 2.72266 17.788 2.72266 18.2545V18.8871C2.7227 19.3537 3.10211 19.7331 3.56861 19.7331ZM3.45508 18.2545C3.45508 18.1898 3.50388 18.141 3.56861 18.141H4.94402C5.00875 18.141 5.05755 18.1898 5.05755 18.2545V18.8871C5.05755 18.9519 5.00875 19.0007 4.94402 19.0007H3.56861C3.50388 19.0007 3.45508 18.9519 3.45508 18.8871V18.2545Z" fill="black"/>
<path d="M12.5862 19.7331H13.9616C14.4281 19.7331 14.8075 19.3536 14.8075 18.8871V18.2545C14.8075 17.788 14.4281 17.4086 13.9616 17.4086H12.5862C12.1197 17.4086 11.7402 17.788 11.7402 18.2545V18.8871C11.7402 19.3537 12.1197 19.7331 12.5862 19.7331ZM12.4727 18.2545C12.4727 18.1898 12.5215 18.141 12.5862 18.141H13.9616C14.0253 18.141 14.0751 18.1909 14.0751 18.2545V18.8871C14.0751 18.9519 14.0263 19.0007 13.9616 19.0007H12.5862C12.5215 19.0007 12.4727 18.9519 12.4727 18.8871V18.2545Z" fill="black"/>
<path d="M7.87205 18.9366H9.6578C9.86002 18.9366 10.024 18.7726 10.024 18.5704C10.024 18.3682 9.86002 18.2042 9.6578 18.2042H7.87205C7.66983 18.2042 7.50586 18.3682 7.50586 18.5704C7.50586 18.7726 7.66983 18.9366 7.87205 18.9366Z" fill="black"/>
<path d="M19.1601 5.50634C19.7242 5.50634 20.1832 5.04734 20.1832 4.4832V3.4361C20.1832 2.87196 19.7242 2.41296 19.1601 2.41296H17.456C17.2538 2.41296 17.0898 2.57693 17.0898 2.77915V7.50096C17.0898 7.70318 17.2538 7.86715 17.456 7.86715C17.6583 7.86715 17.8222 7.70318 17.8222 7.50096V5.50634H19.1601ZM19.4508 3.4361V4.4832C19.4508 4.6436 19.3205 4.77396 19.1601 4.77396H17.8222V3.14539H19.1601C19.3205 3.14539 19.4508 3.2757 19.4508 3.4361Z" fill="black"/>
<path d="M18.6367 23.7185C18.8389 23.7185 19.0029 23.5545 19.0029 23.3523V9.99862H21.9425C22.7987 9.99862 23.4951 9.30196 23.4951 8.44584V1.8344C23.4951 0.978272 22.7987 0.281616 21.9425 0.281616H15.3309C14.4748 0.281616 13.7783 0.978272 13.7783 1.8344V8.44584C13.7783 9.30196 14.4748 9.99862 15.3309 9.99862H18.2705V23.3522C18.2705 23.5545 18.4345 23.7185 18.6367 23.7185ZM14.5107 8.44584V1.8344C14.5107 1.38201 14.8787 1.01404 15.3309 1.01404H21.9425C22.3947 1.01404 22.7627 1.38201 22.7627 1.8344V8.44584C22.7627 8.89823 22.3947 9.26619 21.9425 9.26619H15.3309C14.8787 9.26624 14.5107 8.89823 14.5107 8.44584Z" fill="black"/>
</g>
<defs>
<clipPath id="clip0_36_749">
<rect width="24" height="24" fill="white"/>
</clipPath>
</defs>
</svg>
