<svg width="60" height="60" viewBox="0 0 60 60" fill="none" xmlns="http://www.w3.org/2000/svg">
<path fill-rule="evenodd" clip-rule="evenodd" d="M32.3768 27.0032L41.7875 29.7381C43.2142 30.1533 44.1599 31.412 44.1599 32.8981V39.3267H20.5938V32.8981C20.5938 31.412 21.5395 30.1533 22.9695 29.7381L32.3768 27.0032Z" fill="#E2F0FA"/>
<path fill-rule="evenodd" clip-rule="evenodd" d="M32.3768 27.0032L34.0342 27.4842L24.3139 30.3114C22.7915 30.7529 21.7799 32.0973 21.7799 33.6822V39.3266H20.5938V32.8981C20.5938 31.412 21.5395 30.1533 22.9695 29.7381L32.3768 27.0032Z" fill="#D2EAFA"/>
<path fill-rule="evenodd" clip-rule="evenodd" d="M36.1591 23.6158V28.2256L32.3764 30.5289L28.5938 28.2256V23.6158H36.1591Z" fill="#F7A081"/>
<path fill-rule="evenodd" clip-rule="evenodd" d="M39.5602 15.0553V20.3537C39.5602 23.339 37.1878 25.7806 34.2849 25.7806H30.4693C27.5696 25.7806 25.1973 23.339 25.1973 20.3537V15.0553H39.5602Z" fill="#FFBFA8"/>
<path fill-rule="evenodd" clip-rule="evenodd" d="M24.5879 11.5658H40.1702V15.6517H24.5879V11.5658Z" fill="#C5DCF2"/>
<path fill-rule="evenodd" clip-rule="evenodd" d="M24.5879 11.5658H25.7708V15.6517H24.5879V11.5658Z" fill="#B5D1EB"/>
<path fill-rule="evenodd" clip-rule="evenodd" d="M26.3168 3.86203C27.0351 3.86203 27.7106 4.03336 28.307 4.33981C28.7979 2.4518 30.5146 1.05469 32.5576 1.05469C34.5445 1.05469 36.225 2.37926 36.7653 4.19484C37.2793 3.98063 37.8461 3.86203 38.4392 3.86203C40.861 3.86203 42.8282 5.82586 42.8282 8.25105C42.8282 10.6763 40.8611 11.8624 38.4392 11.8624C33.9744 11.8624 30.742 11.8624 26.3168 11.8624C23.8916 11.8624 21.9277 10.6763 21.9277 8.25105C21.9277 5.82586 23.8916 3.86203 26.3168 3.86203Z" fill="#E2F0FA"/>
<path fill-rule="evenodd" clip-rule="evenodd" d="M26.3168 3.86206C26.5177 3.86206 26.7154 3.87519 26.9098 3.90155C24.768 4.19147 23.1139 6.02686 23.1139 8.25097C23.1139 10.6762 25.0777 11.8623 27.5029 11.8623H26.3168C23.8916 11.8623 21.9277 10.6762 21.9277 8.25097C21.9277 5.82589 23.8916 3.86206 26.3168 3.86206Z" fill="#D2EAFA"/>
<path fill-rule="evenodd" clip-rule="evenodd" d="M49.0801 46.7372H52.0126V58.9453H49.0801V46.7372Z" fill="#908E96"/>
<path fill-rule="evenodd" clip-rule="evenodd" d="M7.99023 46.7372H10.9229V58.9453H7.99023V46.7372Z" fill="#908E96"/>
<path fill-rule="evenodd" clip-rule="evenodd" d="M55.6461 42.2593V54.3817C53.2111 52.5596 50.1829 51.4788 46.9044 51.4788C43.7577 51.4788 40.8383 52.4772 38.4526 54.1708C36.067 52.4772 33.1509 51.4788 30.0008 51.4788C26.8508 51.4788 23.9346 52.4772 21.549 54.1708C19.1634 52.4772 16.2472 51.4788 13.0972 51.4788C9.81863 51.4788 6.79379 52.5596 4.35547 54.3817V42.2593H55.6461Z" fill="#FF656F"/>
<path fill-rule="evenodd" clip-rule="evenodd" d="M4.35547 39.3267H55.6461V42.2593H4.35547V39.3267Z" fill="#4D5080"/>
<path fill-rule="evenodd" clip-rule="evenodd" d="M5.45953 32.6212H24.5872C25.2627 32.6212 25.8163 32.0676 25.8163 31.3888C25.8163 30.7134 25.2627 30.1598 24.5872 30.1598H5.45953C4.78406 30.1598 4.23047 30.7134 4.23047 31.3888C4.23047 32.0676 4.78406 32.6212 5.45953 32.6212Z" fill="#FF656F"/>
<path fill-rule="evenodd" clip-rule="evenodd" d="M15.0243 20.6141C20.293 20.6141 24.5667 24.8878 24.5667 30.1599H5.47852C5.47852 24.8877 9.75223 20.6141 15.0243 20.6141Z" fill="#4D5080"/>
<path fill-rule="evenodd" clip-rule="evenodd" d="M15.0241 20.6141C15.8842 20.6141 16.586 19.9122 16.586 19.0489C16.586 18.1889 15.8842 17.4838 15.0241 17.4838C14.1608 17.4838 13.459 18.1889 13.459 19.0489C13.459 19.9122 14.1609 20.6141 15.0241 20.6141Z" fill="#FF656F"/>
<path fill-rule="evenodd" clip-rule="evenodd" d="M7.99023 34.9838H11.0414V39.3266H7.99023V34.9838Z" fill="#908E96"/>
<path fill-rule="evenodd" clip-rule="evenodd" d="M19.0059 34.9838H22.0571V39.3266H19.0059V34.9838Z" fill="#908E96"/>
<path fill-rule="evenodd" clip-rule="evenodd" d="M5.45898 32.6212H24.5867V36.104H5.45898V32.6212Z" fill="#BABABE"/>
<path fill-rule="evenodd" clip-rule="evenodd" d="M40.614 26.9603C42.189 26.9603 43.4775 28.2454 43.4775 29.8204V32.0874C43.4775 33.6624 42.1891 34.9508 40.614 34.9508C39.0423 34.9508 37.7539 33.6624 37.7539 32.0874V29.8204C37.7539 28.2454 39.0424 26.9603 40.614 26.9603Z" fill="#FFAA81"/>
<path fill-rule="evenodd" clip-rule="evenodd" d="M44.9805 26.9603C46.5523 26.9603 47.8406 28.2454 47.8406 29.8204V32.0874C47.8406 33.6624 46.5523 34.9508 44.9805 34.9508C43.4055 34.9508 42.1172 33.6624 42.1172 32.0874V29.8204C42.1172 28.2454 43.4055 26.9603 44.9805 26.9603Z" fill="#FFBFA8"/>
<path fill-rule="evenodd" clip-rule="evenodd" d="M49.342 26.9603C50.9137 26.9603 52.2021 28.2454 52.2021 29.8204V32.0874C52.2021 33.6624 50.9137 34.9508 49.342 34.9508C47.767 34.9508 46.4785 33.6624 46.4785 32.0874V29.8204C46.4786 28.2454 47.767 26.9603 49.342 26.9603Z" fill="#FFAA81"/>
<path fill-rule="evenodd" clip-rule="evenodd" d="M37.9453 34.9838H40.9965V39.3266H37.9453V34.9838Z" fill="#908E96"/>
<path fill-rule="evenodd" clip-rule="evenodd" d="M48.9609 34.9838H52.0121V39.3266H48.9609V34.9838Z" fill="#908E96"/>
<path fill-rule="evenodd" clip-rule="evenodd" d="M35.4141 32.6212H54.5418V36.104H35.4141V32.6212Z" fill="#BABABE"/>
<path fill-rule="evenodd" clip-rule="evenodd" d="M55.6461 42.2593V54.3817C53.2111 52.5596 50.1829 51.4788 46.9044 51.4788C43.7577 51.4788 40.8383 52.4772 38.4526 54.1708C36.067 52.4772 33.1509 51.4788 30.0008 51.4788C26.8508 51.4788 23.9346 52.4772 21.549 54.1708C19.1634 52.4772 16.2472 51.4788 13.0972 51.4788C9.81863 51.4788 6.79379 52.5596 4.35547 54.3817V42.2593H6.17762V50.7078C8.23707 49.5973 10.593 48.968 13.0972 48.968C16.2472 48.968 19.1634 49.9665 21.549 51.6601C23.9347 49.9663 26.8508 48.968 30.0008 48.968C33.1509 48.968 36.067 49.9665 38.4526 51.6601C40.8382 49.9665 43.7575 48.968 46.9044 48.968C50.1829 48.968 53.2112 50.0488 55.6461 51.871V42.2593Z" fill="#FF4756"/>
<path fill-rule="evenodd" clip-rule="evenodd" d="M4.35547 39.3267H6.17762V42.2593H4.35547V39.3267Z" fill="#434675"/>
<path fill-rule="evenodd" clip-rule="evenodd" d="M5.45898 32.6212H24.5867V33.7052H6.85609V36.104H5.45898V32.6212Z" fill="#AFAFB5"/>
<path fill-rule="evenodd" clip-rule="evenodd" d="M35.4141 32.6212H54.5418V33.7052H36.8112V36.104H35.4141V32.6212Z" fill="#AFAFB5"/>
<path fill-rule="evenodd" clip-rule="evenodd" d="M15.0243 20.6141C15.2944 20.6141 15.5646 20.6273 15.8348 20.6503C10.9417 21.0623 7.09969 25.1612 7.09969 30.1599H5.47852C5.47852 24.8877 9.75223 20.6141 15.0243 20.6141Z" fill="#434675"/>
<path fill-rule="evenodd" clip-rule="evenodd" d="M5.45953 32.6212H7.30805C6.63258 32.6212 6.07898 32.0676 6.07898 31.3888C6.07898 30.7134 6.63258 30.1598 7.30805 30.1598H5.45953C4.78406 30.1598 4.23047 30.7134 4.23047 31.3888C4.23047 32.0676 4.78406 32.6212 5.45953 32.6212Z" fill="#FF4756"/>
<path d="M30.1862 19.2471C30.1862 19.6993 29.8196 20.066 29.3673 20.066C28.915 20.066 28.5484 19.6993 28.5484 19.2471V18.5808C28.5484 18.1286 28.915 17.7619 29.3673 17.7619C29.8196 17.7619 30.1862 18.1284 30.1862 18.5808V19.2471ZM35.4674 20.066C35.9196 20.066 36.2863 19.6993 36.2863 19.2471V18.5808C36.2863 18.1286 35.9197 17.7619 35.4674 17.7619C35.015 17.7619 34.6485 18.1284 34.6485 18.5808V19.2471C34.6485 19.6993 35.0152 20.066 35.4674 20.066ZM34.4886 22.9093C34.847 22.6332 34.9134 22.1193 34.6375 21.7609C34.3615 21.4027 33.847 21.336 33.489 21.6121C32.8109 22.1347 32.0936 22.1347 31.4154 21.6121C31.057 21.3359 30.543 21.4027 30.267 21.7609C29.9909 22.1191 30.0574 22.6332 30.4158 22.9093C31.0438 23.3932 31.748 23.6353 32.4522 23.6353C33.1564 23.6352 33.8605 23.3932 34.4886 22.9093ZM32.925 34.0086C32.9039 33.9584 32.8793 33.9116 32.8489 33.8671C32.8196 33.8214 32.7858 33.7805 32.7472 33.7419C32.5577 33.5524 32.2747 33.4648 32.0093 33.5186C31.9567 33.5291 31.9051 33.5443 31.856 33.5654C31.8057 33.5854 31.759 33.611 31.7145 33.6402C31.6689 33.6707 31.6279 33.7045 31.5893 33.7419C31.5519 33.7805 31.518 33.8214 31.4876 33.8671C31.4583 33.9115 31.4325 33.9584 31.4127 34.0086C31.3916 34.0577 31.3765 34.1093 31.3659 34.1618C31.3554 34.2144 31.3495 34.2682 31.3495 34.3209C31.3495 34.5373 31.4373 34.7479 31.5893 34.8998C31.6279 34.9384 31.6689 34.9724 31.7145 35.0027C31.7589 35.032 31.8057 35.0565 31.856 35.0775C31.9051 35.0974 31.9567 35.1138 32.0093 35.1244C32.0618 35.1349 32.1156 35.1407 32.1694 35.1407C32.3846 35.1407 32.5951 35.0529 32.7472 34.8997C32.9004 34.7477 32.987 34.5371 32.987 34.3208C32.987 34.2682 32.9823 34.2144 32.9718 34.1617C32.9612 34.1093 32.9448 34.0577 32.925 34.0086ZM32.925 36.5875C32.9039 36.5384 32.8793 36.4904 32.85 36.4459C32.8196 36.4015 32.7858 36.3593 32.7471 36.322C32.7096 36.2835 32.6677 36.2495 32.6231 36.2203C32.5786 36.1898 32.5318 36.1652 32.4816 36.1443C32.4323 36.1243 32.381 36.108 32.3283 36.0975C32.223 36.0764 32.1142 36.0764 32.0091 36.0975C31.9564 36.108 31.9049 36.1243 31.8558 36.1443C31.8055 36.1652 31.7587 36.1898 31.7142 36.2203C31.6686 36.2496 31.6276 36.2835 31.5891 36.322C31.5517 36.3594 31.5178 36.4015 31.4873 36.4459C31.458 36.4903 31.4323 36.5384 31.4125 36.5875C31.3914 36.6366 31.3762 36.6881 31.3657 36.7407C31.3552 36.7932 31.3493 36.847 31.3493 36.9008C31.3493 36.9534 31.3552 37.0072 31.3657 37.061C31.3762 37.1126 31.3914 37.1639 31.4125 37.2143C31.4323 37.2634 31.4582 37.3102 31.4873 37.3547C31.5177 37.4003 31.5517 37.4412 31.5891 37.4797C31.6276 37.5172 31.6686 37.5511 31.7142 37.5814C31.7586 37.6107 31.8055 37.6364 31.8558 37.6562C31.9049 37.6773 31.9564 37.6925 32.0091 37.7031C32.0616 37.7136 32.1154 37.7194 32.168 37.7194C32.2218 37.7194 32.2755 37.7135 32.3283 37.7031C32.3809 37.6925 32.4323 37.6774 32.4816 37.6562C32.5318 37.6363 32.5786 37.6106 32.6231 37.5814C32.6675 37.5511 32.7096 37.5171 32.7471 37.4797C32.7858 37.4412 32.8196 37.4003 32.85 37.3547C32.8793 37.3102 32.9038 37.2634 32.925 37.2143C32.9448 37.1639 32.9612 37.1126 32.9716 37.061C32.9822 37.0072 32.9869 36.9534 32.9869 36.9008C32.9869 36.847 32.9822 36.7932 32.9716 36.7407C32.9612 36.6881 32.9448 36.6366 32.925 36.5875ZM54.1553 17.8944H45.2174C43.8299 17.8944 42.7011 19.0218 42.7011 20.4074C42.7011 21.7949 43.8299 22.9237 45.2174 22.9237H48.8774C49.3618 22.9237 49.7559 23.3177 49.7559 23.8022C49.7559 24.2544 50.1225 24.6211 50.5748 24.6211C51.0271 24.6211 51.3937 24.2545 51.3937 23.8022C51.3937 22.4147 50.2649 21.2859 48.8774 21.2859H45.2174C44.733 21.2859 44.3389 20.892 44.3389 20.4074C44.3389 19.9247 44.7329 19.5321 45.2174 19.5321H54.1553C55.5428 19.5321 56.6715 18.4032 56.6715 17.0157C56.6715 15.6282 55.5428 14.4995 54.1553 14.4995H51.1317C50.6473 14.4995 50.2532 14.1055 50.2532 13.6209C50.2532 13.1687 49.8866 12.802 49.4343 12.802C48.982 12.802 48.6154 13.1686 48.6154 13.6209C48.6154 15.0084 49.7442 16.1373 51.1317 16.1373H54.1553C54.6396 16.1373 55.0337 16.5313 55.0337 17.0157C55.0337 17.4922 54.6315 17.8944 54.1553 17.8944ZM56.6848 39.3838V42.3343V54.531C56.6848 54.8408 56.5098 55.1242 56.2328 55.263C56.1168 55.3212 55.991 55.3499 55.866 55.3499C55.6924 55.3499 55.5199 55.2947 55.3757 55.1869C54.6335 54.6322 53.8478 54.1588 53.0282 53.768V59.1225C53.0282 59.5747 52.6616 59.9414 52.2093 59.9414H49.2587C48.8064 59.9414 48.4398 59.5747 48.4398 59.1225V52.4981C47.9875 52.4542 47.531 52.4292 47.0706 52.4292C44.1742 52.4292 41.3977 53.3135 39.0412 54.9866C38.7572 55.1882 38.3766 55.1882 38.0925 54.9861C35.7409 53.3134 32.9633 52.4292 30.0602 52.4292C27.1639 52.4292 24.3873 53.3136 22.0307 54.9866C21.7468 55.1882 21.3661 55.1882 21.082 54.9861C18.7305 53.3134 15.9543 52.4292 13.0533 52.4292C12.5929 52.4292 12.1365 52.4542 11.6841 52.4981V59.1225C11.6841 59.5747 11.3174 59.9414 10.8652 59.9414H7.91461C7.46238 59.9414 7.0957 59.5747 7.0957 59.1225V53.768C6.27609 54.1588 5.49035 54.6322 4.7482 55.1869C4.49988 55.3724 4.16824 55.4018 3.89121 55.263C3.61418 55.1242 3.43922 54.8408 3.43922 54.531V42.3343V39.3838C3.43922 38.9314 3.80578 38.5649 4.25813 38.5649H7.09582V36.9605H5.37176C4.91953 36.9605 4.55285 36.5939 4.55285 36.1416V33.2816C3.82605 32.9645 3.31641 32.2397 3.31641 31.3975C3.31641 30.5405 3.8441 29.805 4.59129 29.4969C4.88859 24.7935 8.31891 20.9273 12.8138 19.9676C12.677 19.6665 12.5989 19.3335 12.5989 18.9819C12.5989 17.662 13.6727 16.5884 14.9926 16.5884C16.3125 16.5884 17.3863 17.662 17.3863 18.9819C17.3863 19.3335 17.3081 19.6665 17.1715 19.9676C21.2555 20.8396 24.4608 24.1109 25.2356 28.2295L27.8291 27.4771V25.9267C25.8042 24.9008 24.4078 22.7621 24.4078 20.2948V16.3557C24.0552 16.2645 23.7945 15.945 23.7945 15.5639V12.1078C22.1161 11.4193 21.1192 10.0011 21.1192 8.11793C21.1192 5.23148 23.4675 2.88316 26.3538 2.88316C26.878 2.88316 27.3873 2.95828 27.8768 3.10734C28.7183 1.27512 30.5624 0.0585938 32.6329 0.0585938C34.6494 0.0585938 36.4855 1.24359 37.3488 3.02227C37.7419 2.92969 38.1437 2.88316 38.5506 2.88316C41.4369 2.88316 43.7852 5.23148 43.7852 8.11793C43.7852 9.99984 42.7896 11.4176 41.1132 12.1065V15.5639C41.1132 15.9463 40.851 16.2664 40.4966 16.3566V20.2946C40.4966 22.7614 39.1016 24.8995 37.0786 25.9257V27.4775L37.7354 27.6688C38.4074 26.7337 39.5043 26.1229 40.7418 26.1229C41.5375 26.1229 42.3023 26.3813 42.9334 26.8479C43.5484 26.3926 44.3088 26.1229 45.1311 26.1229C45.9267 26.1229 46.6917 26.3813 47.3227 26.8479C47.9377 26.3926 48.698 26.1229 49.5204 26.1229C51.5586 26.1229 53.2168 27.7811 53.2168 29.8193V31.8149H54.7518C55.204 31.8149 55.5707 32.1814 55.5707 32.6338V36.1413C55.5707 36.5936 55.2041 36.9602 54.7518 36.9602H53.0279V38.5646H55.8656C56.3182 38.5649 56.6848 38.9314 56.6848 39.3838ZM51.3904 38.5649V36.9605H49.9582V38.5649H51.3904ZM40.3042 36.9604H38.8721V38.5648H40.3042V36.9604ZM48.3204 36.9604H41.942V38.5648H48.3204V36.9604ZM47.4586 31.815H51.5793V29.8194C51.5793 28.6842 50.6558 27.7608 49.5206 27.7608C48.3837 27.7608 47.4586 28.6843 47.4586 29.8194V31.815ZM43.0692 31.815H45.8208V29.8194C45.8208 29.1977 45.9758 28.6117 46.2484 28.097C45.9173 27.881 45.5314 27.7607 45.1312 27.7607C43.9942 27.7607 43.0691 28.6842 43.0691 29.8193V31.815H43.0692ZM38.6798 31.815H41.4313V29.8194C41.4313 29.1977 41.5864 28.6117 41.8589 28.097C41.5279 27.881 41.1419 27.7608 40.7418 27.7608C39.6048 27.7608 38.6798 28.6843 38.6798 29.8194V31.815ZM36.3294 33.4528V35.3225H38.0532H41.1231H49.1393H52.2091H53.933V33.4528H36.3294ZM36.5137 29.0189L32.8798 31.2316C32.8727 31.2359 32.8651 31.2389 32.858 31.2429L30.1897 32.8685V38.5649H37.2345V36.9605H35.5105C35.0583 36.9605 34.6916 36.5939 34.6916 36.1416V32.634C34.6916 32.1817 35.0582 31.8151 35.5105 31.8151H37.0421V29.8195C37.0421 29.6045 37.0617 29.394 37.0971 29.1888L36.5137 29.0189ZM34.2557 28.4736L34.2568 28.4756L35.4409 27.7547V26.4764C35.094 26.5392 34.7377 26.5739 34.3734 26.5739H30.5344C30.1702 26.5739 29.8139 26.5393 29.467 26.4765V27.7547L32.4522 29.5725L34.2557 28.4736ZM26.3538 10.9325H38.5506C39.3943 10.9325 42.1474 10.7296 42.1474 8.11805C42.1474 6.13465 40.534 4.52109 38.5506 4.52109C38.0791 4.52109 37.6166 4.61227 37.1756 4.79203C36.9616 4.87922 36.7208 4.87195 36.5125 4.77211C36.3042 4.67227 36.1477 4.4891 36.0817 4.26773C35.6303 2.75379 34.2122 1.69652 32.633 1.69652C30.9957 1.69652 29.5643 2.80371 29.1521 4.38891C29.0897 4.62926 28.9215 4.82812 28.695 4.92996C28.4685 5.0318 28.2081 5.02512 27.987 4.91203C27.4793 4.65258 26.9299 4.52109 26.3539 4.52109C24.3705 4.52109 22.7571 6.13465 22.7571 8.11805C22.757 10.7296 25.5101 10.9325 26.3538 10.9325ZM25.4323 14.745H39.4754V12.517C39.1789 12.5517 38.8707 12.5702 38.5505 12.5702H26.3538C26.0348 12.5702 25.7277 12.5518 25.4323 12.5175V14.745ZM30.5344 24.936H34.3734C36.8467 24.936 38.8589 22.854 38.8589 20.2948V16.3828H26.0455V20.2948C26.0455 22.854 28.0593 24.936 30.5344 24.936ZM24.6134 36.9604H22.8895V38.5648H28.5519V32.4084C28.5519 32.1227 28.7009 31.8578 28.9448 31.7091L30.8781 30.5312L28.3936 29.0184L25.8472 29.7572C26.3452 30.1327 26.6689 30.7271 26.6689 31.3972C26.6689 32.2395 26.1591 32.9643 25.4324 33.2814V36.1413C25.4323 36.5938 25.0657 36.9604 24.6134 36.9604ZM18.1818 36.9604H11.8034V38.5648H18.1818V36.9604ZM21.2516 36.9604H19.8196V38.5648H21.2516V36.9604ZM14.2366 18.9819C14.2366 19.3986 14.5758 19.7378 14.9925 19.7378C15.4092 19.7378 15.7484 19.3986 15.7484 18.9819C15.7484 18.5652 15.4092 18.2262 14.9925 18.2262C14.5758 18.2262 14.2366 18.5651 14.2366 18.9819ZM6.24516 29.342H23.7401C23.3257 24.8803 19.5607 21.3756 14.9925 21.3756C10.4245 21.3756 6.65953 24.8803 6.24516 29.342ZM5.37176 31.815H24.6134C24.8438 31.815 25.031 31.6277 25.031 31.3975C25.031 31.1709 24.8398 30.9798 24.6134 30.9798H24.5968H5.38852H5.37176C5.14535 30.9798 4.95422 31.1709 4.95422 31.3975C4.95422 31.6277 5.14148 31.815 5.37176 31.815ZM7.91461 35.3225H10.9846H19.0008H22.0705H23.7945V33.4528H6.19066V35.3225H7.91461ZM8.73352 38.5649H10.1657V36.9605H8.73352V38.5649ZM10.0463 52.7566C9.60234 52.8543 9.1643 52.9721 8.73352 53.113V58.3036H10.0463V52.7566ZM51.3904 53.113C50.9597 52.9721 50.5214 52.8543 50.0776 52.7565V58.3035H51.3904V53.113ZM55.047 40.2027H5.0768V41.5154H41.3452C41.7974 41.5154 42.1641 41.8821 42.1641 42.3343C42.1641 42.7867 41.7974 43.1532 41.3452 43.1532H5.0768V52.995C5.88188 52.5107 6.72398 52.1054 7.59387 51.7782C7.60887 51.7719 7.62445 51.7668 7.63981 51.7613C9.35414 51.1227 11.1779 50.7914 13.0532 50.7914C16.1036 50.7914 19.0311 51.6663 21.557 53.3271C24.0871 51.6662 27.0144 50.7914 30.0601 50.7914C33.1124 50.7914 36.0412 51.6663 38.5673 53.3271C41.0973 51.6662 44.0248 50.7914 47.0705 50.7914C48.9465 50.7914 50.771 51.1228 52.4858 51.762C52.5005 51.7672 52.5153 51.7721 52.5296 51.7782C53.3996 52.1054 54.2418 52.5107 55.0468 52.9951V43.1534H44.5443C44.092 43.1534 43.7253 42.7868 43.7253 42.3345C43.7253 41.8822 44.0919 41.5155 44.5443 41.5155H55.0468V40.2027H55.047Z" fill="black"/>
</svg>
