<svg width="24" height="24" viewBox="0 0 24 24" fill="none" xmlns="http://www.w3.org/2000/svg">
<g clip-path="url(#clip0_36_760)">
<path d="M22.4906 3.33276H1.50938C0.675 3.33276 0 4.00776 0 4.84214V8.47026C0 9.30464 0.675 9.97964 1.50938 9.97964H3.33281V12C3.33281 14.3062 4.2375 16.4812 5.87813 18.1218C7.51875 19.7625 9.69375 20.6671 12 20.6671C14.3062 20.6671 16.4813 19.7625 18.1219 18.1218C19.7625 16.4812 20.6672 14.3062 20.6672 12V9.97964H22.4906C23.325 9.97964 24 9.30464 24 8.47026V4.84214C24 4.00776 23.325 3.33276 22.4906 3.33276ZM19.9172 12C19.9172 16.364 16.3641 19.9171 12 19.9171C7.63594 19.9171 4.08281 16.364 4.08281 12V9.97964H7.20469C7.22344 9.97964 7.24219 9.97964 7.26094 9.97495C7.38281 9.96089 7.49062 9.8812 7.54688 9.77339C7.94531 8.9812 8.52656 8.32495 9.22969 7.8562C10.0312 7.31714 10.9875 7.01714 12 7.01714C13.0172 7.01714 13.9781 7.32183 14.7844 7.87026C15.4781 8.33901 16.0547 8.99058 16.4531 9.77808C16.5094 9.89058 16.6125 9.96558 16.7344 9.97964C16.7531 9.98433 16.7719 9.98433 16.7906 9.98433H16.8H19.9219V12H19.9172ZM23.25 8.47026C23.25 8.88745 22.9078 9.22964 22.4906 9.22964H17.0109C16.5422 8.3812 15.8672 7.6687 15.0469 7.14839C14.1328 6.57183 13.0781 6.26714 12 6.26714C10.9219 6.26714 9.86719 6.57183 8.95312 7.14839C8.13281 7.6687 7.45781 8.38589 6.98906 9.22964H1.50938C1.09219 9.22964 0.75 8.88745 0.75 8.47026V4.84214C0.75 4.42495 1.09219 4.08276 1.50938 4.08276H22.4906C22.9078 4.08276 23.25 4.42495 23.25 4.84214V8.47026ZM12 10.6593C9.525 10.6593 7.51406 12.675 7.51406 15.1453C7.51406 17.6156 9.52969 19.6312 12 19.6312C14.4703 19.6312 16.4859 17.6156 16.4859 15.1453C16.4859 12.675 14.475 10.6593 12 10.6593ZM12 18.8812C9.9375 18.8812 8.26406 17.2031 8.26406 15.1453C8.26406 13.0875 9.94219 11.4093 12 11.4093C14.0578 11.4093 15.7359 13.0875 15.7359 15.1453C15.7359 17.2031 14.0625 18.8812 12 18.8812ZM12 13.1015C10.6359 13.1015 9.52969 14.2078 9.52969 15.5718C9.52969 16.9359 10.6359 18.0421 12 18.0421C13.3641 18.0421 14.4703 16.9359 14.4703 15.5718C14.4703 14.2078 13.3641 13.1015 12 13.1015ZM12 17.2921C11.0531 17.2921 10.2797 16.5187 10.2797 15.5718C10.2797 14.625 11.0531 13.8515 12 13.8515C12.9469 13.8515 13.7203 14.625 13.7203 15.5718C13.7203 16.5187 12.9469 17.2921 12 17.2921ZM17.9766 13.3031C18.6422 13.3031 19.1813 12.764 19.1813 12.0984C19.1813 11.4328 18.6422 10.8937 17.9766 10.8937C17.3109 10.8937 16.7719 11.4328 16.7719 12.0984C16.7719 12.7593 17.3109 13.3031 17.9766 13.3031ZM17.9766 11.6437C18.225 11.6437 18.4313 11.8453 18.4313 12.0984C18.4313 12.3468 18.2297 12.5531 17.9766 12.5531C17.7234 12.5531 17.5219 12.3515 17.5219 12.0984C17.5219 11.8453 17.7281 11.6437 17.9766 11.6437Z" fill="black"/>
</g>
<defs>
<clipPath id="clip0_36_760">
<rect width="24" height="24" fill="white"/>
</clipPath>
</defs>
</svg>
