<svg width="21" height="20" viewBox="0 0 21 20" fill="none" xmlns="http://www.w3.org/2000/svg">
<path d="M10.8281 0C5.31413 0 0.828125 4.486 0.828125 10C0.828125 15.514 5.31413 20 10.8281 20C16.3421 20 20.8281 15.514 20.8281 10C20.8281 4.486 16.3421 0 10.8281 0ZM10.8281 18.8722C6.48745 18.8722 1.82812 15 1.95575 10C1.95575 5.65912 5.82812 1.12783 10.8281 1.12783C15.8281 1.12783 19.7005 5.65912 19.7005 10C19.7005 15 15.439 18.8722 10.8281 18.8722Z" fill="#3B474B"/>
<path d="M16.0392 9.69132H11.5452V4.28786C11.5452 3.83315 11.1765 3.46448 10.7218 3.46448C10.2671 3.46448 9.89844 3.83315 9.89844 4.28786V10.5147C9.89844 10.9694 10.2671 11.3381 10.7218 11.3381H16.0392C16.4939 11.3381 16.8626 10.9694 16.8626 10.5147C16.8626 10.06 16.4939 9.69132 16.0392 9.69132Z" fill="#3B474B"/>
</svg>
