<svg width="20" height="20" viewBox="0 0 20 20" fill="none" xmlns="http://www.w3.org/2000/svg">
<path d="M10 1C5.02963 1 1 5.02963 1 10C1 14.9704 5.02963 19 10 19C14.9704 19 19 14.9704 19 10C19 5.02963 14.9704 1 10 1ZM12.5852 13.5481C12.1926 14.0259 11.6815 14.3481 11.0852 14.5111C10.8259 14.5815 10.7074 14.7185 10.7222 14.9889C10.7333 15.2556 10.7222 15.5185 10.7185 15.7852C10.7185 16.0222 10.5963 16.1481 10.363 16.1556C10.2111 16.1593 10.0593 16.163 9.90741 16.163C9.77407 16.163 9.64074 16.163 9.50741 16.1593C9.25556 16.1556 9.13704 16.0111 9.13704 15.7667C9.13333 15.5741 9.13333 15.3778 9.13333 15.1852C9.12963 14.7556 9.11481 14.7407 8.7037 14.6741C8.17778 14.5889 7.65926 14.4704 7.17778 14.237C6.8 14.0519 6.75926 13.9593 6.86667 13.5593C6.94815 13.263 7.02963 12.9667 7.12222 12.6741C7.18889 12.4593 7.25185 12.363 7.36667 12.363C7.43333 12.363 7.51852 12.3963 7.63333 12.4556C8.16667 12.7333 8.73333 12.8889 9.32963 12.963C9.42963 12.9741 9.52963 12.9815 9.62963 12.9815C9.90741 12.9815 10.1778 12.9296 10.4407 12.8148C11.1037 12.5259 11.2074 11.7593 10.6481 11.3C10.4593 11.1444 10.2407 11.0296 10.0148 10.9296C9.43333 10.6741 8.82963 10.4815 8.28148 10.1519C7.39259 9.61852 6.82963 8.88889 6.8963 7.80741C6.97037 6.58519 7.66296 5.82222 8.78519 5.41481C9.24815 5.24815 9.25185 5.25185 9.25185 4.77037C9.25185 4.60741 9.24815 4.44444 9.25556 4.27778C9.26667 3.91481 9.32593 3.85185 9.68889 3.84074C9.72963 3.84074 9.77407 3.84074 9.81481 3.84074C9.88519 3.84074 9.95556 3.84074 10.0259 3.84074C10.0556 3.84074 10.0852 3.84074 10.1111 3.84074C10.8 3.84074 10.8 3.87037 10.8037 4.61481C10.8074 5.16296 10.8074 5.16296 11.3519 5.24815C11.7704 5.31481 12.1667 5.43704 12.5519 5.60741C12.763 5.7 12.8444 5.84815 12.7778 6.07407C12.6815 6.40741 12.5889 6.74444 12.4852 7.07407C12.4185 7.27407 12.3556 7.36667 12.237 7.36667C12.1704 7.36667 12.0889 7.34074 11.9852 7.28889C11.4519 7.02963 10.8926 6.9037 10.3074 6.9037C10.2333 6.9037 10.1556 6.90741 10.0815 6.91111C9.90741 6.92222 9.73704 6.94444 9.57407 7.01481C8.9963 7.26667 8.9037 7.9037 9.3963 8.2963C9.64444 8.4963 9.92963 8.63704 10.2222 8.75926C10.7333 8.97037 11.2444 9.17407 11.7296 9.44074C13.2556 10.2926 13.6704 12.2296 12.5852 13.5481Z" fill="#110C30"/>
</svg>
