<svg width="16" height="16" viewBox="0 0 16 16" fill="none" xmlns="http://www.w3.org/2000/svg">
<path d="M8 6.5C7.173 6.5 6.5 7.173 6.5 8C6.5 8.827 7.173 9.5 8 9.5C8.827 9.5 9.5 8.827 9.5 8C9.5 7.173 8.827 6.5 8 6.5ZM8 8.5C7.724 8.5 7.5 8.2755 7.5 8C7.5 7.7245 7.724 7.5 8 7.5C8.276 7.5 8.5 7.7245 8.5 8C8.5 8.2755 8.276 8.5 8 8.5Z" fill="black"/>
<path d="M8 11.5C7.173 11.5 6.5 12.173 6.5 13C6.5 13.827 7.173 14.5 8 14.5C8.827 14.5 9.5 13.827 9.5 13C9.5 12.173 8.827 11.5 8 11.5ZM8 13.5C7.724 13.5 7.5 13.2755 7.5 13C7.5 12.7245 7.724 12.5 8 12.5C8.276 12.5 8.5 12.7245 8.5 13C8.5 13.2755 8.276 13.5 8 13.5Z" fill="black"/>
<path d="M8 4.5C8.827 4.5 9.5 3.827 9.5 3C9.5 2.173 8.827 1.5 8 1.5C7.173 1.5 6.5 2.173 6.5 3C6.5 3.827 7.173 4.5 8 4.5ZM8 2.5C8.276 2.5 8.5 2.7245 8.5 3C8.5 3.2755 8.276 3.5 8 3.5C7.724 3.5 7.5 3.2755 7.5 3C7.5 2.7245 7.724 2.5 8 2.5Z" fill="black"/>
</svg>
