<svg width="33" height="30" viewBox="0 0 33 30" fill="none" xmlns="http://www.w3.org/2000/svg">
<path d="M32.0861 11.2251C31.8289 10.4431 31.155 9.87467 30.3403 9.756L22.087 8.55675L18.3991 1.10503C17.6689 -0.368343 15.2555 -0.368343 14.5253 1.10503L10.8374 8.55675L2.60372 9.756C1.7913 9.87467 1.1151 10.4451 0.860201 11.2274C0.605303 12.0073 0.817116 12.8652 1.4068 13.4396L7.37851 19.2602L5.96978 27.4723C5.83155 28.2824 6.16434 29.1034 6.8296 29.5874C7.20548 29.8595 7.65065 29.9977 8.0978 29.9977C8.44352 29.9977 8.78924 29.9155 9.10877 29.7491L16.4634 25.871L23.8415 29.7491C24.5674 30.136 25.4488 30.071 26.1167 29.5851C26.78 29.1011 27.1128 28.2824 26.9745 27.4719L25.5681 19.2598L31.5398 13.4393C32.1292 12.8672 32.339 12.0073 32.0861 11.2251Z" fill="#B7B7B7"/>
</svg>
