<svg width="60" height="60" viewBox="0 0 60 60" fill="none" xmlns="http://www.w3.org/2000/svg">
<g clip-path="url(#clip0_435_512)">
<path d="M60.0001 30C60.0001 46.569 46.569 60 30.0001 60C22.9053 60 16.3852 57.5371 11.2489 53.4181L1.50977 20.579C5.45936 8.62621 16.7227 0 30.0001 0C46.569 0 60.0001 13.4323 60.0001 30Z" fill="#B1D8FC"/>
<path d="M52.1701 34.1504C52.3722 38.25 52.302 41.4544 51.9367 43.9524C49.9068 57.7923 38.7863 49.9318 14.5238 52.4697C13.1351 52.6149 12.0911 52.9681 11.2492 53.4181C8.46933 51.1911 6.09594 48.479 4.25723 45.41C1.24151 35.9467 0.550781 24.2528 0.550781 24.2528C0.793926 22.9983 1.1157 21.7717 1.51006 20.579C5.42215 20.5971 8.26852 22.0246 11.2443 20.8548C12.8774 20.2112 14.1076 18.8637 15.4286 17.7084C18.8677 14.7012 23.8359 12.8177 28.0443 14.5959C33.4637 16.8871 34.175 22.3028 43.2524 20.4665C45.3028 20.0516 49.452 18.8746 52.2524 23.1205C55.0455 27.3556 52.0383 31.4625 52.1701 34.1504Z" fill="#527EA7"/>
<path d="M14.8754 37.3911V48.8177H10.9452V41.7133C10.9452 41.152 10.4891 40.6972 9.92782 40.6972H5.27298C4.71169 40.6972 4.25686 41.152 4.25686 41.7133V45.4101C1.55323 40.9064 0 35.6347 0 30C0 28.0343 0.18871 26.1133 0.550403 24.2528C0.954436 24.4512 1.275 24.8056 1.42621 25.252L2.60685 28.7371L4.45161 34.1806L4.66815 34.8193C4.85323 35.3685 5.34919 35.7496 5.92016 35.7931C5.95645 35.7968 5.99395 35.798 6.03145 35.798H13.281C13.5786 35.798 13.8569 35.879 14.0952 36.0218C14.5621 36.2988 14.8754 36.8081 14.8754 37.3911Z" fill="#FDAD9B"/>
<path d="M49.3383 26.7206L49.1774 27.1876C47.2056 32.8876 46.1992 38.8767 46.1992 44.9081V48.8178H42.2689V41.7134C42.2689 41.1521 41.8141 40.6972 41.2516 40.6972H36.5968C36.0355 40.6972 35.5806 41.1521 35.5806 41.7134V48.8178H31.6504V37.3912C31.6504 36.5105 32.3641 35.798 33.2447 35.798H40.4943C41.1113 35.798 41.6593 35.4037 41.8576 34.8194L45.0984 25.2521C45.3379 24.5468 45.9996 24.0726 46.7435 24.0726H47.4512C48.3609 24.0726 49.0903 24.6654 49.348 25.4432C49.4798 25.8388 49.4895 26.2827 49.3383 26.7206Z" fill="#FDAD9B"/>
<path d="M21.8242 26.0662H24.8811V46.5351H21.8242V26.0662Z" fill="#CDD9F8"/>
<path d="M27.8077 47.9032V48.8177H18.8984V47.9032C18.8984 46.8544 19.675 45.987 20.6839 45.8455C20.7795 45.831 20.8775 45.8237 20.9779 45.8237H25.7283C26.621 45.8237 27.3819 46.3862 27.6759 47.1761C27.7617 47.4024 27.8077 47.6467 27.8077 47.9032Z" fill="#525E77"/>
<path d="M36.8024 26.2693V27.756C36.8024 28.2786 36.379 28.702 35.8564 28.702H10.8464C10.3238 28.702 9.90039 28.2786 9.90039 27.756V26.2693C9.90039 25.7468 10.3238 25.3234 10.8464 25.3234H35.8564C36.379 25.3234 36.8024 25.7468 36.8024 26.2693Z" fill="#D1623E"/>
<path d="M30.1679 25.3233H21.7715L24.913 21.3883L25.4187 20.7556C25.7005 20.4012 26.2376 20.4012 26.5195 20.7544L29.1445 24.0411L30.1679 25.3233Z" fill="#DDCCCA"/>
<path d="M26.5745 25.3234H16.4531L18.9959 22.1384L21.143 19.4505C21.333 19.2122 21.6959 19.2122 21.8858 19.4505L25.3213 23.7545L26.5745 25.3234Z" fill="#E6DDDB"/>
<path d="M14.8749 37.3911V47.1205C14.3814 47.0806 13.9289 46.8121 13.6047 46.2423C12.4918 44.2826 13.5963 41.1314 11.564 39.7512C10.1753 38.8076 8.57491 39.6157 3.68781 38.6467C2.13096 38.3383 1.75354 37.8121 1.71967 36.3375C1.65918 33.733 2.00757 31.2266 2.60636 28.7371L4.66765 34.8193C4.86483 35.4036 5.41402 35.7979 6.03096 35.7979H13.2806C14.1612 35.7979 14.8749 36.5104 14.8749 37.3911Z" fill="#FBCBBC"/>
<path d="M16.1461 35.5137V36.0811C16.1461 36.825 15.5424 37.4286 14.7985 37.4286H4.64325C3.89929 37.4286 3.29688 36.825 3.29688 36.0811V35.5137C3.29688 34.7698 3.89929 34.1661 4.64325 34.1661H14.7985C15.5424 34.1661 16.1461 34.7698 16.1461 35.5137Z" fill="#FA3377"/>
<path d="M16.147 35.5137V35.6528C14.0772 36.2903 7.49053 36.4524 6.64376 36.2202C5.71473 35.9661 5.35666 35.0879 5.59134 34.1661H14.7994C15.5434 34.1661 16.147 34.7698 16.147 35.5137Z" fill="#FA6695"/>
<path d="M27.6755 47.1761C27.5195 47.256 27.3538 47.3153 27.188 47.3491C26.3473 47.5209 25.6409 47.2536 24.09 47.5052C22.7715 47.7193 20.934 48.0713 20.6896 45.9072C20.6872 45.8866 20.6848 45.8661 20.6836 45.8455C20.7792 45.831 20.8771 45.8237 20.9775 45.8237H25.7279C26.6207 45.8237 27.3816 46.3862 27.6755 47.1761Z" fill="#5D6A85"/>
<path d="M49.348 25.4432C47.0822 27.3436 46.5149 30.698 44.9629 36.7416C43.8222 41.1835 40.5258 37.0162 36.2012 38.9795C32.6048 40.6126 33.4697 43.875 33.2169 45.3545C33.073 46.2025 32.3992 47.0988 31.6504 47.5573V37.3912C31.6504 36.5105 32.3641 35.798 33.2447 35.798H40.4943C41.1113 35.798 41.6593 35.4037 41.8576 34.8194L45.0984 25.2521C45.3379 24.5468 45.9996 24.0726 46.7435 24.0726H47.4512C48.3609 24.0726 49.0903 24.6654 49.348 25.4432Z" fill="#FBCBBC"/>
<path d="M43.2281 35.5137V36.0811C43.2281 36.825 42.6257 37.4286 41.8817 37.4286H31.7253C30.9813 37.4286 30.3789 36.825 30.3789 36.0811V35.5137C30.3789 34.7698 30.9813 34.1661 31.7253 34.1661H41.8817C42.6257 34.1661 43.2281 34.7698 43.2281 35.5137Z" fill="#FA3377"/>
<path d="M43.2275 35.5137V35.6528C40.9025 35.9589 33.6311 36.525 32.6513 34.973C32.4892 34.7153 32.3912 34.4432 32.3477 34.1661H41.8811C42.6251 34.1661 43.2275 34.7698 43.2275 35.5137Z" fill="#FA6695"/>
<path d="M24.8812 30.577V43.9524H24.8618C24.1517 43.9524 23.3449 43.6815 23.0969 43.0173C23.0013 42.7573 23.005 42.473 23.0098 42.1972C23.207 32.1472 23.4876 31.6307 24.0985 31.0367C24.3695 30.7718 24.6332 30.6278 24.8812 30.577Z" fill="#E0E7F9"/>
<path d="M36.8041 26.2693V27.3943C34.1186 27.6665 29.9863 27.2891 29.6488 27.1851C29.2182 27.0544 20.8424 25.8665 15.2041 27.0121C12.1884 27.6254 11.5545 26.5016 11.6174 25.3234H35.8581C36.3807 25.3234 36.8041 25.7468 36.8041 26.2693Z" fill="#E87247"/>
<path d="M25.3215 23.7545C25.3082 23.7557 25.2937 23.7557 25.2792 23.7569C21.4469 23.9819 20.265 23.7702 18.9961 22.1384L21.1433 19.4505C21.3332 19.2122 21.6961 19.2122 21.886 19.4505L25.3215 23.7545Z" fill="#F3F1F1"/>
<path d="M29.1455 24.0411C28.8903 24.1282 28.5794 24.1778 28.2104 24.1802C27.406 24.185 27.0673 23.8838 26.5314 23.2899C26.05 22.7552 25.3254 22.0911 24.9141 21.3883L25.4197 20.7556C25.7016 20.4012 26.2387 20.4012 26.5205 20.7544L29.1455 24.0411Z" fill="#E6DDDB"/>
</g>
<defs>
<clipPath id="clip0_435_512">
<rect width="60" height="60" fill="white"/>
</clipPath>
</defs>
</svg>
