<svg width="184" height="40" viewBox="0 0 184 40" fill="none" xmlns="http://www.w3.org/2000/svg">
<g clip-path="url(#clip0_63_1932)">
<path d="M16.7272 40C25.9657 40 33.4545 31.046 33.4545 20V6C33.4545 4.4087 32.9258 2.88258 31.9847 1.75736C31.0436 0.632141 29.7672 0 28.4363 0L17.5636 0V8.774C17.5636 10.776 17.6656 12.85 18.5438 14.554C19.1725 15.7752 20.0135 16.8204 21.0098 17.6188C22.0061 18.4171 23.1344 18.9499 24.3181 19.181L24.6384 19.243C24.7704 19.297 24.8851 19.399 24.9663 19.5347C25.0474 19.6704 25.0911 19.8331 25.0911 20C25.0911 20.1669 25.0474 20.3296 24.9663 20.4653C24.8851 20.601 24.7704 20.703 24.6384 20.757L24.3181 20.819C22.5886 21.1568 20.9916 22.1356 19.7524 23.6171C18.5133 25.0987 17.6947 27.0082 17.4122 29.076L17.3603 29.459C17.3152 29.6169 17.2299 29.754 17.1164 29.851C17.0028 29.9481 16.8668 30.0003 16.7272 30.0003C16.5877 30.0003 16.4516 29.9481 16.3381 29.851C16.2245 29.754 16.1392 29.6169 16.0941 29.459L16.0422 29.076C15.8489 27.6607 15.4033 26.3118 14.7356 25.1205C14.0679 23.9293 13.1937 22.9237 12.1724 22.172C10.7472 21.122 9.0126 21 7.3382 21H0.0200195C0.457438 31.581 7.76977 40 16.7272 40Z" fill="#616161"/>
<path d="M0 19H7.33825C9.01265 19 10.7473 18.878 12.1724 17.828C13.2865 17.0073 14.2243 15.886 14.9107 14.554C15.7889 12.85 15.8909 10.776 15.8909 8.774V0H5.01818C3.68728 0 2.41088 0.632141 1.46979 1.75736C0.5287 2.88258 0 4.4087 0 6L0 19ZM38.8533 2C38.8533 2.53043 38.677 3.03914 38.3633 3.41421C38.0496 3.78929 37.6242 4 37.1805 4C36.7369 4 36.3114 3.78929 35.9977 3.41421C35.6841 3.03914 35.5078 2.53043 35.5078 2C35.5078 1.46957 35.6841 0.960859 35.9977 0.585786C36.3114 0.210714 36.7369 0 37.1805 0C37.6242 0 38.0496 0.210714 38.3633 0.585786C38.677 0.960859 38.8533 1.46957 38.8533 2ZM177.067 12.104C181.743 12.104 184 16.009 184 20.532V29.027H179.106V21.54C179.106 19.49 178.481 17.798 176.687 17.798C174.893 17.798 174.295 19.49 174.295 21.54V29.026H169.401V21.54C169.401 19.49 168.803 17.798 167.008 17.798C165.214 17.798 164.589 19.49 164.589 21.54V29.026H159.696V20.531C159.696 16.008 161.952 12.103 166.628 12.103C169.184 12.103 171.032 13.307 171.875 15.292C172.772 13.307 174.73 12.102 177.067 12.102V12.104ZM150.903 23.82C152.479 23.82 153.159 22.095 153.159 20.044V12.754H158.052V20.76C158.052 25.544 155.714 29.515 150.903 29.515C146.09 29.515 143.753 25.545 143.753 20.76V12.754H148.646V20.044C148.646 22.094 149.325 23.82 150.903 23.82ZM136.557 29.547C133.485 29.547 131.501 28.278 130.331 25.805L133.866 23.429C134.355 24.47 135.089 24.991 136.312 24.991C137.318 24.991 137.78 24.568 137.78 24.047C137.78 22.062 130.603 24.08 130.603 17.767C130.603 14.707 132.778 12.234 136.475 12.234C139.71 12.234 141.478 14.121 142.266 15.944L138.732 18.352C138.433 17.376 137.508 16.79 136.584 16.79C135.877 16.79 135.497 17.148 135.497 17.636C135.497 19.654 142.674 17.799 142.674 23.917C142.674 27.334 139.873 29.547 136.557 29.547ZM119.46 36.512H114.567V20.858C114.567 15.878 117.693 12.266 122.043 12.266C126.284 12.266 129.519 16.139 129.519 20.858C129.519 26.065 126.637 29.515 122.315 29.515C121.309 29.515 120.303 29.157 119.46 28.603V36.512ZM122.043 24.015C123.593 24.015 124.626 22.583 124.626 20.89C124.626 19.166 123.593 17.766 122.043 17.766C120.493 17.766 119.46 19.166 119.46 20.891C119.46 22.583 120.493 24.015 122.043 24.015ZM109.665 11.03C108.061 11.03 106.729 9.435 106.729 7.515C106.729 5.595 108.061 4 109.665 4C111.269 4 112.601 5.595 112.601 7.515C112.601 9.435 111.269 11.03 109.665 11.03ZM107.218 12.754H112.112V29.027H107.218V12.754ZM97.8295 29.515C93.5882 29.515 90.3532 25.61 90.3532 20.858C90.3532 16.139 93.5882 12.234 97.8295 12.234C102.071 12.234 105.306 16.139 105.306 20.858C105.306 25.61 102.071 29.515 97.8295 29.515ZM97.8295 24.015C99.3792 24.015 100.412 22.583 100.412 20.89C100.412 19.166 99.3792 17.734 97.8295 17.734C96.2797 17.734 95.2468 19.166 95.2468 20.89C95.2468 22.583 96.2797 24.015 97.8295 24.015ZM81.1131 37C77.7425 37 75.2953 35.21 74.0449 32.02L78.0955 29.417C78.5304 30.524 79.3458 31.663 81.0311 31.663C82.7992 31.663 83.9676 30.328 84.1039 27.985C83.4515 28.669 82.4178 29.189 80.8688 29.189C77.0893 29.189 74.0441 25.707 74.0441 20.825C74.0441 16.107 77.28 12.266 81.5212 12.266C85.8711 12.266 88.9975 15.879 88.9975 20.858V27.302C88.9975 33.16 85.5985 37 81.1131 37ZM81.4392 23.69C82.9071 23.69 84.0219 22.485 84.0219 20.695C84.0219 18.938 82.9079 17.766 81.4392 17.766C79.9982 17.766 78.8565 18.938 78.8565 20.696C78.8565 22.486 79.9982 23.689 81.4392 23.689V23.69ZM65.744 29.515C61.5028 29.515 58.2669 25.61 58.2669 20.858C58.2669 16.139 61.5028 12.234 65.744 12.234C69.9844 12.234 73.2203 16.139 73.2203 20.858C73.2203 25.61 69.9852 29.515 65.744 29.515ZM65.744 24.015C67.2938 24.015 68.3267 22.583 68.3267 20.89C68.3267 19.166 67.2938 17.734 65.744 17.734C64.1943 17.734 63.1613 19.166 63.1613 20.89C63.1613 22.583 64.1943 24.015 65.744 24.015ZM49.3563 7.06V23.494H57.4582V29.027H48.6764C45.5776 29.027 44.3273 27.074 44.3273 23.982V7.06H49.3563Z" fill="#616161"/>
</g>
<defs>
<clipPath id="clip0_63_1932">
<rect width="184" height="40" fill="white"/>
</clipPath>
</defs>
</svg>
