<svg width="177" height="40" viewBox="0 0 177 40" fill="none" xmlns="http://www.w3.org/2000/svg">
<g clip-path="url(#clip0_63_1974)">
<path fill-rule="evenodd" clip-rule="evenodd" d="M35.4876 7.33181C36.6931 8.76527 37.6862 10.3647 38.4365 12.0809C39.5295 14.5831 40.0917 17.2849 40.0879 20.0156C40.084 25.3095 37.9819 30.3858 34.2424 34.132C30.5028 37.8781 25.431 39.9883 20.1387 40C17.5748 39.9985 15.0356 39.4977 12.6633 38.5251C10.9711 37.8526 9.38264 36.9439 7.94506 35.8261C5.70462 34.1183 3.85117 31.9551 2.50672 29.4789C1.16226 27.0029 0.357291 24.2702 0.14475 21.4604C-0.0677757 18.6508 0.31698 15.8279 1.27367 13.1777C2.23036 10.5275 3.73732 8.10994 5.69534 6.08426C7.65336 4.05857 10.0181 2.47063 12.6338 1.42497C15.2496 0.379292 18.0571 -0.100392 20.8715 0.0174645C23.6859 0.135321 26.4435 0.848048 28.9628 2.10873C31.482 3.36943 33.7057 5.14951 35.4876 7.33181ZM26.7884 5.54721C24.701 4.57548 22.4264 4.07211 20.1239 4.07235L20.1387 4.04285C17.4525 4.04086 14.8095 4.7186 12.4555 6.01304C10.1015 7.30749 8.11319 9.17655 6.67552 11.4462C5.23784 13.716 4.39754 16.3127 4.23282 18.9946C4.06809 21.6765 4.58429 24.3566 5.7334 26.7852C6.39939 26.0854 6.8098 25.1812 6.89821 24.219C7.15932 22.4146 7.99678 20.7432 9.28558 19.454C10.5744 18.1648 12.2454 17.3271 14.0492 17.0659C15.0632 16.9739 16.0144 16.5349 16.7423 15.8229C17.4702 15.1108 17.9304 14.1694 18.045 13.1575C18.3061 11.3532 19.1436 9.68165 20.4324 8.39248C21.7212 7.10331 23.3922 6.26561 25.196 6.00443C25.7442 5.92088 26.2794 5.76721 26.7884 5.54721ZM8.10725 30.1807C8.04827 30.2331 7.9893 30.2856 7.93032 30.3397C9.07314 31.6776 10.428 32.8186 11.9408 33.7171C12.3364 33.1094 12.5839 32.4173 12.6633 31.6965C12.9335 29.8885 13.7797 28.216 15.0759 26.9273C16.3722 25.6387 18.0494 24.8026 19.8585 24.5434C20.874 24.4433 21.8235 23.9951 22.5464 23.2746C23.2692 22.5543 23.7208 21.6061 23.8248 20.5908C24.0813 18.7846 24.9173 17.1106 26.2069 15.8205C27.4966 14.5306 29.1701 13.6944 30.9758 13.4377C31.9929 13.3416 32.9408 12.8805 33.6446 12.1399C33.7159 12.0784 33.7802 12.009 33.8362 11.9334C32.924 10.3743 31.7465 8.9867 30.3566 7.83326C29.1359 8.97732 27.5904 9.71424 25.9332 9.9423C24.9157 10.0118 23.9576 10.4465 23.235 11.1664C22.4732 11.9139 22.0161 12.9178 21.9522 13.9834C21.6911 15.7878 20.8536 17.4592 19.5648 18.7484C18.276 20.0376 16.605 20.8753 14.8012 21.1365C13.7868 21.2195 12.8377 21.6707 12.1325 22.4049C11.3997 23.1187 10.9449 24.0703 10.8497 25.0891C10.6148 26.9016 9.77285 28.5809 8.46112 29.853C8.34316 29.9709 8.22521 30.0758 8.10725 30.1807ZM15.7006 35.4132C17.1388 35.8257 18.6278 36.0342 20.1239 36.0326V35.9589C22.5606 35.9494 24.9626 35.3818 27.1458 34.2995C29.3292 33.2173 31.2355 31.649 32.7188 29.7155C34.202 27.7818 35.2229 25.5338 35.7029 23.1442C36.1828 20.7547 36.1092 18.2869 35.4876 15.9303C34.3682 16.722 33.0725 17.2283 31.713 17.4051C30.7002 17.5085 29.7541 17.9582 29.0343 18.6782C28.3145 19.3982 27.8649 20.3447 27.7615 21.3577C27.4997 23.1642 26.66 24.8374 25.3684 26.1267C24.0766 27.4162 22.4022 28.2526 20.5958 28.5108C19.583 28.6142 18.6368 29.0639 17.917 29.7839C17.1972 30.504 16.7476 31.4504 16.6443 32.4635C16.5124 33.496 16.1926 34.4958 15.7006 35.4132ZM55.2107 11.8662H50.7546V29.6178H55.2107V11.8662ZM63.9299 15.9053C59.7114 15.9053 56.9783 18.5249 56.9783 22.9152C56.9783 27.3787 59.652 29.9397 63.9299 29.9397C68.2078 29.9397 70.8815 27.3056 70.8815 22.9152C70.8815 18.5249 68.1484 15.9053 63.9299 15.9053ZM63.9299 19.081C65.445 19.081 66.4105 20.5006 66.4105 22.9152V22.9299C66.4105 25.3738 65.4599 26.7202 63.9299 26.7202C62.4 26.7202 61.4642 25.286 61.4642 22.9152C61.4642 20.5445 62.4148 19.081 63.9299 19.081ZM76.8379 30.4812H72.56V30.4959C72.8125 32.9252 75.2634 34.6667 79.1996 34.6667C83.433 34.6667 86.2998 32.6764 86.2998 29.4714V16.1541H81.8436V18.5981C81.5082 17.8083 80.9358 17.1383 80.203 16.6779C79.4703 16.2176 78.6123 15.9889 77.744 16.0224C74.3276 16.0224 72.2778 18.6712 72.2778 22.8713C72.2778 27.0714 74.4316 29.5154 77.6846 29.5154C78.5265 29.5604 79.3629 29.3558 80.0857 28.9281C80.8085 28.5002 81.3846 27.8688 81.7397 27.1153H81.8288V29.5739C81.8288 30.891 80.9375 31.7983 79.2442 31.7983C78.7527 31.8634 78.2529 31.7704 77.8193 31.5331C77.3857 31.2958 77.0415 30.9268 76.8379 30.4812ZM79.2739 19.4176C80.8484 19.4176 81.8436 20.764 81.8436 22.9006V22.9152C81.8436 25.0811 80.8633 26.2665 79.2739 26.2665C77.6846 26.2665 76.7339 25.0519 76.7339 22.9006C76.7339 20.7493 77.6994 19.4176 79.2739 19.4176ZM94.9299 15.8907C90.7114 15.8907 87.9783 18.5103 87.9783 22.9006V22.9152C87.9783 27.3787 90.6371 29.9251 94.9299 29.9251C99.2226 29.9251 101.896 27.2909 101.896 22.9006C101.896 18.5103 99.1483 15.8907 94.9299 15.8907ZM94.9299 19.0664C96.4449 19.0664 97.4104 20.4859 97.4104 22.9006V22.9299C97.4104 25.3738 96.5044 26.7348 94.9893 26.7348C93.4742 26.7348 92.5384 25.3153 92.5384 22.9299C92.5384 20.5445 93.4148 19.0664 94.9299 19.0664ZM103.941 11.7091C103.7 12.0839 103.578 12.5205 103.59 12.9638V12.9931C103.587 13.2877 103.646 13.5796 103.763 13.8505C103.88 14.1216 104.053 14.3658 104.271 14.5678C104.489 14.7699 104.746 14.9253 105.028 15.0245C105.309 15.1237 105.609 15.1645 105.907 15.1444C106.357 15.1356 106.794 14.9952 107.163 14.7413C107.532 14.4874 107.816 14.1312 107.979 13.7181C108.143 13.3048 108.178 12.8532 108.08 12.4203C107.983 11.9874 107.757 11.5928 107.431 11.2866C107.106 10.9803 106.695 10.7761 106.252 10.7C105.809 10.6238 105.352 10.679 104.941 10.8587C104.529 11.0383 104.181 11.3343 103.941 11.7091ZM108.046 16.1834H103.59V29.6178H108.046V16.1834ZM118.859 29.7934C122.246 29.7934 124.222 27.2909 124.222 22.9006L124.281 22.9299C124.281 18.5395 122.246 16.0224 118.83 15.9639C117.955 15.9254 117.089 16.1534 116.35 16.6169C115.611 17.0803 115.035 17.7567 114.7 18.5542H114.611V16.1541H110.155V33.9203H114.611V27.3056H114.7C115.051 28.09 115.639 28.7492 116.382 29.1943C117.126 29.6392 117.991 29.8483 118.859 29.7934ZM117.211 19.403C118.77 19.403 119.765 20.764 119.765 22.9006V22.9299C119.765 25.0519 118.77 26.3836 117.211 26.3836C115.651 26.3836 114.626 25.0226 114.641 22.9006C114.656 20.7786 115.651 19.403 117.211 19.403ZM137.917 20.3688C137.813 17.6029 135.57 15.8761 131.871 15.8761V15.9053C128.188 15.9053 125.796 17.6176 125.766 20.2518C125.766 22.3006 127.163 23.6909 129.822 24.2323L132.391 24.7738C133.461 24.9933 133.877 25.1397 133.877 25.8421C133.877 26.5446 133.282 26.969 131.975 26.969C130.668 26.969 129.866 26.3836 129.732 25.3884H125.44C125.633 28.1251 128.113 29.9105 131.901 29.9105C135.689 29.9105 138.258 28.1251 138.258 25.3445C138.258 23.3104 137.1 22.2274 134.382 21.6567L131.53 21.0859C130.534 20.881 130.044 20.6615 130.044 19.9737C130.044 19.2859 130.594 18.8176 131.827 18.8176C133.06 18.8176 133.862 19.4176 133.862 20.3688H137.917ZM148.834 29.5885H153.127L153.187 16.1541H148.73V23.7348C148.774 24.0512 148.745 24.3728 148.652 24.6782C148.558 24.9835 148.398 25.2655 148.185 25.5054C147.971 25.7451 147.707 25.9371 147.413 26.0684C147.117 26.1996 146.796 26.2671 146.473 26.2665C145.091 26.2665 144.259 25.4177 144.259 23.8226V16.1541H139.803V24.8323C139.747 25.4981 139.836 26.168 140.065 26.7969C140.294 27.4257 140.658 27.9989 141.131 28.4775C141.604 28.9562 142.176 29.3291 142.808 29.5713C143.44 29.8135 144.117 29.9191 144.794 29.8812C145.678 29.9295 146.551 29.6785 147.27 29.1701C147.989 28.6616 148.509 27.9262 148.745 27.086H148.834V29.5885ZM159.589 16.1541H155.281L155.207 29.6178H159.663V21.7006C159.629 21.4253 159.655 21.1462 159.739 20.8816C159.823 20.6169 159.963 20.3728 160.15 20.1654C160.336 19.9581 160.566 19.792 160.823 19.6781C161.078 19.5644 161.358 19.5056 161.638 19.5054C162.856 19.5054 163.525 20.2371 163.525 21.5835V29.6178H167.758V21.6713C167.723 21.3995 167.745 21.1232 167.827 20.861C167.908 20.5989 168.046 20.3571 168.231 20.1518C168.415 19.9465 168.642 19.7826 168.896 19.6711C169.15 19.5596 169.426 19.5031 169.704 19.5054C170.952 19.5054 171.62 20.1786 171.62 21.642V29.6178H176.076V20.4713C176.121 19.8755 176.036 19.2771 175.831 18.7153C175.625 18.1535 175.301 17.6405 174.881 17.2099C174.46 16.7793 173.954 16.4405 173.391 16.2159C172.829 15.9911 172.226 15.8853 171.62 15.9053C170.692 15.866 169.775 16.1323 169.018 16.6622C168.259 17.1921 167.7 17.9555 167.431 18.8322H167.342C167.2 17.9647 166.73 17.182 166.029 16.6397C165.327 16.0973 164.444 15.8352 163.555 15.9053C162.681 15.8894 161.826 16.1595 161.124 16.6732C160.423 17.1869 159.914 17.9154 159.678 18.7444H159.589V16.1541Z" fill="#616161"/>
</g>
<defs>
<clipPath id="clip0_63_1974">
<rect width="176" height="40" fill="white" transform="translate(0.0878906)"/>
</clipPath>
</defs>
</svg>
