<svg width="206" height="40" viewBox="0 0 206 40" fill="none" xmlns="http://www.w3.org/2000/svg">
<path fill-rule="evenodd" clip-rule="evenodd" d="M20.313 10C22.3218 10 24.2854 10.5865 25.9556 11.6853C27.6259 12.7841 28.9276 14.3459 29.6964 16.1732C30.4651 18.0004 30.6662 20.0111 30.2743 21.9509C29.8825 23.8907 28.9151 25.6725 27.4948 27.0711C26.0743 28.4696 24.2646 29.422 22.2944 29.8078C20.3243 30.1937 18.2821 29.9957 16.4263 29.2388C14.5704 28.4819 12.9842 27.2002 11.8682 25.5557C10.7522 23.9112 10.1565 21.9778 10.1565 20H0.0125467C2.67582 19.9984 5.31282 19.4811 7.77345 18.4776C10.2379 17.4725 12.4773 15.9993 14.3634 14.1421C16.2497 12.285 17.7459 10.0802 18.7668 7.65367C19.7876 5.22715 20.313 2.62643 20.313 0L10.1565 5.28493e-06C10.1565 1.31322 9.8938 2.61358 9.38338 3.82684C8.87297 5.04009 8.12485 6.14248 7.18173 7.07107C6.23861 7.99966 5.11897 8.73625 3.88672 9.2388C2.65448 9.74134 1.33377 10 0 10V20C0 23.9556 1.19134 27.8224 3.42336 31.1114C5.65537 34.4004 8.82783 36.9638 12.5395 38.4776C16.2512 39.9913 20.3355 40.3874 24.2759 39.6157C28.2162 38.844 31.8357 36.9392 34.6764 34.1421C37.5173 31.3451 39.4519 27.7814 40.2357 23.9018C41.0195 20.0222 40.6172 16.0008 39.0798 12.3463C37.5423 8.69181 34.9388 5.56823 31.5983 3.37061C28.2578 1.17298 24.3305 0 20.313 0V10ZM127.585 14.4525H122.657V29.8648H127.585V14.4525ZM125.137 12.3277C124.364 12.3277 123.721 12.074 123.206 11.5666C122.711 11.0381 122.464 10.4038 122.464 9.66385C122.464 8.90277 122.711 8.26849 123.206 7.76111C123.721 7.25369 124.364 7 125.137 7C125.91 7 126.544 7.25369 127.038 7.76111C127.532 8.26849 127.779 8.90277 127.779 9.66385C127.779 10.4038 127.532 11.0381 127.038 11.5666C126.544 12.074 125.91 12.3277 125.137 12.3277ZM51.957 29.8647V7.47559H57.0139V25.4884H67.0953V29.8647H51.957ZM71.8212 29.167C73.1311 29.8647 74.5912 30.2135 76.2016 30.2135C77.8336 30.2135 79.2937 29.8647 80.582 29.167C81.8704 28.4482 82.8904 27.4757 83.6419 26.2494C84.3935 25.0232 84.7692 23.649 84.7692 22.1268C84.7692 20.6046 84.3935 19.241 83.6419 18.0359C82.8904 16.8097 81.8704 15.8477 80.582 15.15C79.2937 14.4524 77.8336 14.1035 76.2016 14.1035C74.5698 14.1035 73.1096 14.4629 71.8212 15.1818C70.5329 15.8794 69.513 16.8308 68.7614 18.0359C68.0099 19.241 67.6341 20.6046 67.6341 22.1268C67.6341 23.649 68.0099 25.0232 68.7614 26.2494C69.513 27.4757 70.5329 28.4482 71.8212 29.167ZM78.0698 25.3615C77.5329 25.6575 76.9102 25.8055 76.2016 25.8055C75.5145 25.8055 74.9026 25.6575 74.3657 25.3615C73.829 25.0444 73.4102 24.611 73.1096 24.0613C72.809 23.4905 72.6587 22.8562 72.6587 22.1585C72.6587 21.4397 72.809 20.8055 73.1096 20.2558C73.4102 19.7061 73.829 19.2833 74.3657 18.9873C74.9026 18.6701 75.5145 18.5116 76.2016 18.5116C76.9102 18.5116 77.5222 18.6701 78.0375 18.9873C78.5744 19.2833 78.993 19.7061 79.2937 20.2558C79.5943 20.7843 79.7446 21.408 79.7446 22.1268C79.7446 22.8456 79.5943 23.4905 79.2937 24.0613C79.0146 24.611 78.6066 25.0444 78.0698 25.3615ZM88.6718 35.8903C89.9816 36.4822 91.4954 36.7782 93.2132 36.7782C94.8881 36.7782 96.3805 36.4505 97.6902 35.7951C99.0001 35.1397 100.031 34.2307 100.782 33.0679C101.534 31.9051 101.91 30.5309 101.91 28.9452V14.4526H97.0782V15.4881C96.7189 15.1903 96.3108 14.9403 95.8543 14.738C95.0168 14.3363 94.0613 14.1354 92.9878 14.1354C91.5491 14.1354 90.2714 14.4737 89.1549 15.1502C88.0382 15.8056 87.1579 16.7147 86.5137 17.8775C85.8695 19.0192 85.5475 20.3088 85.5475 21.7465C85.5475 23.163 85.8695 24.4526 86.5137 25.6154C87.1579 26.7782 88.0382 27.6979 89.1549 28.3744C90.2714 29.0509 91.5491 29.3892 92.9878 29.3892C94.0399 29.3892 94.9954 29.1884 95.8543 28.7867C96.2704 28.5921 96.6462 28.3628 96.9816 28.0987V29.0721C96.9816 30.1503 96.6274 30.9854 95.9187 31.5774C95.2317 32.1694 94.2761 32.4653 93.0522 32.4653C92.0645 32.4653 91.2163 32.2962 90.5077 31.9579C89.8206 31.6197 89.1978 31.1228 88.6395 30.4674L85.6119 33.4484C86.3634 34.5055 87.3834 35.3195 88.6718 35.8903ZM95.6933 24.6323C95.1994 24.9283 94.609 25.0763 93.9218 25.0763C93.2347 25.0763 92.6334 24.9283 92.1181 24.6323C91.6242 24.3363 91.2377 23.9346 90.9586 23.4272C90.6794 22.8987 90.5399 22.3384 90.5399 21.7465C90.5399 21.1122 90.6794 20.5414 90.9586 20.034C91.2377 19.5266 91.6349 19.1249 92.1503 18.8289C92.6656 18.5329 93.2561 18.3849 93.9218 18.3849C94.609 18.3849 95.1994 18.5329 95.6933 18.8289C96.2086 19.1249 96.5951 19.5266 96.8528 20.034C97.1319 20.5414 97.2715 21.1122 97.2715 21.7465C97.2715 22.3807 97.1319 22.9515 96.8528 23.4589C96.5951 23.9452 96.2086 24.3363 95.6933 24.6323ZM107.9 29.167C109.21 29.8647 110.67 30.2135 112.281 30.2135C113.912 30.2135 115.373 29.8647 116.66 29.167C117.949 28.4482 118.969 27.4757 119.721 26.2494C120.472 25.0232 120.848 23.649 120.848 22.1268C120.848 20.6046 120.472 19.241 119.721 18.0359C118.969 16.8097 117.949 15.8477 116.66 15.15C115.373 14.4524 113.912 14.1035 112.281 14.1035C110.649 14.1035 109.188 14.4629 107.9 15.1818C106.612 15.8794 105.592 16.8308 104.84 18.0359C104.089 19.241 103.713 20.6046 103.713 22.1268C103.713 23.649 104.089 25.0232 104.84 26.2494C105.592 27.4757 106.612 28.4482 107.9 29.167ZM114.149 25.3615C113.611 25.6575 112.989 25.8055 112.281 25.8055C111.593 25.8055 110.981 25.6575 110.445 25.3615C109.907 25.0444 109.489 24.611 109.188 24.0613C108.888 23.4905 108.737 22.8562 108.737 22.1585C108.737 21.4397 108.888 20.8055 109.188 20.2558C109.489 19.7061 109.907 19.2833 110.445 18.9873C110.981 18.6701 111.593 18.5116 112.281 18.5116C112.989 18.5116 113.601 18.6701 114.116 18.9873C114.653 19.2833 115.072 19.7061 115.373 20.2558C115.673 20.7843 115.824 21.408 115.824 22.1268C115.824 22.8456 115.673 23.4905 115.373 24.0613C115.093 24.611 114.685 25.0444 114.149 25.3615ZM139.429 30.182C138.378 30.182 137.411 29.9812 136.531 29.5795C136.068 29.3681 135.649 29.1157 135.275 28.8223V36.366H130.411V14.4526H135.339V15.5163C135.697 15.2284 136.094 14.9795 136.531 14.7697C137.411 14.3468 138.378 14.1354 139.429 14.1354C140.911 14.1354 142.221 14.4843 143.359 15.182C144.519 15.8796 145.421 16.831 146.065 18.0361C146.731 19.2412 147.063 20.6154 147.063 22.1587C147.063 23.7021 146.731 25.0763 146.065 26.2814C145.421 27.4865 144.519 28.4378 143.359 29.1355C142.221 29.8332 140.911 30.182 139.429 30.182ZM138.529 25.8057C139.236 25.8057 139.849 25.6471 140.364 25.33C140.901 25.0129 141.32 24.5794 141.62 24.0298C141.921 23.4801 142.071 22.8564 142.071 22.1587C142.071 21.4399 141.921 20.8057 141.62 20.256C141.32 19.7063 140.901 19.2835 140.364 18.9875C139.849 18.6703 139.248 18.5118 138.56 18.5118C137.873 18.5118 137.261 18.6703 136.725 18.9875C136.209 19.2835 135.802 19.7063 135.501 20.256C135.2 20.8057 135.05 21.4399 135.05 22.1587C135.05 22.8564 135.189 23.4801 135.468 24.0298C135.769 24.5794 136.187 25.0129 136.725 25.33C137.261 25.6471 137.862 25.8057 138.529 25.8057ZM154.623 30.2453C153.7 30.2453 152.788 30.1291 151.886 29.8965C151.006 29.6639 150.179 29.3362 149.406 28.9134C148.655 28.4695 148.011 27.962 147.473 27.3912L150.275 24.6005C150.79 25.1502 151.403 25.5836 152.112 25.9007C152.82 26.1967 153.593 26.3447 154.431 26.3447C155.01 26.3447 155.45 26.2601 155.751 26.091C156.073 25.9218 156.234 25.6893 156.234 25.3933C156.234 25.0128 156.041 24.7274 155.654 24.5371C155.29 24.3257 154.816 24.146 154.238 23.998C153.658 23.8288 153.045 23.6491 152.401 23.4588C151.757 23.2686 151.145 23.0043 150.565 22.666C149.986 22.3278 149.513 21.8626 149.148 21.2707C148.784 20.6576 148.601 19.8859 148.601 18.9557C148.601 17.962 148.859 17.1057 149.374 16.3869C149.889 15.647 150.619 15.0656 151.564 14.6427C152.509 14.2199 153.615 14.0085 154.881 14.0085C156.213 14.0085 157.437 14.2411 158.553 14.7062C159.692 15.1501 160.615 15.8161 161.323 16.7041L158.521 19.4948C158.027 18.924 157.468 18.5222 156.846 18.2897C156.244 18.0571 155.654 17.9409 155.074 17.9409C154.516 17.9409 154.097 18.0254 153.818 18.1945C153.54 18.3425 153.4 18.5645 153.4 18.8605C153.4 19.1776 153.582 19.4313 153.947 19.6216C154.313 19.8119 154.785 19.981 155.365 20.129C155.944 20.277 156.556 20.4567 157.2 20.6681C157.844 20.8795 158.457 21.165 159.036 21.5244C159.616 21.8838 160.089 22.3701 160.453 22.9832C160.819 23.5751 161.001 24.3574 161.001 25.3299C161.001 26.831 160.421 28.0255 159.262 28.9134C158.123 29.8014 156.578 30.2453 154.623 30.2453ZM169.987 30.2136C168.549 30.2136 167.271 29.9282 166.155 29.3574C165.059 28.7654 164.201 27.962 163.578 26.9472C162.955 25.9113 162.644 24.7274 162.644 23.3954V14.4525H167.572V23.332C167.572 23.8605 167.657 24.3151 167.83 24.6956C168.023 25.0762 168.302 25.3722 168.667 25.5836C169.032 25.795 169.472 25.9007 169.987 25.9007C170.717 25.9007 171.297 25.6787 171.727 25.2347C172.156 24.7696 172.371 24.1354 172.371 23.332V14.4525H177.299V23.3637C177.299 24.7168 176.988 25.9113 176.364 26.9472C175.742 27.962 174.883 28.7654 173.788 29.3574C172.693 29.9282 171.426 30.2136 169.987 30.2136ZM179.749 14.4526H184.677V15.5917C185.006 15.3094 185.37 15.0671 185.773 14.8648C186.696 14.3786 187.737 14.1354 188.897 14.1354C189.992 14.1354 190.969 14.3786 191.827 14.8648C192.47 15.2194 193.014 15.6751 193.462 16.232C193.942 15.6996 194.503 15.265 195.145 14.9283C196.132 14.3997 197.238 14.1354 198.462 14.1354C199.665 14.1354 200.728 14.3891 201.651 14.8966C202.596 15.3828 203.336 16.091 203.873 17.0213C204.432 17.9304 204.711 19.0298 204.711 20.3194V29.8649H199.782V20.8585C199.782 20.0763 199.536 19.4737 199.042 19.0509C198.57 18.6069 197.98 18.3849 197.271 18.3849C196.777 18.3849 196.336 18.4906 195.95 18.7021C195.563 18.8923 195.253 19.1672 195.016 19.5266C194.802 19.886 194.694 20.33 194.694 20.8585V29.8649H189.766V20.8585C189.766 20.0763 189.519 19.4737 189.025 19.0509C188.552 18.6069 187.962 18.3849 187.253 18.3849C186.76 18.3849 186.32 18.4906 185.933 18.7021C185.547 18.8923 185.235 19.1672 184.999 19.5266C184.784 19.886 184.677 20.33 184.677 20.8585V29.8649H179.749V14.4526Z" fill="#616161"/>
</svg>
