<svg width="164" height="40" viewBox="0 0 164 40" fill="none" xmlns="http://www.w3.org/2000/svg">
<g clip-path="url(#clip0_63_1962)">
<path fill-rule="evenodd" clip-rule="evenodd" d="M4.85081 7.2253C5.94647 5.92635 7.20862 4.77245 8.60438 3.79649C11.7995 3.98785 15.5831 4.87191 19.8754 7.01806C26.6349 10.3977 32.4349 11.0293 36.959 10.5521C37.4938 11.5441 37.9453 12.5876 38.3039 13.6734C34.3517 14.4357 28.6729 14.3165 21.6206 10.7905C15.0165 7.48837 9.32818 6.80962 4.85081 7.2253ZM19.7724 0.286377C25.5513 0.286377 30.7434 2.79857 34.3162 6.79042C30.8421 6.79872 26.5695 6.00201 21.6206 3.52761C19.2435 2.33905 16.985 1.49036 14.8589 0.91026C16.4287 0.503067 18.0753 0.286377 19.7724 0.286377ZM19.8754 14.2809C27.781 18.2337 34.3743 18.4273 39.1489 17.4845C39.2386 18.2434 39.2846 19.0156 39.2846 19.7985C39.2846 20.1098 39.2774 20.4193 39.263 20.7269C39.1312 20.7591 38.9973 20.7904 38.8614 20.8205C34.894 21.7022 29.0115 21.7487 21.6206 18.0533C13.4018 13.9438 6.6013 13.8974 1.78822 14.9669C1.44945 15.0423 1.12112 15.1229 0.803378 15.2078C1.10087 13.9743 1.51549 12.7864 2.03492 11.6567C2.23005 11.6069 2.43001 11.5591 2.63479 11.5137C6.60214 10.632 12.4846 10.5855 19.8754 14.2809ZM19.8754 21.5437C27.4963 25.3541 33.8976 25.6713 38.6259 24.8447C36.402 33.175 28.8037 39.3107 19.7724 39.3107C8.99615 39.3107 0.260254 30.5748 0.260254 19.7985C0.260254 19.6862 0.261207 19.574 0.263112 19.4621C0.961951 19.2105 1.75416 18.9721 2.63479 18.7765C6.60214 17.8948 12.4846 17.8483 19.8754 21.5437ZM59.2664 28.0913H47.606V11.3499H51.7504V24.5791H59.2664V28.0913ZM63.6458 22.1203C63.6458 24.2979 64.5121 25.7496 66.1746 25.7496C67.837 25.7496 68.7268 24.2979 68.7268 22.1203C68.7268 19.9428 67.837 18.4677 66.1746 18.4677C64.5121 18.4677 63.6458 19.9428 63.6458 22.1203ZM72.5902 22.1203C72.5902 25.7262 70.0614 28.4657 66.198 28.4657C62.358 28.4657 59.7824 25.7262 59.7824 22.1203C59.7824 18.5145 62.358 15.775 66.198 15.775C70.0614 15.775 72.5902 18.5145 72.5902 22.1203ZM79.2777 32.2358C81.0572 32.2358 82.626 31.8377 83.6797 30.9011C84.6397 30.0348 85.2719 28.7236 85.2719 26.9207V16.1031H81.6192V17.3909H81.5724C80.8699 16.3841 79.7928 15.7519 78.2007 15.7519C75.227 15.7519 73.1665 18.2338 73.1665 21.746C73.1665 25.4221 75.6719 27.4358 78.3646 27.4358C79.8163 27.4358 80.7294 26.8504 81.4319 26.0543H81.5255V27.2485C81.5255 28.7002 80.8465 29.5431 79.2309 29.5431C77.9665 29.5431 77.3343 29.0046 77.1236 28.3724H73.4241C73.7987 30.8777 75.9763 32.2358 79.2777 32.2358ZM79.2543 24.6026C77.826 24.6026 76.8894 23.4319 76.8894 21.6289C76.8894 19.8026 77.826 18.6319 79.2543 18.6319C80.8465 18.6319 81.6894 19.9899 81.6894 21.6055C81.6894 23.2914 80.9167 24.6026 79.2543 24.6026ZM90.2539 22.1203C90.2539 24.2979 91.1202 25.7496 92.7827 25.7496C94.4451 25.7496 95.3349 24.2979 95.3349 22.1203C95.3349 19.9428 94.4451 18.4677 92.7827 18.4677C91.1202 18.4677 90.2539 19.9428 90.2539 22.1203ZM99.1986 22.1203C99.1986 25.7262 96.6695 28.4657 92.8061 28.4657C88.9661 28.4657 86.3905 25.7262 86.3905 22.1203C86.3905 18.5145 88.9661 15.775 92.8061 15.775C96.6695 15.775 99.1986 18.5145 99.1986 22.1203ZM100.312 28.0913H104.129V16.103H100.312V28.0913ZM100.312 14.4406H104.129V11.3499H100.312V14.4406ZM109.602 32.0485H105.785V16.1031H109.438V17.5548H109.508C110.327 16.4777 111.498 15.7519 113.137 15.7519C116.322 15.7519 118.265 18.4914 118.265 22.0972C118.265 25.9841 116.181 28.466 113.044 28.466C111.498 28.466 110.398 27.8572 109.648 26.8504H109.602V32.0485ZM109.485 22.2377C109.485 24.1811 110.421 25.5158 112.06 25.5158C113.512 25.5158 114.402 24.2748 114.402 22.2377C114.402 20.1772 113.629 18.8192 111.99 18.8192C110.327 18.8192 109.485 20.2943 109.485 22.2377ZM124.479 28.466C127.617 28.466 129.935 27.108 129.935 24.4855C129.935 21.4182 127.453 20.8797 125.346 20.5285C125.158 20.4938 124.972 20.4616 124.792 20.4302C123.509 20.2075 122.466 20.0263 122.466 19.2875C122.466 18.5382 123.191 18.187 124.128 18.187C125.182 18.187 125.907 18.5148 126.048 19.5919H129.56C129.373 17.227 127.546 15.7519 124.151 15.7519C121.318 15.7519 118.977 17.0631 118.977 19.5919C118.977 22.4016 121.201 22.9636 123.285 23.3148C123.451 23.3442 123.616 23.3717 123.778 23.3988C125.165 23.6307 126.329 23.8254 126.329 24.7899C126.329 25.5626 125.603 25.9841 124.456 25.9841C123.191 25.9841 122.395 25.3987 122.255 24.2046H118.649C118.766 26.8504 120.967 28.466 124.479 28.466ZM138.701 26.616C137.834 27.7867 136.781 28.4423 135.118 28.4423C132.355 28.4423 130.903 26.6394 130.903 23.9701V16.1028H134.697V23.174C134.697 24.4852 135.282 25.2111 136.5 25.2111C137.811 25.2111 138.607 24.2277 138.607 22.7994V16.1028H142.423V28.0911H138.771V26.616H138.701ZM144.084 28.0914H147.901V21.3714C147.901 19.9431 148.604 18.9363 149.798 18.9363C150.945 18.9363 151.484 19.6855 151.484 20.9733V28.0914H155.3V21.3714C155.3 19.9431 155.979 18.9363 157.197 18.9363C158.344 18.9363 158.883 19.6855 158.883 20.9733V28.0914H162.699V20.2943C162.699 17.6016 161.341 15.7519 158.625 15.7519C157.08 15.7519 155.792 16.4075 154.855 17.8592H154.808C154.2 16.5714 153.005 15.7519 151.437 15.7519C149.704 15.7519 148.557 16.5714 147.807 17.8124H147.737V16.1031H144.084V28.0914Z" fill="#616161"/>
</g>
<defs>
<clipPath id="clip0_63_1962">
<rect width="162.927" height="40" fill="white" transform="translate(0.161133)"/>
</clipPath>
</defs>
</svg>
