<svg width="219" height="40" viewBox="0 0 219 40" fill="none" xmlns="http://www.w3.org/2000/svg">
<g clip-path="url(#clip0_63_1949)">
<path fill-rule="evenodd" clip-rule="evenodd" d="M113.389 20C113.389 8.95431 104.434 0 93.389 0C82.3433 0 73.389 8.95431 73.389 20C73.389 31.0457 82.3433 40 93.389 40C104.434 40 113.389 31.0457 113.389 20ZM86.5253 6.7174C88.2118 3.65108 90.3844 1.81769 92.6661 1.49659V8.68187C90.0224 8.73442 87.5033 9.07417 85.2101 9.65044C85.5947 8.58946 86.0361 7.60683 86.5253 6.7174ZM85.2585 6.02065C84.5832 7.2484 83.9981 8.62958 83.5197 10.1308C82.0185 10.6091 80.6374 11.1943 79.4096 11.8696C77.8895 12.7056 76.5769 13.6978 75.5687 14.8157C77.3342 8.73679 82.1257 3.94523 88.2046 2.17977C87.0867 3.18795 86.0945 4.50059 85.2585 6.02065ZM82.0708 19.2771C82.1234 16.6334 82.4631 14.1143 83.0394 11.8211C81.9784 12.2058 80.9958 12.6472 80.1064 13.1364C77.04 14.8228 75.2066 16.9954 74.8855 19.2771H82.0708ZM84.6792 11.2902C83.992 13.6834 83.5766 16.392 83.5169 19.2771H86.6391C89.3946 18.2012 91.5898 16.0062 92.6661 13.2508V10.1279C89.781 10.1876 87.0724 10.603 84.6792 11.2902ZM74.8855 20.7229H82.0708C82.1234 23.3666 82.4631 25.8857 83.0394 28.1789C81.9784 27.7942 80.9958 27.3528 80.1064 26.8636C77.04 25.1771 75.2066 23.0046 74.8855 20.7229ZM83.5169 20.7229C83.5766 23.608 83.992 26.3166 84.6792 28.7098C87.0724 29.397 89.781 29.8124 92.6661 29.8721V26.7492C91.5898 23.9938 89.3946 21.7988 86.6391 20.7229H83.5169ZM79.4096 28.1304C80.6374 28.8057 82.0185 29.3909 83.5197 29.8692C83.9981 31.3704 84.5832 32.7516 85.2585 33.9793C86.0945 35.4994 87.0867 36.812 88.2046 37.8202C82.1257 36.0548 77.3342 31.2632 75.5687 25.1843C76.5769 26.3022 77.8895 27.2944 79.4096 28.1304ZM86.5253 33.2826C88.2118 36.3489 90.3844 38.1823 92.6661 38.5034V31.3181C90.0224 31.2656 87.5033 30.9258 85.2101 30.3496C85.5947 31.4105 86.0361 32.3932 86.5253 33.2826ZM101.519 33.9793C100.683 35.4994 99.6912 36.812 98.5733 37.8202C104.652 36.0548 109.443 31.2632 111.209 25.1843C110.201 26.3022 108.888 27.2944 107.368 28.1304C106.14 28.8057 104.759 29.3909 103.258 29.8692C102.78 31.3704 102.194 32.7516 101.519 33.9793ZM100.252 33.2826C100.741 32.3932 101.183 31.4105 101.568 30.3496C99.2746 30.9258 96.7555 31.2656 94.1118 31.3181V38.5034C96.3935 38.1823 98.5661 36.3489 100.252 33.2826ZM106.671 26.8636C105.782 27.3528 104.799 27.7942 103.738 28.1789C104.314 25.8857 104.654 23.3666 104.707 20.7229H111.892C111.571 23.0046 109.738 25.1772 106.671 26.8636ZM102.098 28.7098C102.786 26.3166 103.201 23.608 103.261 20.7229H100.14C97.3835 21.7991 95.1878 23.9951 94.1118 26.7515V29.8721C96.9969 29.8124 99.7055 29.397 102.098 28.7098ZM111.892 19.2771H104.707C104.654 16.6334 104.314 14.1143 103.738 11.8211C104.799 12.2058 105.782 12.6472 106.671 13.1364C109.738 14.8228 111.571 16.9954 111.892 19.2771ZM103.261 19.2771C103.201 16.392 102.786 13.6834 102.098 11.2902C99.7055 10.603 96.9969 10.1876 94.1118 10.1279V13.2485C95.1878 16.0049 97.3835 18.2009 100.14 19.2771H103.261ZM107.368 11.8696C106.14 11.1943 104.759 10.6091 103.258 10.1308C102.78 8.62958 102.194 7.2484 101.519 6.02065C100.683 4.50059 99.6912 3.18795 98.5733 2.17977C104.652 3.94523 109.443 8.73679 111.209 14.8157C110.201 13.6978 108.888 12.7056 107.368 11.8696ZM100.252 6.7174C98.5661 3.65108 96.3935 1.81769 94.1118 1.49659V8.68187C96.7555 8.73442 99.2746 9.07417 101.568 9.65044C101.183 8.58946 100.741 7.60684 100.252 6.7174ZM0.985352 29.5237H5.6482V5.00944H0.985352V29.5237ZM122.516 29.5237H127.179V11.9351H122.516V29.5237ZM122.516 9.1923H127.179V5.00944H122.516V9.1923ZM130.184 35.2837H134.847V27.5351H134.915C135.909 29.0437 137.521 30.038 139.989 30.038C144.515 30.038 147.601 26.438 147.601 20.7466C147.601 15.2608 144.618 11.4551 139.955 11.4551C137.555 11.4551 135.909 12.5866 134.778 14.1294H134.675V11.9351H130.184V35.2837ZM138.995 26.1637C136.218 26.1637 134.744 24.0723 134.744 20.8837C134.744 17.7294 135.909 15.2266 138.824 15.2266C141.704 15.2266 142.869 17.558 142.869 20.8837C142.869 24.2094 141.361 26.1637 138.995 26.1637ZM164.308 24.3808C164.308 27.9123 161.291 30.038 156.902 30.038C151.794 30.038 148.948 27.5694 148.674 23.8323H152.994C153.302 25.8551 154.742 26.7466 156.834 26.7466C158.891 26.7466 160.056 25.958 160.056 24.7237C160.056 23.2551 158.354 22.9393 156.322 22.5625L156.321 22.5623C156.029 22.5081 155.73 22.4526 155.428 22.3923C152.274 21.7751 149.188 20.918 149.188 17.078C149.188 13.2723 152.342 11.4551 156.354 11.4551C160.982 11.4551 163.554 13.7523 163.896 17.2837H159.679C159.474 15.398 158.274 14.7123 156.285 14.7123C154.468 14.7123 153.268 15.398 153.268 16.6666C153.268 17.9319 154.908 18.2324 156.914 18.6C157.3 18.6706 157.699 18.7437 158.102 18.8266C161.051 19.4437 164.308 20.2666 164.308 24.3808ZM182.011 29.5238V11.9352H177.348V22.0838C177.348 24.4152 176.011 26.0609 173.817 26.0609C171.828 26.0609 170.903 24.9295 170.903 22.8724V11.9352H166.274V23.6609C166.274 27.5009 168.468 30.0038 172.377 30.0038C174.846 30.0038 176.217 29.0781 177.417 27.4667H177.52V29.5238H182.011ZM189.69 29.5237H185.027V11.9351H189.519V14.3008H189.622C190.582 12.6894 192.296 11.4551 194.73 11.4551C196.959 11.4551 198.742 12.6894 199.599 14.5408H199.667C200.867 12.6208 202.719 11.4551 204.947 11.4551C208.65 11.4551 210.742 13.8551 210.742 17.6951V29.5237H206.079V18.4837C206.079 16.4951 205.085 15.4666 203.37 15.4666C201.416 15.4666 200.216 16.9751 200.216 19.3066V29.5237H195.553V18.4837C195.553 16.4951 194.559 15.4666 192.845 15.4666C190.959 15.4666 189.69 16.9751 189.69 19.3066V29.5237ZM26.2381 20.7466C26.2381 25.9923 22.501 30.038 17.0496 30.038C11.5981 30.038 7.861 25.9923 7.861 20.7466C7.861 15.5008 11.5981 11.4551 17.0496 11.4551C22.501 11.4551 26.2381 15.5008 26.2381 20.7466ZM12.5924 20.7466C12.5924 24.1751 14.1696 26.4723 17.0496 26.4723C19.8953 26.4723 21.5067 24.1751 21.5067 20.7466C21.5067 17.318 19.8953 14.9866 17.0496 14.9866C14.1696 14.9866 12.5924 17.318 12.5924 20.7466ZM36.1542 35.5237C38.7599 35.5237 41.0228 34.9066 42.497 33.5351C43.7999 32.3351 44.5885 30.6551 44.5885 28.1866V11.9351H40.0971V13.7866H40.0285C38.9656 12.3123 37.3542 11.4551 35.1599 11.4551C30.7028 11.4551 27.5485 14.8151 27.5485 20.0608C27.5485 25.3751 31.3885 28.4608 35.2971 28.4608C37.5256 28.4608 38.8628 27.5694 39.8913 26.4037H39.9942V28.3237C39.9942 30.7237 38.7256 31.9923 36.0856 31.9923C33.9256 31.9923 32.9313 31.1351 32.5542 30.038H27.9256C28.4056 33.4666 31.3542 35.5237 36.1542 35.5237ZM36.0856 24.7237C33.6856 24.7237 32.1085 22.9751 32.1085 19.9923C32.1085 17.0437 33.6856 15.1923 36.0513 15.1923C38.8628 15.1923 40.2342 17.3866 40.2342 19.958C40.2342 22.5637 39.0342 24.7237 36.0856 24.7237ZM65.1106 20.7466C65.1106 25.9923 61.3734 30.038 55.922 30.038C50.4706 30.038 46.7334 25.9923 46.7334 20.7466C46.7334 15.5008 50.4706 11.4551 55.922 11.4551C61.3734 11.4551 65.1106 15.5008 65.1106 20.7466ZM51.4649 20.7466C51.4649 24.1751 53.042 26.4723 55.922 26.4723C58.7677 26.4723 60.3792 24.1751 60.3792 20.7466C60.3792 17.318 58.7677 14.9866 55.922 14.9866C53.042 14.9866 51.4649 17.318 51.4649 20.7466ZM212.436 9.04771C212.436 8.25873 213.076 7.61914 213.865 7.61914H216.722C217.511 7.61914 218.151 8.25873 218.151 9.04771C218.151 9.83669 217.511 10.4763 216.722 10.4763H213.865C213.076 10.4763 212.436 9.83669 212.436 9.04771Z" fill="#616161"/>
</g>
<defs>
<clipPath id="clip0_63_1949">
<rect width="218" height="40" fill="white" transform="translate(0.161133)"/>
</clipPath>
</defs>
</svg>
