<svg width="21" height="39" viewBox="0 0 21 39" fill="none" xmlns="http://www.w3.org/2000/svg">
<path d="M5.7986 21.771C5.65378 21.771 2.46777 21.771 1.01959 21.771C0.247224 21.771 0.00585938 21.4814 0.00585938 20.7573C0.00585938 18.8264 0.00585938 16.8472 0.00585938 14.9163C0.00585938 14.1439 0.295497 13.9026 1.01959 13.9026H5.7986C5.7986 13.7578 5.7986 10.9579 5.7986 9.65457C5.7986 7.72365 6.13651 5.88929 7.10197 4.19974C8.11569 2.46191 9.56388 1.30337 11.3982 0.627546C12.6051 0.193091 13.8119 0 15.1153 0H19.846C20.5218 0 20.8114 0.289637 20.8114 0.965457V6.46856C20.8114 7.14438 20.5218 7.43402 19.846 7.43402C18.5426 7.43402 17.2393 7.43402 15.9359 7.48229C14.6325 7.48229 13.9567 8.10984 13.9567 9.46148C13.9084 10.9097 13.9567 12.3096 13.9567 13.806H19.5564C20.3287 13.806 20.6184 14.0957 20.6184 14.868V20.709C20.6184 21.4814 20.377 21.7228 19.5564 21.7228C17.8185 21.7228 14.1015 21.7228 13.9567 21.7228V37.4597C13.9567 38.2804 13.7153 38.57 12.8464 38.57C10.819 38.57 8.83979 38.57 6.81233 38.57C6.08824 38.57 5.7986 38.2804 5.7986 37.5563C5.7986 32.4876 5.7986 21.9159 5.7986 21.771Z" fill="#FFB706"/>
</svg>
