<svg width="39" height="39" viewBox="0 0 39 39" fill="none" xmlns="http://www.w3.org/2000/svg">
<path d="M38.784 11.3397C38.6936 9.29034 38.3622 7.88141 37.8875 6.66055C37.3977 5.36465 36.6442 4.20442 35.6571 3.23992C34.6926 2.26041 33.5247 1.49929 32.2438 1.01718C31.0159 0.542439 29.6143 0.21103 27.5649 0.120673C25.5002 0.0226629 24.8448 0 19.6082 0C14.3715 0 13.7161 0.0226629 11.6591 0.11302C9.60968 0.203378 8.20075 0.535081 6.98019 1.00953C5.68398 1.49929 4.52376 2.25276 3.55926 3.23992C2.57975 4.20442 1.81892 5.3723 1.33652 6.6532C0.861775 7.88141 0.530366 9.28269 0.440009 11.3321C0.341999 13.3968 0.319336 14.0522 0.319336 19.2888C0.319336 24.5254 0.341999 25.1809 0.432356 27.2379C0.522714 29.2873 0.854417 30.6962 1.32916 31.9171C1.81892 33.213 2.57975 34.3732 3.55926 35.3377C4.52376 36.3172 5.69163 37.0784 6.97253 37.5605C8.20075 38.0352 9.60202 38.3666 11.6517 38.457C13.7084 38.5476 14.3642 38.57 19.6008 38.57C24.8374 38.57 25.4929 38.5476 27.5499 38.457C29.5993 38.3666 31.0082 38.0352 32.2288 37.5605C34.8209 36.5583 36.8703 34.5089 37.8724 31.9171C38.3469 30.6889 38.6786 29.2873 38.769 27.2379C38.8593 25.1809 38.882 24.5254 38.882 19.2888C38.882 14.0522 38.8743 13.3968 38.784 11.3397ZM35.3106 27.0872C35.2276 28.9709 34.9112 29.9881 34.6475 30.6662C33.9994 32.3465 32.6659 33.6801 30.9856 34.3282C30.3074 34.5919 29.2829 34.9083 27.4066 34.991C25.3722 35.0817 24.7621 35.104 19.6158 35.104C14.4696 35.104 13.8518 35.0817 11.8248 34.991C9.94108 34.9083 8.9239 34.5919 8.24578 34.3282C7.4096 34.0192 6.64848 33.5294 6.03069 32.889C5.39025 32.2635 4.90049 31.51 4.59145 30.6739C4.32774 29.9958 4.01134 28.9709 3.92863 27.0949C3.83798 25.0605 3.81561 24.4501 3.81561 19.3038C3.81561 14.1576 3.83798 13.5398 3.92863 11.5131C4.01134 9.6294 4.32774 8.61222 4.59145 7.9341C4.90049 7.09763 5.39025 6.3368 6.03835 5.71872C6.66349 5.07827 7.41696 4.58851 8.25343 4.27977C8.93155 4.01605 9.95639 3.69965 11.8324 3.61665C13.8668 3.5263 14.4772 3.50363 19.6232 3.50363C24.7771 3.50363 25.3872 3.5263 27.4142 3.61665C29.2979 3.69965 30.3151 4.01605 30.9932 4.27977C31.8294 4.58851 32.5905 5.07827 33.2083 5.71872C33.8487 6.34416 34.3385 7.09763 34.6475 7.9341C34.9112 8.61222 35.2276 9.63676 35.3106 11.5131C35.401 13.5474 35.4237 14.1576 35.4237 19.3038C35.4237 24.4501 35.401 25.0529 35.3106 27.0872Z" fill="white" fill-opacity="0.6"/>
<path d="M19.6082 9.3807C14.1381 9.3807 9.70003 13.8185 9.70003 19.2888C9.70003 24.7591 14.1381 29.197 19.6082 29.197C25.0785 29.197 29.5163 24.7591 29.5163 19.2888C29.5163 13.8185 25.0785 9.3807 19.6082 9.3807ZM19.6082 25.716C16.0595 25.716 13.181 22.8378 13.181 19.2888C13.181 15.7399 16.0595 12.8617 19.6082 12.8617C23.1571 12.8617 26.0353 15.7399 26.0353 19.2888C26.0353 22.8378 23.1571 25.716 19.6082 25.716Z" fill="white" fill-opacity="0.6"/>
<path d="M32.2214 8.98895C32.2214 10.2663 31.1857 11.302 29.908 11.302C28.6307 11.302 27.5949 10.2663 27.5949 8.98895C27.5949 7.71129 28.6307 6.67586 29.908 6.67586C31.1857 6.67586 32.2214 7.71129 32.2214 8.98895Z" fill="white" fill-opacity="0.6"/>
</svg>
