<svg width="39" height="39" viewBox="0 0 39 39" fill="none" xmlns="http://www.w3.org/2000/svg">
<path d="M38.9943 38.57V24.4437C38.9943 17.5011 37.4997 12.1978 29.4 12.1978C25.4948 12.1978 22.8913 14.3191 21.8307 16.344H21.7342V12.8245H14.0685V38.57H22.0717V25.7937C22.0717 22.4188 22.6985 19.1886 26.8448 19.1886C30.9428 19.1886 30.991 22.9974 30.991 25.9865V38.5218H38.9943V38.57Z" fill="white" fill-opacity="0.6"/>
<path d="M1.05108 12.8245H9.05435V38.57H1.05108V12.8245Z" fill="white" fill-opacity="0.6"/>
<path d="M5.05272 0C2.49745 0 0.424316 2.07314 0.424316 4.6284C0.424316 7.18366 2.49745 9.30501 5.05272 9.30501C7.60798 9.30501 9.68112 7.18366 9.68112 4.6284C9.68112 2.07314 7.60798 0 5.05272 0Z" fill="white" fill-opacity="0.6"/>
</svg>
