<svg width="48" height="39" viewBox="0 0 48 39" fill="none" xmlns="http://www.w3.org/2000/svg">
<path d="M47.7089 4.56204C45.9315 5.33226 44.0948 5.86548 42.1396 6.10247C44.154 4.91753 45.6945 3.02161 46.4054 0.710968C44.5095 1.83667 42.4359 2.60688 40.2437 3.08086C38.4663 1.18495 35.9187 0 33.134 0C27.7425 0 23.4175 4.3843 23.4175 9.71656C23.4175 10.4868 23.4767 11.1977 23.6545 11.9087C15.5968 11.5532 8.48716 7.6429 3.68813 1.77742C0.251788 7.93914 4.10286 13.0344 6.6505 14.7526C5.11007 14.7526 3.56964 14.2786 2.2662 13.5676C2.2662 18.3667 5.64329 22.3362 10.0276 23.2249C9.07964 23.5212 6.94673 23.6989 5.64329 23.4027C6.88749 27.2538 10.5016 30.0976 14.7081 30.1569C11.3903 32.7638 6.532 34.8374 0.311035 34.1857C4.63609 36.9703 9.73135 38.57 15.2414 38.57C33.134 38.57 42.8506 23.7582 42.8506 10.9608C42.8506 10.546 42.8506 10.1313 42.7913 9.71656C44.8058 8.23538 46.4647 6.5172 47.7089 4.56204Z" fill="white" fill-opacity="0.6"/>
</svg>
