<svg width="20" height="18" viewBox="0 0 20 18" fill="none" xmlns="http://www.w3.org/2000/svg">
<path d="M19.3676 6.73499C19.2146 6.26584 18.8089 5.92476 18.3201 5.85356L13.3682 5.13402L11.1554 0.663014C10.7173 -0.221005 9.26926 -0.221005 8.83113 0.663014L6.6184 5.13402L1.67824 5.85356C1.19079 5.92476 0.785075 6.26703 0.632136 6.73639C0.479198 7.20435 0.606283 7.71905 0.960089 8.06371L4.54309 11.556L3.69786 16.4833C3.61493 16.9693 3.8146 17.4619 4.21375 17.7523C4.6143 18.0413 5.14451 18.0791 5.58005 17.8496L9.99258 15.5227L14.4182 17.8496C14.6076 17.9494 14.815 17.9987 15.021 17.9987C15.2893 17.9987 15.5576 17.9144 15.7845 17.7525C16.1839 17.4607 16.3834 16.9695 16.3004 16.4835L15.4566 11.5562L19.0396 8.06391C19.3936 7.72024 19.5205 7.20435 19.3676 6.73499Z" fill="#EE930A"/>
</svg>
