<svg width="80" height="80" viewBox="0 0 80 80" fill="none" xmlns="http://www.w3.org/2000/svg">
<circle cx="40" cy="40" r="40" fill="#ECF2F7"/>
<circle cx="40" cy="40" r="33" stroke="black" stroke-width="1.5" stroke-linecap="round" stroke-dasharray="5 5"/>
<path fill-rule="evenodd" clip-rule="evenodd" d="M26.3661 40.6515C26.8543 41.1396 27.6457 41.1396 28.1339 40.6515L40.25 28.5353L52.3661 40.6515C52.8543 41.1396 53.6457 41.1396 54.1339 40.6515C54.622 40.1633 54.622 39.3719 54.1339 38.8837L40.25 24.9998L26.3661 38.8837C25.878 39.3719 25.878 40.1633 26.3661 40.6515Z" fill="black"/>
<path fill-rule="evenodd" clip-rule="evenodd" d="M29.9695 44.9015C30.352 45.2999 30.985 45.3128 31.3835 44.9304L40.2497 36.4187L49.116 44.9304C49.5144 45.3128 50.1475 45.2999 50.53 44.9015C50.9124 44.5031 50.8995 43.8701 50.5011 43.4876L40.2497 33.6463L29.9984 43.4876C29.6 43.8701 29.5871 44.5031 29.9695 44.9015Z" fill="black"/>
<path d="M40.25 41.7383L34.25 47.7383L40.25 48.7383L46.25 47.7383L40.25 41.7383Z" fill="black"/>
</svg>
