<svg width="16" height="16" viewBox="0 0 16 16" fill="none" xmlns="http://www.w3.org/2000/svg">
<path d="M15.3082 3.15936C14.86 2.44854 14.2034 1.89321 13.4281 1.56905C12.5496 1.2003 11.5629 1.13393 10.5747 1.37758C9.66913 1.6009 8.78707 2.08524 7.99997 2.78786C7.21282 2.08518 6.33066 1.6008 5.42497 1.37752C4.43675 1.13377 3.44997 1.20021 2.57147 1.56921C1.79613 1.89346 1.13963 2.4489 0.691441 3.15983C0.222066 3.90183 -0.0167153 4.80418 0.000909689 5.76921C0.0791597 10.0594 6.46985 13.9605 7.75016 14.6991C7.82613 14.7429 7.91229 14.7659 7.99999 14.7659C8.08769 14.7659 8.17385 14.7429 8.24981 14.6991C9.53025 13.9604 15.9215 10.0586 15.9991 5.76846C16.0165 4.80349 15.7776 3.90124 15.3082 3.15936ZM14.9993 5.75049C14.9743 7.13761 14.0496 8.75483 12.3254 10.4272C10.7287 11.9759 8.91247 13.1432 7.99997 13.6864C7.08747 13.1433 5.27153 11.9761 3.67497 10.4274C1.95072 8.75515 1.02603 7.13805 1.00072 5.75096C0.973097 4.23637 1.70507 3.01777 2.95872 2.49118C3.36959 2.31957 3.81068 2.23203 4.25594 2.23374C5.40578 2.23374 6.6221 2.79036 7.64344 3.82893C7.68997 3.87624 7.74546 3.91382 7.80666 3.93947C7.86787 3.96512 7.93356 3.97833 7.99992 3.97833C8.06629 3.97833 8.13198 3.96512 8.19319 3.93947C8.25439 3.91382 8.30988 3.87624 8.35641 3.82893C9.77535 2.38611 11.5705 1.87352 13.0408 2.49108C14.2946 3.01749 15.0266 4.2359 14.9993 5.7504V5.75049Z" fill="black"/>
</svg>
