<svg width="19" height="18" viewBox="0 0 19 18" fill="none" xmlns="http://www.w3.org/2000/svg">
<path d="M18.85 6.73499C18.6956 6.26584 18.2913 5.92476 17.8025 5.85356L12.8506 5.13402L10.6379 0.663014C10.1997 -0.221005 8.75169 -0.221005 8.31355 0.663014L6.10082 5.13402L1.16066 5.85356C0.673211 5.92476 0.267496 6.26703 0.114558 6.73639C-0.0383804 7.20435 0.0887069 7.71905 0.442513 8.06371L4.02552 11.556L3.18028 16.4833C3.09735 16.9693 3.29702 17.4619 3.69617 17.7523C3.9217 17.9156 4.1888 17.9985 4.45709 17.9985C4.66452 17.9985 4.87195 17.9492 5.06367 17.8494L9.4764 15.5225L13.9033 17.8494C14.3388 18.0815 14.8676 18.0425 15.2684 17.7509C15.6663 17.4606 15.866 16.9693 15.7831 16.4831L14.9392 11.5558L18.5222 8.06351C18.8758 7.72024 19.0017 7.20435 18.85 6.73499Z" fill="url(#paint0_linear_51_1809)"/>
<defs>
<linearGradient id="paint0_linear_51_1809" x1="18.9132" y1="8.99994" x2="0.0507813" y2="8.99994" gradientUnits="userSpaceOnUse">
<stop offset="0.5" stop-color="#B7B7B7"/>
<stop offset="0.5" stop-color="#EE930A"/>
</linearGradient>
</defs>
</svg>
