<svg width="20" height="20" viewBox="0 0 20 20" fill="none" xmlns="http://www.w3.org/2000/svg">
<path d="M10 0C7.87904 0.00245748 5.84566 0.831051 4.34592 2.30402C2.84617 3.77699 2.00251 5.77405 2.00001 7.85714C1.99747 9.55945 2.56363 11.2156 3.61164 12.5714C3.61164 12.5714 3.82982 12.8536 3.86546 12.8943L10 20L16.1374 12.8907C16.1694 12.8529 16.3884 12.5714 16.3884 12.5714L16.3891 12.5693C17.4366 11.214 18.0025 9.55866 18 7.85714C17.9975 5.77405 17.1538 3.77699 15.6541 2.30402C14.1543 0.831051 12.121 0.00245748 10 0ZM10 10.7143C9.42464 10.7143 8.86219 10.5467 8.3838 10.2328C7.9054 9.91882 7.53254 9.4726 7.31235 8.95052C7.09217 8.42845 7.03456 7.85397 7.14681 7.29974C7.25906 6.74551 7.53612 6.23642 7.94296 5.83684C8.34981 5.43726 8.86816 5.16514 9.43247 5.0549C9.99677 4.94466 10.5817 5.00124 11.1133 5.21749C11.6448 5.43374 12.0992 5.79994 12.4188 6.2698C12.7385 6.73965 12.9091 7.29205 12.9091 7.85714C12.9081 8.61461 12.6013 9.34079 12.056 9.8764C11.5106 10.412 10.7712 10.7133 10 10.7143Z" fill="#110C30"/>
</svg>
