<svg width="17" height="20" viewBox="0 0 17 20" fill="none" xmlns="http://www.w3.org/2000/svg">
<path fill-rule="evenodd" clip-rule="evenodd" d="M3.00087 11.9141L7.99998 17.7046L12.9911 11.9232C12.9926 11.921 13.0011 11.9103 13.0157 11.8918C13.0331 11.8696 13.0594 11.8362 13.0934 11.7928L13.1012 11.7827L13.2023 11.652C14.0477 10.5581 14.502 9.2257 14.5 7.85933C14.498 6.18225 13.819 4.56845 12.603 3.37419C11.3865 2.17943 9.73173 1.50246 8 1.5C6.26827 1.50246 4.61346 2.17943 3.39698 3.37419C2.181 4.56845 1.50202 6.18229 1.50001 7.85938M8 0C5.87904 0.00245748 3.84566 0.831051 2.34592 2.30402C0.846168 3.77699 0.00251067 5.77405 8.51118e-06 7.85714C-0.00253177 9.55945 0.56363 11.2156 1.61164 12.5714C1.61164 12.5714 1.82982 12.8536 1.86546 12.8943L8 20L14.1374 12.8907C14.1694 12.8529 14.3884 12.5714 14.3884 12.5714L14.3891 12.5693C15.4366 11.214 16.0025 9.55866 16 7.85714C15.9975 5.77405 15.1538 3.77699 13.6541 2.30402C12.1543 0.831051 10.121 0.00245748 8 0ZM2.79873 11.6545L2.83151 11.6968L2.90785 11.7949C2.93758 11.833 2.95988 11.8614 2.97505 11.8806C2.99948 11.9117 3.00542 11.9192 2.99417 11.9064L3.00087 11.9141M2.79873 11.6545C2.79866 11.6544 2.7988 11.6546 2.79873 11.6545V11.6545ZM12.4091 7.85714V7.85905C12.4076 9.02249 11.9361 10.1323 11.107 10.9466C10.2788 11.76 9.16164 12.2129 8.00184 12.2143L8 12.2143C7.13392 12.2143 6.28513 11.9622 5.56082 11.4868C4.83621 11.0113 4.2673 10.3326 3.93024 9.53342C3.59306 8.73392 3.50439 7.85257 3.67666 7.00199C3.84889 6.15159 4.2733 5.37422 4.8919 4.76667C5.51021 4.1594 6.29473 3.74881 7.14486 3.58273C7.99486 3.41667 8.87619 3.50167 9.6785 3.82806C10.481 4.15455 11.1713 4.70922 11.659 5.42606C12.1469 6.14323 12.4091 6.9893 12.4091 7.85714ZM8 10.7143C7.42464 10.7143 6.86219 10.5467 6.3838 10.2328C5.9054 9.91882 5.53254 9.4726 5.31235 8.95052C5.09217 8.42845 5.03456 7.85397 5.14681 7.29974C5.25906 6.74551 5.53612 6.23642 5.94296 5.83684C6.34981 5.43726 6.86816 5.16514 7.43247 5.0549C7.99677 4.94466 8.58169 5.00124 9.11326 5.21749C9.64483 5.43374 10.0992 5.79994 10.4188 6.2698C10.7385 6.73965 10.9091 7.29205 10.9091 7.85714C10.9081 8.61461 10.6013 9.34079 10.056 9.8764C9.51062 10.412 8.77124 10.7133 8 10.7143Z" fill="#A09EAC"/>
</svg>
