<svg width="60" height="60" viewBox="0 0 60 60" fill="none" xmlns="http://www.w3.org/2000/svg">
<g clip-path="url(#clip0_435_915)">
<path d="M9.5957 49.0137V56.8916C9.5957 57.4159 10.0207 57.8409 10.545 57.8409C10.9492 57.8409 11.3091 57.585 11.4418 57.2032L14.2874 49.0137H9.5957Z" fill="#407093"/>
<path d="M12.0392 49.0137L9.5957 56.0457V56.8916C9.5957 57.4159 10.0207 57.8409 10.545 57.8409C10.9492 57.8409 11.3091 57.585 11.4418 57.2032L14.2874 49.0137H12.0392Z" fill="#365E7D"/>
<path d="M32.7637 49.0137L35.6093 57.2032C35.742 57.585 36.1019 57.8409 36.5061 57.8409C37.0304 57.8409 37.4554 57.4159 37.4554 56.8916V49.0137H32.7637Z" fill="#407093"/>
<path d="M35.3828 49.0137V56.5493L35.61 57.2032C35.7427 57.585 36.1026 57.8409 36.5068 57.8409C37.0311 57.8409 37.4561 57.4159 37.4561 56.8916V49.0137H35.3828Z" fill="#365E7D"/>
<path d="M56.6434 27.7999C57.8422 36.2307 56.1403 38.8153 53.638 39.1711C51.1357 39.5268 48.7807 37.5192 47.5818 29.0884C46.6445 22.4966 48.0403 12.4398 48.6937 8.36622C48.7847 7.79926 49.5536 7.68993 49.799 8.20907C51.5621 11.939 55.706 21.208 56.6434 27.7999Z" fill="#78D0B1"/>
<path d="M56.6438 27.7998C55.7064 21.208 51.5626 11.9389 49.7995 8.20911C49.5541 7.69008 48.7851 7.79942 48.6942 8.36625C48.537 9.34594 48.337 10.6722 48.1367 12.2125C50.07 16.6861 52.4837 22.9635 53.1714 27.7998C54.1523 34.6978 53.1911 37.6816 51.4386 38.7338C52.14 39.1697 52.8825 39.2786 53.6384 39.1711C56.1406 38.8152 57.8427 36.2305 56.6438 27.7998Z" fill="#66B49D"/>
<path d="M53.8979 40.7995C56.1542 47.2792 54.8338 49.7179 52.4469 50.549C50.06 51.3801 47.5106 50.2891 45.2543 43.8093C43.4839 38.7251 43.5465 30.3374 43.6556 26.9603C43.673 26.4251 44.3399 26.193 44.6858 26.6016C46.8689 29.1806 52.1276 35.7152 53.8979 40.7995Z" fill="#78D0B1"/>
<path d="M53.8979 40.7994C52.1275 35.7152 46.8688 29.1805 44.6858 26.6014C44.3398 26.1927 43.6729 26.4249 43.6556 26.9601C43.6281 27.8096 43.6036 28.9763 43.6106 30.3276C46.1065 33.4943 49.4813 38.2101 50.8306 42.0853C52.4892 46.8485 52.2138 49.4264 51.004 50.7889C51.489 50.8035 51.9712 50.7145 52.4468 50.5488C54.8337 49.7177 56.1542 47.2792 53.8979 40.7994Z" fill="#66B49D"/>
<path d="M58.8323 39.921C57.1352 48.2658 54.6652 50.1302 52.1884 49.6265C49.7117 49.1228 48.1661 46.4417 49.8632 38.097C51.1901 31.5723 55.8768 22.5657 57.8582 18.947C58.1339 18.4435 58.8951 18.5982 58.9521 19.1696C59.3628 23.2745 60.1592 33.3964 58.8323 39.921Z" fill="#86F1A7"/>
<path d="M58.9521 19.1694C58.8949 18.5981 58.1337 18.4433 57.858 18.9469C57.3819 19.8164 56.7494 20.9977 56.045 22.3802C56.3811 27.2663 56.583 34.1999 55.5859 39.1027C54.2514 45.6641 52.4391 48.2184 50.5215 48.7659C50.9921 49.2306 51.5601 49.4987 52.1881 49.6265C54.6649 50.1301 57.1348 48.2658 58.832 39.921C60.1591 33.3963 59.3627 23.2745 58.9521 19.1694Z" fill="#78D0B1"/>
<path d="M8.47441 47.0917L1.5218 41.2147C-0.136876 39.8127 -0.487149 37.3926 0.705936 35.5779C1.86551 33.814 4.13531 33.1548 6.0593 34.0231L14.1843 37.6902L16.9016 47.1007L8.47441 47.0917Z" fill="#F1D333"/>
<path d="M1.56094 34.8401L5.43715 36.5896C8.1327 37.8062 10.1586 40.1443 10.9791 42.9856L12.1658 47.0956L16.9009 47.1007L14.1836 37.6902L6.05859 34.0231C4.4652 33.304 2.6352 33.6334 1.39453 34.7695C1.4502 34.7919 1.50574 34.8152 1.56094 34.8401Z" fill="#E7A561"/>
<path d="M38.5756 47.0917L45.5282 41.2147C47.1869 39.8127 47.5372 37.3926 46.3441 35.5779C45.1845 33.814 42.9147 33.1548 40.9907 34.0231L32.8658 37.6902L30.1484 47.1007L38.5756 47.0917Z" fill="#F1D333"/>
<path d="M46.344 35.5777C45.9689 35.0072 45.4773 34.553 44.9192 34.2279C45.5261 35.8863 45.0587 37.7963 43.6579 38.9803L36.7053 44.8573L30.7944 44.8636L30.1484 47.1005L38.5755 47.0915L45.5281 41.2145C47.1867 39.8125 47.537 37.3926 46.344 35.5777Z" fill="#E7A561"/>
<path d="M35.9254 21.6468H31.5813C30.6453 21.6468 29.7588 21.2205 29.1801 20.4847C27.8632 18.8103 25.8199 17.7345 23.5243 17.7345C21.2287 17.7345 19.1854 18.8103 17.8685 20.4847C17.2898 21.2204 16.4033 21.6468 15.4673 21.6468H11.1232C8.80941 21.6468 6.93359 23.5225 6.93359 25.8364V27.1626C6.93359 29.8027 7.5848 32.4022 8.82957 34.7304L13.1889 42.8847H33.8594L38.2188 34.7304C39.4636 32.4022 40.1148 29.8027 40.1148 27.1626V25.8364C40.115 23.5225 38.2393 21.6468 35.9254 21.6468Z" fill="#F1D333"/>
<path d="M35.9266 21.6467H32.5931C34.907 21.6467 36.7827 23.5224 36.7827 25.8363V27.1625C36.7827 29.8026 36.1315 32.4021 34.8867 34.7304L30.5273 42.8846H33.8609L38.2202 34.7304C39.465 32.4021 40.1162 29.8026 40.1162 27.1625V25.8363C40.1162 23.5224 38.2405 21.6467 35.9266 21.6467Z" fill="#E7A561"/>
<path d="M37.4342 50.1501H9.61414C8.13371 50.1501 6.93359 48.95 6.93359 47.4696C6.93359 43.6828 10.0034 40.613 13.7901 40.613H33.2582C37.045 40.613 40.1148 43.6829 40.1148 47.4696C40.1148 48.9499 38.9146 50.1501 37.4342 50.1501Z" fill="#F6E266"/>
<path d="M36.7248 41.5543C37.2304 42.5101 37.518 43.599 37.518 44.7557C37.518 46.2361 36.3179 47.4362 34.8375 47.4362H7.01738C6.98961 47.4362 6.96207 47.4349 6.93453 47.4341C6.93453 47.4459 6.93359 47.4575 6.93359 47.4694C6.93359 48.9498 8.13371 50.1499 9.61414 50.1499H37.4342C38.9147 50.1499 40.1148 48.9498 40.1148 47.4694C40.1149 44.9476 38.7526 42.7453 36.7248 41.5543Z" fill="#F1D333"/>
<path d="M23.6074 29.2002C24.1758 29.2002 24.6366 28.7394 24.6366 28.171C24.6366 27.6025 24.1758 27.1417 23.6074 27.1417C23.0389 27.1417 22.5781 27.6025 22.5781 28.171C22.5781 28.7394 23.0389 29.2002 23.6074 29.2002Z" fill="#E7A561"/>
<path d="M17.4355 33.6707C18.004 33.6707 18.4648 33.2099 18.4648 32.6414C18.4648 32.073 18.004 31.6122 17.4355 31.6122C16.8671 31.6122 16.4062 32.073 16.4062 32.6414C16.4062 33.2099 16.8671 33.6707 17.4355 33.6707Z" fill="#E7A561"/>
<path d="M29.6152 33.6707C30.1836 33.6707 30.6445 33.2099 30.6445 32.6414C30.6445 32.073 30.1836 31.6122 29.6152 31.6122C29.0468 31.6122 28.5859 32.073 28.5859 32.6414C28.5859 33.2099 29.0468 33.6707 29.6152 33.6707Z" fill="#E7A561"/>
<path d="M17.4355 45.537C18.004 45.537 18.4648 45.0762 18.4648 44.5078C18.4648 43.9393 18.004 43.4785 17.4355 43.4785C16.8671 43.4785 16.4062 43.9393 16.4062 44.5078C16.4062 45.0762 16.8671 45.537 17.4355 45.537Z" fill="#F1D333"/>
<path d="M29.6152 45.537C30.1836 45.537 30.6445 45.0762 30.6445 44.5078C30.6445 43.9393 30.1836 43.4785 29.6152 43.4785C29.0468 43.4785 28.5859 43.9393 28.5859 44.5078C28.5859 45.0762 29.0468 45.537 29.6152 45.537Z" fill="#F1D333"/>
<path d="M37.0498 16.8345C40.9885 16.8345 44.1816 13.6415 44.1816 9.70272C44.1816 5.76394 40.9885 2.57092 37.0498 2.57092C33.111 2.57092 29.918 5.76394 29.918 9.70272C29.918 13.6415 33.111 16.8345 37.0498 16.8345Z" fill="#F6F1F1"/>
<path d="M40.6334 3.53735C41.2467 4.59052 41.5998 5.81396 41.5998 7.1206C41.5998 11.0594 38.4068 14.2524 34.468 14.2524C33.1614 14.2524 31.9379 13.8993 30.8848 13.2859C32.1205 15.4075 34.418 16.8345 37.0501 16.8345C40.9889 16.8345 44.1819 13.6415 44.1819 9.7027C44.1819 7.07056 42.7549 4.7731 40.6334 3.53735Z" fill="#E2DFE2"/>
<path d="M37.0496 17.7114C32.6336 17.7114 29.041 14.1188 29.041 9.70281C29.041 5.28683 32.6336 1.69421 37.0496 1.69421C41.4656 1.69421 45.0582 5.28683 45.0582 9.70281C45.0582 14.1188 41.4657 17.7114 37.0496 17.7114ZM37.0496 3.44757C33.6005 3.44757 30.7945 6.25363 30.7945 9.70269C30.7945 13.1518 33.6005 15.9578 37.0496 15.9578C40.4987 15.9578 43.3047 13.1518 43.3047 9.70269C43.3047 6.25363 40.4988 3.44757 37.0496 3.44757Z" fill="#407093"/>
<path d="M39.5456 13.0764C39.3212 13.0764 39.0968 12.9908 38.9257 12.8197L36.6684 10.5624C36.3482 10.2424 36.1719 9.81676 36.1719 9.36383V7.21859C36.1719 6.73437 36.5645 6.3418 37.0487 6.3418C37.5329 6.3418 37.9255 6.73437 37.9255 7.21859V9.33957L40.1656 11.5797C40.508 11.9221 40.508 12.4773 40.1656 12.8197C39.9943 12.9909 39.77 13.0764 39.5456 13.0764Z" fill="#2B4D66"/>
<path d="M43.8782 48.5261C43.7356 49.2229 43.6817 49.9521 43.7304 50.7017C43.9987 54.8268 47.3829 58.1294 51.5133 58.299C56.1671 58.49 59.9999 54.7739 59.9999 50.1625C59.9999 49.6017 59.9428 49.0543 59.8345 48.5255C59.7343 48.036 59.3024 47.6851 58.8029 47.6851H44.9099C44.4101 47.6851 43.9785 48.0364 43.8782 48.5261Z" fill="#407093"/>
<path d="M59.8355 48.5255C59.7353 48.036 59.3035 47.6851 58.8039 47.6851H57.4197C57.4396 47.9169 57.452 48.1509 57.452 48.3878C57.452 52.9992 53.6192 56.7154 48.9654 56.5243C47.9293 56.4817 46.9401 56.2419 46.0352 55.8414C47.4442 57.2847 49.3787 58.2112 51.5143 58.2989C56.168 58.4899 60.0009 54.7737 60.0009 50.1624C60.001 49.6017 59.9438 49.0543 59.8355 48.5255Z" fill="#365E7D"/>
<path d="M44.0817 52.5842H59.6327C59.8072 52.0233 59.9212 51.4362 59.9704 50.8306H43.7422C43.7913 51.4358 43.9059 52.0231 44.0817 52.5842Z" fill="#365E7D"/>
<path d="M56.2852 52.5842H59.632C59.8065 52.0233 59.9205 51.4362 59.9698 50.8306H57.077C56.8825 51.4506 56.6145 52.0378 56.2852 52.5842Z" fill="#2B4D66"/>
</g>
<defs>
<clipPath id="clip0_435_915">
<rect width="60" height="60" fill="white"/>
</clipPath>
</defs>
</svg>
