<svg width="20" height="20" viewBox="0 0 20 20" fill="none" xmlns="http://www.w3.org/2000/svg">
<g opacity="0.6">
<path d="M2.65345 7.11728C2.88347 7.2796 3.57683 7.76167 4.73357 8.56325C5.89034 9.36483 6.7765 9.98202 7.3921 10.4149C7.45973 10.4623 7.60342 10.5655 7.82324 10.7244C8.04309 10.8835 8.22577 11.0121 8.37113 11.1101C8.5166 11.2081 8.69245 11.3181 8.89887 11.4398C9.10522 11.5614 9.29973 11.6529 9.48238 11.7135C9.66505 11.7745 9.83415 11.8048 9.98972 11.8048H9.99992H10.0102C10.1657 11.8048 10.3349 11.7745 10.5176 11.7135C10.7001 11.6529 10.8948 11.5613 11.101 11.4398C11.3073 11.318 11.4831 11.2081 11.6286 11.1101C11.7741 11.0121 11.9566 10.8835 12.1765 10.7244C12.3963 10.5653 12.5402 10.4623 12.6078 10.4149C13.23 9.98202 14.8131 8.88272 17.3565 7.11707C17.8503 6.77222 18.2629 6.35611 18.5943 5.86903C18.926 5.38216 19.0916 4.87141 19.0916 4.33706C19.0916 3.89053 18.9309 3.50829 18.6095 3.19038C18.2882 2.8724 17.9076 2.7135 17.4681 2.7135H2.53166C2.01081 2.7135 1.60999 2.88936 1.32925 3.24106C1.04855 3.59284 0.908203 4.03255 0.908203 4.56015C0.908203 4.98631 1.09429 5.44813 1.4663 5.9453C1.83826 6.44251 2.23411 6.83321 2.65345 7.11728Z" fill="#EE930A"/>
<path d="M18.0768 8.2027C15.8582 9.70432 14.1736 10.8713 13.0238 11.7035C12.6382 11.9875 12.3254 12.2092 12.0852 12.368C11.845 12.527 11.5255 12.6894 11.1263 12.855C10.7272 13.0209 10.3554 13.1036 10.0103 13.1036H9.99995H9.98975C9.64476 13.1036 9.27265 13.0209 8.8736 12.855C8.47455 12.6894 8.15487 12.527 7.91472 12.368C7.67464 12.2092 7.36174 11.9875 6.9762 11.7035C6.06292 11.0338 4.38193 9.86674 1.93315 8.2027C1.54747 7.94581 1.20585 7.65136 0.908203 7.31995V15.3764C0.908203 15.8232 1.0671 16.2052 1.38508 16.5231C1.70299 16.8412 2.08527 17.0002 2.53176 17.0002H17.4682C17.9146 17.0002 18.2968 16.8412 18.6148 16.5231C18.9328 16.2051 19.0917 15.8232 19.0917 15.3764V7.31995C18.8007 7.6445 18.4626 7.93895 18.0768 8.2027Z" fill="#EE930A"/>
</g>
</svg>
