<svg width="60" height="60" viewBox="0 0 60 60" fill="none" xmlns="http://www.w3.org/2000/svg">
<g clip-path="url(#clip0_435_1187)">
<path d="M3.55664 24.0862H54.6323V57.5855H3.55664V24.0862Z" fill="#BD80E1"/>
<path d="M20.4121 24.0862H39.5887V39.5883H20.4121V24.0862Z" fill="#6354B1"/>
<path d="M30.0004 30C24.7049 30 20.4121 34.2928 20.4121 39.5883V55.1711H39.5887V39.5883C39.5887 34.2928 35.2959 30 30.0004 30Z" fill="#FEC165"/>
<path d="M30.0004 30C29.381 30 28.7761 30.0609 28.1895 30.1731C32.6187 31.02 35.9668 34.9121 35.9668 39.5883V55.1711H39.5885V39.5883C39.5886 34.2928 35.2958 30 30.0004 30Z" fill="#FEA613"/>
<path d="M29.9991 30C29.6936 30 29.3919 30.0158 29.0938 30.0438V55.1711H30.9046V30.0438C30.6064 30.0158 30.3046 30 29.9991 30Z" fill="#6354B1"/>
<path d="M29.9991 30C29.6936 30 29.3919 30.0158 29.0938 30.0438V30.3942C29.7269 30.5809 30.3334 30.83 30.9046 31.1365V30.0437C30.6064 30.0158 30.3046 30 29.9991 30Z" fill="#463B84"/>
<path d="M52.8223 24.0862H56.4439V57.5855H52.8223V24.0862Z" fill="#9857BD"/>
<path d="M44.7521 50.1298H50.0709C50.4043 50.1298 50.6745 49.8596 50.6745 49.5262V32.1456C50.6745 31.8122 50.4043 31.542 50.0709 31.542H44.7521C44.4187 31.542 44.1484 31.8122 44.1484 32.1456V35.2836L45.3557 36.1889L44.1484 37.0943V49.5262C44.1484 49.8596 44.4188 50.1298 44.7521 50.1298Z" fill="#FEC165"/>
<path d="M51.2786 31.542H48.502C48.8354 31.542 49.1056 31.8122 49.1056 32.1456V49.5262C49.1056 49.8596 48.8354 50.1298 48.502 50.1298H51.2786C51.612 50.1298 51.8822 49.8596 51.8822 49.5262V37.0943L50.675 36.1889L51.8822 35.2836V32.1456C51.8822 31.8122 51.6119 31.542 51.2786 31.542Z" fill="#FEA613"/>
<path d="M44.1484 37.0943H49.105L50.3123 36.189L49.105 35.2836H44.1484V37.0943Z" fill="#B0C3CB"/>
<path d="M49.1055 35.2836H51.8821V37.0945H49.1055V35.2836Z" fill="#C8EFFE"/>
<path d="M8.72082 50.1298H14.0396C14.373 50.1298 14.6432 49.8596 14.6432 49.5262V32.1456C14.6432 31.8122 14.373 31.542 14.0396 31.542H8.72082C8.38742 31.542 8.11719 31.8122 8.11719 32.1456V35.2836L9.32445 36.1889L8.11719 37.0943V49.5262C8.11719 49.8596 8.38742 50.1298 8.72082 50.1298Z" fill="#FEC165"/>
<path d="M15.2473 31.542H12.4707C12.8041 31.542 13.0743 31.8122 13.0743 32.1456V49.5262C13.0743 49.8596 12.8041 50.1298 12.4707 50.1298H15.2473C15.5807 50.1298 15.851 49.8596 15.851 49.5262V37.0943L14.6437 36.1889L15.851 35.2836V32.1456C15.851 31.8122 15.5806 31.542 15.2473 31.542Z" fill="#FEA613"/>
<path d="M8.11719 37.0943H13.0738L14.281 36.189L13.0738 35.2836H8.11719V37.0943Z" fill="#B0C3CB"/>
<path d="M13.0742 35.2836H15.8509V37.0945H13.0742V35.2836Z" fill="#C8EFFE"/>
<path d="M54.0288 22.5639V13.8339C54.0288 12.8338 53.2181 12.023 52.2179 12.023H44.4162C42.5892 5.10257 37.4945 0.120693 30 0.120693C29.3878 0.120693 28.7836 0.0339745 28.1891 0.100303C21.5059 0.845732 16.0543 5.66788 14.3767 12.023H5.36754C4.36746 12.023 3.55664 12.8337 3.55664 13.8339V17.903L54.0288 22.5639Z" fill="#BD80E1"/>
<path d="M52.8214 17.903H3.55664V21.6717L52.8214 22.879L54.0287 19.4688L52.8214 17.903Z" fill="#FD3581"/>
<path d="M42.9046 12.023H45.6238C43.7967 5.10258 37.4948 0 30.0004 0C29.388 0 28.7841 0.0346875 28.1895 0.101016C34.5763 0.813398 39.8384 5.24836 41.7567 11.187C41.9177 11.6851 42.381 12.023 42.9046 12.023Z" fill="#9857BD"/>
<path d="M54.6334 12.0229H51.0117C52.0118 12.0229 52.8226 12.8337 52.8226 13.8338V22.5638L56.4443 17.9029V13.8338C56.4442 12.8338 55.6335 12.0229 54.6334 12.0229Z" fill="#9857BD"/>
<path d="M56.4439 17.903H52.8223V22.879L56.4439 21.6717V17.903Z" fill="#E30256"/>
<path d="M58.1891 55.171H0.603633C0.270234 55.171 0 55.4413 0 55.7747V59.3963C0 59.7297 0.270234 60 0.603633 60H58.1891C58.5225 60 58.7927 59.7297 58.7927 59.3963V55.7747C58.7927 55.4413 58.5225 55.171 58.1891 55.171Z" fill="#B0C3CB"/>
<path d="M58.1891 21.6718H0.603633C0.270234 21.6718 0 21.942 0 22.2754V25.8972C0 26.2306 0.270234 26.5008 0.603633 26.5008H58.1891C58.5225 26.5008 58.7927 26.2306 58.7927 25.8972V22.2754C58.7927 21.942 58.5225 21.6718 58.1891 21.6718Z" fill="#B0C3CB"/>
<path d="M59.3971 55.171H55.7754C56.1088 55.171 56.379 55.4413 56.379 55.7747V59.3963C56.379 59.7297 56.1088 60 55.7754 60H59.3971C59.7305 60 60.0007 59.7297 60.0007 59.3963V55.7747C60.0007 55.4413 59.7305 55.171 59.3971 55.171Z" fill="#C8EFFE"/>
<path d="M59.3971 21.6718H55.7754C56.1088 21.6718 56.379 21.942 56.379 22.2754V25.8972C56.379 26.2306 56.1088 26.5008 55.7754 26.5008H59.3971C59.7305 26.5008 60.0007 26.2306 60.0007 25.8972V22.2754C60.0007 21.942 59.7305 21.6718 59.3971 21.6718Z" fill="#C8EFFE"/>
<path d="M33.1827 45.512C32.6827 45.512 32.2773 45.1066 32.2773 44.6066V42.5856C32.2773 42.0855 32.6827 41.6802 33.1827 41.6802C33.6828 41.6802 34.0881 42.0855 34.0881 42.5856V44.6066C34.0882 45.1065 33.6829 45.512 33.1827 45.512Z" fill="#6354B1"/>
<path d="M26.8175 45.512C26.3175 45.512 25.9121 45.1066 25.9121 44.6066V42.5856C25.9121 42.0855 26.3175 41.6802 26.8175 41.6802C27.3175 41.6802 27.7229 42.0855 27.7229 42.5856V44.6066C27.7229 45.1065 27.3175 45.512 26.8175 45.512Z" fill="#6354B1"/>
<path d="M29.6886 12.9055L27.3151 14.1533C26.8243 14.4113 26.2508 13.9946 26.3445 13.4482L26.7978 10.8051C26.8351 10.5881 26.7631 10.3667 26.6054 10.2131L24.6852 8.34138C24.2881 7.95443 24.5073 7.28013 25.0559 7.20045L27.7096 6.81478C27.9275 6.78314 28.1159 6.64627 28.2133 6.4488L28.7927 5.27482C29.0381 4.77759 30.4864 4.389 30.7318 4.88611L31.7866 6.56951C31.884 6.76697 32.0724 6.90384 32.2903 6.93548L33.7367 7.20033C34.2854 7.28002 34.5045 7.95431 34.1075 8.34127L32.1873 10.213C32.0296 10.3666 31.9577 10.5881 31.9948 10.805C32.0886 11.3515 31.7214 13.6467 31.2308 13.3888L30.3113 12.9054C30.1162 12.8031 29.8835 12.8031 29.6886 12.9055Z" fill="#FEC165"/>
<path d="M35.3149 8.34145C35.712 7.9545 35.4929 7.2802 34.9443 7.2004L32.2905 6.81473C32.0727 6.78309 31.8843 6.64622 31.7869 6.44887L30.6001 4.04418C30.3547 3.54696 29.6457 3.54696 29.4004 4.04418L28.793 5.27489L29.3723 6.44887C29.4697 6.64633 29.6582 6.78309 29.876 6.81473L32.5297 7.2004C33.0784 7.28008 33.2974 7.95438 32.9005 8.34145L30.9803 10.2132C30.8227 10.3668 30.7507 10.5883 30.7879 10.8052L31.2309 13.389L32.685 14.1534C33.1758 14.4114 33.7493 13.9947 33.6555 13.4482L33.2023 10.8052C33.165 10.5882 33.237 10.3668 33.3947 10.2132L35.3149 8.34145Z" fill="#FEA613"/>
</g>
<defs>
<clipPath id="clip0_435_1187">
<rect width="60" height="60" fill="white"/>
</clipPath>
</defs>
</svg>
