<svg width="16" height="16" viewBox="0 0 16 16" fill="none" xmlns="http://www.w3.org/2000/svg">
<g clip-path="url(#clip0_24_1526)">
<path d="M14.2684 0H4.73301C4.62148 0 4.51453 0.0443031 4.43566 0.123163C4.3568 0.202023 4.3125 0.30898 4.3125 0.420505C4.3125 0.53203 4.3568 0.638987 4.43566 0.717847C4.51453 0.796707 4.62148 0.84101 4.73301 0.84101H14.2684C14.5045 0.841243 14.7309 0.935125 14.8978 1.10206C15.0648 1.26899 15.1587 1.49534 15.159 1.73144V11.267C15.159 11.3785 15.2033 11.4855 15.2821 11.5643C15.361 11.6432 15.468 11.6875 15.5795 11.6875C15.691 11.6875 15.798 11.6432 15.8768 11.5643C15.9557 11.4855 16 11.3785 16 11.267V1.73144C15.9995 1.27236 15.8169 0.832243 15.4923 0.507643C15.1676 0.183043 14.7275 0.000475629 14.2684 0Z" fill="#444156"/>
<path d="M14.5639 12.6552C14.4836 12.5786 14.377 12.5359 14.2662 12.5359C14.1553 12.5359 14.0487 12.5786 13.9685 12.6552C13.9293 12.6942 13.8983 12.7407 13.8772 12.7918C13.856 12.8429 13.8451 12.8976 13.8451 12.9529C13.8451 13.0082 13.856 13.063 13.8772 13.1141C13.8983 13.1652 13.9293 13.2116 13.9685 13.2507L14.5625 13.8447H3.04616C2.80979 13.8445 2.5832 13.7504 2.41607 13.5832C2.24895 13.416 2.15495 13.1893 2.1547 12.9529V1.43376L2.74846 2.0278C2.82867 2.10436 2.93529 2.14708 3.04616 2.14708C3.15703 2.14708 3.26365 2.10436 3.34386 2.0278C3.38297 1.9887 3.41399 1.94228 3.43516 1.89119C3.45632 1.8401 3.46722 1.78533 3.46722 1.73003C3.46722 1.67472 3.45632 1.61996 3.43516 1.56886C3.41399 1.51777 3.38297 1.47135 3.34386 1.43225L2.03134 0.119273C1.95113 0.0427141 1.84452 0 1.73364 0C1.62277 0 1.51616 0.0427141 1.43594 0.119273L0.123151 1.43225C0.0442911 1.51128 0 1.61837 0 1.73003C0 1.84168 0.0442911 1.94878 0.123151 2.0278C0.203366 2.10436 0.309979 2.14708 0.420852 2.14708C0.531725 2.14708 0.638338 2.10436 0.718553 2.0278L1.31258 1.43376V12.9529C1.31308 13.4127 1.49588 13.8534 1.82088 14.1785C2.14588 14.5036 2.58653 14.6865 3.04616 14.6871H14.5625L13.9685 15.2811C13.9294 15.3202 13.8983 15.3666 13.8772 15.4177C13.856 15.4688 13.8451 15.5236 13.8451 15.5789C13.8451 15.6342 13.856 15.6889 13.8772 15.74C13.8983 15.7911 13.9294 15.8376 13.9684 15.8767C14.0075 15.9158 14.054 15.9468 14.105 15.9679C14.1561 15.9891 14.2109 16 14.2662 16C14.3214 16 14.3762 15.9891 14.4273 15.9679C14.4783 15.9468 14.5248 15.9158 14.5639 15.8767L15.8766 14.5637C15.9158 14.5246 15.9468 14.4782 15.9679 14.4271C15.9891 14.376 16 14.3212 16 14.2659C16 14.2106 15.9891 14.1558 15.9679 14.1047C15.9468 14.0536 15.9158 14.0072 15.8766 13.9681L14.5639 12.6552Z" fill="#444156"/>
</g>
<defs>
<clipPath id="clip0_24_1526">
<rect width="16" height="16" fill="white"/>
</clipPath>
</defs>
</svg>
