<svg width="16" height="16" viewBox="0 0 16 16" fill="none" xmlns="http://www.w3.org/2000/svg">
<path d="M13.9688 0.9375H15.0625V2.03125C15.0625 2.29031 15.2722 2.5 15.5312 2.5C15.7903 2.5 16 2.29031 16 2.03125V0.46875C16 0.209875 15.7901 0 15.5312 0H13.9688C13.7099 0 13.5 0.209875 13.5 0.46875C13.5 0.727625 13.7099 0.9375 13.9688 0.9375Z" fill="#444156"/>
<path d="M15.0625 6.01025V9.98963C15.0625 10.2481 15.2728 10.4584 15.5312 10.4584C15.7897 10.4584 16 10.2481 16 9.98963V6.01025C16 5.75182 15.7897 5.5415 15.5312 5.5415C15.2728 5.5415 15.0625 5.75182 15.0625 6.01025Z" fill="#444156"/>
<path d="M15.0625 13.9688V15.0625H13.9688C13.9526 15.0625 13.9366 15.0633 13.9208 15.0649C13.9128 15.0657 13.905 15.0673 13.8971 15.0685C13.8895 15.0697 13.8817 15.0705 13.8743 15.072C13.8656 15.0738 13.8573 15.0763 13.8488 15.0786C13.8423 15.0803 13.8357 15.0816 13.8294 15.0835C13.8223 15.0857 13.8156 15.0886 13.8087 15.0911C13.8012 15.0938 13.7936 15.0962 13.7863 15.0993C13.7823 15.101 13.7785 15.1032 13.7746 15.105C13.7647 15.1095 13.7548 15.1139 13.7453 15.119C13.7444 15.1196 13.7435 15.1202 13.7426 15.1207C13.6112 15.1932 13.5183 15.3267 13.5024 15.4833C13.5008 15.4991 13.5 15.5151 13.5 15.5312C13.5 15.7901 13.7099 16 13.9688 16H15.5312C15.7901 16 16 15.7901 16 15.5312V13.9688C16 13.7099 15.7901 13.5 15.5312 13.5C15.2724 13.5 15.0625 13.7099 15.0625 13.9688Z" fill="#444156"/>
<path d="M9.98969 15.0624H8.08869V8.38C8.08869 8.12113 7.87881 7.91125 7.61994 7.91125H0.9375V6.01025C0.9375 5.75182 0.727188 5.5415 0.46875 5.5415C0.210312 5.5415 0 5.75182 0 6.01025V15.5312C0 15.7901 0.209875 15.9999 0.46875 15.9999H9.98969C10.2481 15.9999 10.4584 15.7896 10.4584 15.5312C10.4584 15.2728 10.2481 15.0624 9.98969 15.0624Z" fill="#444156"/>
<path d="M0.9375 2.03125V0.9375H2.03125C2.29012 0.9375 2.5 0.727625 2.5 0.46875C2.5 0.209875 2.29012 0 2.03125 0H0.46875C0.209875 0 0 0.209875 0 0.46875V2.03125C0 2.29012 0.209875 2.5 0.46875 2.5C0.727625 2.5 0.9375 2.29012 0.9375 2.03125Z" fill="#444156"/>
<path d="M6.01025 0.9375H9.98963C10.2481 0.9375 10.4584 0.727188 10.4584 0.46875C10.4584 0.210312 10.2481 0 9.98963 0H6.01025C5.75182 0 5.5415 0.210312 5.5415 0.46875C5.5415 0.727188 5.75182 0.9375 6.01025 0.9375Z" fill="#444156"/>
<path d="M8.90538 6.43177C8.81385 6.5233 8.76807 6.64327 8.76807 6.76321C8.76807 6.88315 8.81382 7.00315 8.90538 7.09465C9.08844 7.27771 9.38522 7.27771 9.56829 7.09465L12.8135 3.8494V4.92674C12.8135 5.18562 13.0234 5.39549 13.2823 5.39549C13.5412 5.39549 13.751 5.18562 13.751 4.92674V2.71777C13.751 2.4589 13.5412 2.24902 13.2823 2.24902H11.0733C10.8144 2.24902 10.6045 2.4589 10.6045 2.71777C10.6045 2.97665 10.8144 3.18652 11.0733 3.18652H12.1506L8.90538 6.43177Z" fill="#444156"/>
</svg>
