<svg width="20" height="20" viewBox="0 0 20 20" fill="none" xmlns="http://www.w3.org/2000/svg">
<path d="M17.4609 1.17188H18.8281V2.53906C18.8281 2.86289 19.0902 3.125 19.4141 3.125C19.7379 3.125 20 2.86289 20 2.53906V0.585938C20 0.262344 19.7377 0 19.4141 0H17.4609C17.1373 0 16.875 0.262344 16.875 0.585938C16.875 0.909531 17.1373 1.17188 17.4609 1.17188Z" fill="#110C30"/>
<path d="M18.8281 7.51294V12.4872C18.8281 12.8102 19.091 13.0731 19.4141 13.0731C19.7371 13.0731 20 12.8102 20 12.4872V7.51294C20 7.18989 19.7371 6.927 19.4141 6.927C19.091 6.927 18.8281 7.18989 18.8281 7.51294Z" fill="#110C30"/>
<path d="M18.8281 17.4609V18.8281H17.4609C17.4407 18.8281 17.4207 18.8291 17.4011 18.8311C17.391 18.8321 17.3812 18.8341 17.3713 18.8357C17.3618 18.8371 17.3522 18.8381 17.3429 18.84C17.332 18.8422 17.3216 18.8454 17.3109 18.8482C17.3029 18.8503 17.2946 18.852 17.2868 18.8544C17.2779 18.8571 17.2695 18.8607 17.2608 18.8639C17.2515 18.8673 17.242 18.8703 17.2329 18.8741C17.2279 18.8763 17.2232 18.8789 17.2182 18.8812C17.2059 18.8868 17.1935 18.8924 17.1817 18.8988C17.1805 18.8995 17.1794 18.9002 17.1782 18.9009C17.0141 18.9915 16.8979 19.1584 16.878 19.3541C16.876 19.3739 16.875 19.3938 16.875 19.4141C16.875 19.7377 17.1373 20 17.4609 20H19.4141C19.7377 20 20 19.7377 20 19.4141V17.4609C20 17.1373 19.7377 16.875 19.4141 16.875C19.0905 16.875 18.8281 17.1373 18.8281 17.4609Z" fill="#110C30"/>
<path d="M12.4871 18.8282H10.1109V10.4751C10.1109 10.1515 9.84852 9.88919 9.52492 9.88919H1.17188V7.51294C1.17188 7.18989 0.908984 6.927 0.585938 6.927C0.262891 6.927 0 7.18989 0 7.51294V19.4141C0 19.7377 0.262344 20 0.585938 20H12.4871C12.8102 20 13.073 19.7372 13.073 19.4141C13.073 19.0911 12.8102 18.8282 12.4871 18.8282Z" fill="#110C30"/>
<path d="M1.17188 2.53906V1.17188H2.53906C2.86266 1.17188 3.125 0.909531 3.125 0.585938C3.125 0.262344 2.86266 0 2.53906 0H0.585938C0.262344 0 0 0.262344 0 0.585938V2.53906C0 2.86266 0.262344 3.125 0.585938 3.125C0.909531 3.125 1.17188 2.86266 1.17188 2.53906Z" fill="#110C30"/>
<path d="M7.5127 1.17188H12.4869C12.81 1.17188 13.0729 0.908984 13.0729 0.585938C13.0729 0.262891 12.81 0 12.4869 0H7.5127C7.18965 0 6.92676 0.262891 6.92676 0.585938C6.92676 0.908984 7.18965 1.17188 7.5127 1.17188Z" fill="#110C30"/>
</svg>
