<svg width="60" height="60" viewBox="0 0 60 60" fill="none" xmlns="http://www.w3.org/2000/svg">
<g clip-path="url(#clip0_435_979)">
<path d="M58.9993 53.9981C57.3425 53.9981 55.9995 52.6551 55.9995 50.9983C55.9995 50.4461 55.5518 49.9984 54.9996 49.9984C54.4474 49.9984 53.9997 50.4461 53.9997 50.9983C53.9997 52.6551 52.6567 53.9981 50.9999 53.9981C50.4477 53.9981 50 54.4458 50 54.998C50 55.5502 50.4477 55.9979 50.9999 55.9979C52.6567 55.9979 53.9997 57.341 53.9997 58.9977C53.9997 59.5499 54.4474 59.9976 54.9996 59.9976C55.5518 59.9976 55.9995 59.5499 55.9995 58.9977C55.9995 57.341 57.3425 55.9979 58.9993 55.9979C59.5515 55.9979 59.9992 55.5502 59.9992 54.998C59.9992 54.4458 59.5515 53.9981 58.9993 53.9981ZM54.9996 56.0289C54.7084 55.6367 54.361 55.2892 53.9687 54.998C54.3609 54.7068 54.7084 54.3594 54.9996 53.9671C55.2908 54.3593 55.6382 54.7068 56.0305 54.998C55.6382 55.2892 55.2908 55.6366 54.9996 56.0289Z" fill="#E97424"/>
<path d="M9.00319 4.002C7.34645 4.002 6.00343 2.65898 6.00343 1.00224C6.00343 0.450034 5.55572 0.00231934 5.00351 0.00231934C4.4513 0.00231934 4.00359 0.450034 4.00359 1.00224C4.00359 2.65898 2.66057 4.002 1.00383 4.002C0.451621 4.002 0.00390625 4.44972 0.00390625 5.00192C0.00390625 5.55413 0.451621 6.00184 1.00383 6.00184C2.66057 6.00184 4.00359 7.34486 4.00359 9.00161C4.00359 9.55381 4.4513 10.0015 5.00351 10.0015C5.55572 10.0015 6.00343 9.55381 6.00343 9.00161C6.00343 7.34486 7.34645 6.00184 9.00319 6.00184C9.5554 6.00184 10.0031 5.55413 10.0031 5.00192C10.0031 4.44972 9.55552 4.002 9.00319 4.002ZM5.00351 6.03284C4.71228 5.64062 4.36481 5.29315 3.97259 5.00192C4.36481 4.7107 4.71228 4.36322 5.00351 3.97101C5.29474 4.36322 5.64221 4.7107 6.03443 5.00192C5.64221 5.29315 5.29486 5.6405 5.00351 6.03284Z" fill="#7FCAC9"/>
<path d="M8.7041 33.1676L26.5627 35.4088L25.8156 41.3617L7.95703 39.1205L8.7041 33.1676Z" fill="#FCF05A"/>
<path d="M24.221 17.053C21.7485 19.1357 18.0684 18.8762 15.9127 16.467C14.5058 17.8312 12.3082 17.9486 10.7641 16.742L8.70312 33.1667L26.5617 35.4085L28.6016 19.1868C26.8041 19.8004 24.8486 18.847 24.2249 17.053H24.221Z" fill="#FDBD40"/>
<path d="M27.9383 12.4014C27.4096 12.3378 26.8733 12.3974 26.3715 12.5754C26.4392 9.26266 23.8087 6.52213 20.4959 6.45439C18.093 6.40526 15.8927 7.79478 14.9044 9.98561C14.5183 9.79225 14.1032 9.66363 13.6755 9.60464C11.4853 9.31691 9.47655 10.859 9.18883 13.0492C8.9011 15.2394 10.4432 17.2482 12.6334 17.5359C13.8317 17.6934 15.037 17.3005 15.9123 16.4671C18.068 18.8763 21.7481 19.1358 24.2206 17.053C24.8748 18.8683 26.8768 19.8095 28.692 19.1553C30.5073 18.5011 31.4484 16.4991 30.7942 14.6839C30.3479 13.446 29.2441 12.5637 27.9383 12.4014Z" fill="#FCF05A"/>
<path d="M8.7041 33.1667L2.75157 32.4198C1.65566 32.2825 0.87847 31.2828 1.01571 30.1869L2.3856 19.2728C2.52334 18.1773 3.52289 17.4007 4.61842 17.5379L10.572 18.2849L10.072 22.2536L6.10331 21.7536L5.23338 28.7001L9.20206 29.2L8.7041 33.1667Z" fill="#E97424"/>
<path d="M41.5648 41.2751L54.2008 39.0343L47.9203 34.6496L47.3453 31.4079L53.6448 16.3241C53.8586 15.8149 53.619 15.2288 53.1097 15.0152C52.9314 14.9403 52.7353 14.9188 52.5449 14.9532L34.8273 18.1009C34.2836 18.1974 33.921 18.7165 34.0175 19.2602C34.051 19.449 34.1381 19.6241 34.2684 19.7648L45.3755 31.7639L45.9504 34.9996L41.5648 41.2751Z" fill="#E9686A"/>
<path d="M48.0016 0.00231934V8.18567C47.6814 8.06718 47.3432 8.00506 47.0017 8.00169C45.345 8.00169 44.002 9.3447 44.002 11.0014C44.002 12.6582 45.345 14.0012 47.0017 14.0012C48.6585 14.0012 50.0015 12.6582 50.0015 11.0014V6.00184H58.0008V8.18567C57.6806 8.06718 57.3424 8.00506 57.0009 8.00169C55.3442 8.00169 54.0012 9.3447 54.0012 11.0014C54.0012 12.6582 55.3442 14.0012 57.0009 14.0012C58.6577 14.0012 60.0007 12.6582 60.0007 11.0014V0.00231934H48.0016ZM50.0015 2.00216H58.0008V4.002H50.0015V2.00216Z" fill="#238892"/>
<path d="M7.00351 43.9989H6.00359V54.1821C5.68336 54.0636 5.34514 54.0015 5.00367 53.9981C3.34692 53.9981 2.00391 55.3411 2.00391 56.9979C2.00391 58.6546 3.34692 59.9976 5.00367 59.9976C6.66041 59.9976 8.00343 58.6546 8.00343 56.9979V46.0697C10.3295 46.2503 12.5356 47.1744 14.2959 48.7055L15.7098 47.2916C12.4551 44.0369 7.22449 43.9989 7.00351 43.9989Z" fill="#E9686A"/>
<path d="M35.0018 48.9986C36.1063 48.9986 37.0016 48.1032 37.0016 46.9987C37.0016 45.8943 36.1063 44.9989 35.0018 44.9989C33.8973 44.9989 33.002 45.8943 33.002 46.9987C33.002 48.1032 33.8973 48.9986 35.0018 48.9986Z" fill="#FCF05A"/>
<path d="M32.0018 38.9993C33.1063 38.9993 34.0016 38.104 34.0016 36.9995C34.0016 35.895 33.1063 34.9996 32.0018 34.9996C30.8973 34.9996 30.002 35.895 30.002 36.9995C30.002 38.104 30.8973 38.9993 32.0018 38.9993Z" fill="#FCF05A"/>
<path d="M30.0018 7.00188C31.1063 7.00188 32.0016 6.10652 32.0016 5.00204C32.0016 3.89756 31.1063 3.0022 30.0018 3.0022C28.8973 3.0022 28.002 3.89756 28.002 5.00204C28.002 6.10652 28.8973 7.00188 30.0018 7.00188Z" fill="#FCF05A"/>
<path d="M36.0225 9.00167C35.4703 9.00442 35.0203 8.55896 35.0176 8.00675C35.0148 7.45454 35.4603 7.00458 36.0125 7.00183H36.0225C36.5747 7.00183 37.0224 7.44955 37.0224 8.00175C37.0224 8.55396 36.5747 9.00167 36.0225 9.00167Z" fill="#E97424"/>
<path d="M13.0245 29.0001C12.4723 29.0028 12.0223 28.5574 12.0195 28.0052C12.0168 27.453 12.4623 27.003 13.0145 27.0002H13.0245C13.5767 27.0002 14.0244 27.448 14.0244 28.0002C14.0244 28.5524 13.5767 29.0001 13.0245 29.0001Z" fill="#FCF05A"/>
<path d="M16.0245 26.0003C15.4723 26.0031 15.0223 25.5576 15.0195 25.0054C15.0168 24.4532 15.4623 24.0032 16.0145 24.0005H16.0245C16.5767 24.0005 17.0244 24.4482 17.0244 25.0004C17.0244 25.5526 16.5767 26.0003 16.0245 26.0003Z" fill="#FCF05A"/>
<path d="M15.0245 31.9998C14.4723 32.0026 14.0223 31.5571 14.0195 31.0049C14.0168 30.4527 14.4623 30.0027 15.0145 30H15.0245C15.5767 30 16.0244 30.4477 16.0244 30.9999C16.0244 31.5521 15.5767 31.9998 15.0245 31.9998Z" fill="#FCF05A"/>
<path d="M23.0245 31.9998C22.4723 32.0026 22.0223 31.5571 22.0195 31.0049C22.0168 30.4527 22.4623 30.0027 23.0145 30H23.0245C23.5767 30 24.0244 30.4477 24.0244 30.9999C24.0244 31.5521 23.5767 31.9998 23.0245 31.9998Z" fill="#FCF05A"/>
<path d="M39.0225 31C38.4703 31.0027 38.0203 30.5572 38.0176 30.005C38.0148 29.4528 38.4603 29.0029 39.0125 29.0001H39.0225C39.5747 29.0001 40.0224 29.4478 40.0224 30C40.0224 30.5522 39.5747 31 39.0225 31Z" fill="#E97424"/>
<path d="M19.0225 30C18.4703 30.0027 18.0203 29.5572 18.0176 29.005C18.0148 28.4528 18.4603 28.0029 19.0125 28.0001H19.0225C19.5747 28.0001 20.0224 28.4478 20.0224 29C20.0224 29.5522 19.5747 30 19.0225 30Z" fill="#FCF05A"/>
<path d="M59.9992 54.998C59.9992 54.4458 59.5515 53.9981 58.9993 53.9981C57.3425 53.9981 55.9995 52.6551 55.9995 50.9983C55.9995 50.4461 55.5518 49.9984 54.9996 49.9984C54.4474 49.9984 53.9997 50.4461 53.9997 50.9983C53.9997 52.6551 52.6567 53.9981 50.9999 53.9981C50.4477 53.9981 50 54.4458 50 54.998C50 55.5502 50.4477 55.9979 50.9999 55.9979C52.6567 55.9979 53.9997 57.341 53.9997 58.9977C53.9997 59.5499 54.4474 59.9976 54.9996 59.9976C55.5518 59.9976 55.9995 59.5499 55.9995 58.9977C55.9995 57.341 57.3425 55.9979 58.9993 55.9979C59.5515 55.9979 59.9992 55.5502 59.9992 54.998ZM54.9996 56.0289C54.7084 55.6367 54.361 55.2892 53.9687 54.998C54.3609 54.7068 54.7084 54.3594 54.9996 53.9671C55.2908 54.3593 55.6382 54.7068 56.0305 54.998C55.6382 55.2892 55.2908 55.6366 54.9996 56.0289Z" fill="#242527"/>
<path d="M1.00383 6.00184C2.66057 6.00184 4.00359 7.34486 4.00359 9.00161C4.00359 9.55381 4.4513 10.0015 5.00351 10.0015C5.55572 10.0015 6.00343 9.55381 6.00343 9.00161C6.00343 7.34486 7.34645 6.00184 9.00319 6.00184C9.5554 6.00184 10.0031 5.55413 10.0031 5.00192C10.0031 4.44972 9.5554 4.002 9.00319 4.002C7.34645 4.002 6.00343 2.65898 6.00343 1.00224C6.00343 0.450034 5.55572 0.00231934 5.00351 0.00231934C4.4513 0.00231934 4.00359 0.450034 4.00359 1.00224C4.00359 2.65898 2.66057 4.002 1.00383 4.002C0.451621 4.002 0.00390625 4.44972 0.00390625 5.00192C0.00390625 5.55413 0.451496 6.00184 1.00383 6.00184ZM5.00339 3.97101C5.29461 4.36322 5.64209 4.7107 6.0343 5.00192C5.64209 5.29315 5.29461 5.64062 5.00339 6.03284C4.71216 5.64062 4.36469 5.29315 3.97247 5.00192C4.36481 4.71057 4.71216 4.36322 5.00339 3.97101Z" fill="#242527"/>
<path d="M8.21791 12.9504C8.02642 14.5039 8.57688 16.0569 9.70379 17.143V17.168L4.74318 16.5461C3.10044 16.3399 1.60131 17.5034 1.39345 19.1459L0.0236828 30.063C-0.182551 31.7058 0.980982 33.2049 2.62348 33.4128L7.58408 34.0347L6.83714 39.9872L26.6806 42.478L29.5143 19.8888C31.7337 18.7769 32.6315 16.0764 31.5196 13.857C30.8471 12.5149 29.549 11.5971 28.0595 11.4105C27.8036 11.3775 27.5451 11.3685 27.2875 11.3835C26.6967 7.56317 23.1209 4.94525 19.3005 5.53596C17.2906 5.84681 15.5152 7.01646 14.4365 8.7407C14.2269 8.68258 14.0135 8.63984 13.7976 8.61271C11.0583 8.26924 8.55913 10.2112 8.21503 12.9504H8.21791ZM2.21038 31.0489C2.04802 30.8398 1.97603 30.5745 2.0104 30.312L3.37729 19.4009C3.43966 18.9013 3.86375 18.5261 4.36721 18.5249C4.40971 18.5252 4.45208 18.5278 4.4942 18.5329L9.45481 19.1559L9.20383 21.1367L5.23515 20.6368L4.11423 29.5661L8.08292 30.066L7.83394 32.0509L2.87333 31.4279C2.61073 31.395 2.37212 31.2585 2.21038 31.0489ZM8.95685 23.1216L8.3339 28.0822L6.35006 27.8332L6.97201 22.8726L8.95685 23.1216ZM24.9477 40.2442L9.07397 38.2524L9.57393 34.2837L25.4477 36.2755L24.9477 40.2442ZM9.82078 32.2998L11.5766 18.3089C13.0024 18.7937 14.5713 18.6019 15.8383 17.788C18.0898 19.7125 21.3114 20.0039 23.8717 18.5149C24.5956 19.5245 25.7085 20.1857 26.9414 20.3388C27.1073 20.36 27.2742 20.3714 27.4414 20.3728L25.6945 34.2917L9.82078 32.2998ZM10.2038 13.2014C10.3815 11.5797 11.8401 10.4092 13.4617 10.5869C13.8142 10.6256 14.1569 10.7274 14.4734 10.8875L15.3963 11.3335L15.8183 10.3996C16.9558 7.88352 19.9176 6.76611 22.4337 7.90364C24.2563 8.7277 25.4123 10.5587 25.3726 12.5584L25.3426 13.9913L26.6984 13.5243C27.0558 13.3955 27.4381 13.3517 27.8154 13.3963C29.1803 13.5493 30.1627 14.7799 30.0097 16.1447C29.9013 17.1114 29.2394 17.9261 28.3153 18.23L28.2863 18.24C27.0065 18.6823 25.6104 18.0033 25.1681 16.7236C25.1672 16.7211 25.1663 16.7186 25.1656 16.7161L24.6796 15.3692L23.5797 16.2891C22.5194 17.1889 21.1293 17.6005 19.75 17.423C18.5576 17.2718 17.4597 16.6959 16.6572 15.8011L15.9723 15.0392L15.2264 15.7391C14.582 16.3596 13.6926 16.6571 12.8045 16.5491C12.5588 16.5166 12.3185 16.4521 12.0896 16.3571C12.0656 16.3471 12.0436 16.3351 12.0206 16.3261C11.79 16.2256 11.5721 16.098 11.3717 15.9461L11.1667 15.7901C10.444 15.1351 10.0848 14.1695 10.2038 13.2014Z" fill="#242527"/>
<path d="M45.3755 31.7579L45.9504 34.9996L41.5648 41.2761L54.2008 39.0343L47.9203 34.6496L47.3453 31.4079L53.6448 16.3241C53.8586 15.8149 53.619 15.2288 53.1097 15.0152C52.9314 14.9403 52.7353 14.9188 52.5449 14.9532L34.8273 18.1009C34.2836 18.1974 33.921 18.7165 34.0175 19.2602C34.051 19.449 34.1381 19.6241 34.2684 19.7648L45.3755 31.7579ZM45.9704 38.4573L47.2543 36.6195L49.0922 37.9034L45.9704 38.4573ZM51.095 17.238L45.9854 29.468L36.9801 19.7418L51.095 17.238Z" fill="#242527"/>
<path d="M47.0017 14.0012C48.6585 14.0012 50.0015 12.6582 50.0015 11.0014V6.00184H58.0008V8.18567C57.6806 8.06718 57.3424 8.00506 57.0009 8.00169C55.3442 8.00169 54.0012 9.3447 54.0012 11.0014C54.0012 12.6582 55.3442 14.0012 57.0009 14.0012C58.6577 14.0012 60.0007 12.6582 60.0007 11.0014V0.00231934H48.0016V8.18567C47.6814 8.06718 47.3432 8.00506 47.0017 8.00169C45.345 8.00169 44.002 9.3447 44.002 11.0014C44.002 12.6582 45.345 14.0012 47.0017 14.0012ZM57.0009 12.0014C56.4487 12.0014 56.001 11.5537 56.001 11.0014C56.001 10.4492 56.4487 10.0015 57.0009 10.0015C57.5531 10.0015 58.0008 10.4492 58.0008 11.0014C58.0008 11.5537 57.5531 12.0014 57.0009 12.0014ZM50.0015 2.00216H58.0008V4.002H50.0015V2.00216ZM47.0017 10.0015C47.5539 10.0015 48.0016 10.4492 48.0016 11.0014C48.0016 11.5537 47.5539 12.0014 47.0017 12.0014C46.4495 12.0014 46.0018 11.5537 46.0018 11.0014C46.0018 10.4492 46.4494 10.0015 47.0017 10.0015Z" fill="#242527"/>
<path d="M6.00359 43.9989V54.1821C5.68336 54.0636 5.34514 54.0015 5.00367 53.9981C3.34692 53.9981 2.00391 55.3411 2.00391 56.9979C2.00391 58.6546 3.34692 59.9976 5.00367 59.9976C6.66041 59.9976 8.00343 58.6546 8.00343 56.9979V46.0697C10.3295 46.2503 12.5356 47.1744 14.2959 48.7055L15.7098 47.2916C12.4551 44.0369 7.22449 43.9989 7.00351 43.9989H6.00359ZM5.00367 57.9978C4.45146 57.9978 4.00375 57.5501 4.00375 56.9979C4.00375 56.4457 4.45146 55.998 5.00367 55.998C5.55588 55.998 6.00359 56.4457 6.00359 56.9979C6.00359 57.5501 5.556 57.9978 5.00367 57.9978Z" fill="#242527"/>
<path d="M32.002 46.9987C32.002 48.6554 33.345 49.9984 35.0017 49.9984C36.6585 49.9984 38.0015 48.6554 38.0015 46.9987C38.0015 45.3419 36.6585 43.9989 35.0017 43.9989C33.345 43.9989 32.002 45.3419 32.002 46.9987ZM35.0017 45.9987C35.5539 45.9987 36.0016 46.4465 36.0016 46.9987C36.0016 47.5509 35.5539 47.9986 35.0017 47.9986C34.4495 47.9986 34.0018 47.5509 34.0018 46.9987C34.0018 46.4465 34.4494 45.9987 35.0017 45.9987Z" fill="#242527"/>
<path d="M32.0017 33.9996C30.345 33.9996 29.002 35.3427 29.002 36.9994C29.002 38.6561 30.345 39.9992 32.0017 39.9992C33.6585 39.9992 35.0015 38.6561 35.0015 36.9994C35.0015 35.3427 33.6583 33.9996 32.0017 33.9996ZM32.0017 37.9993C31.4495 37.9993 31.0018 37.5516 31.0018 36.9994C31.0018 36.4472 31.4495 35.9995 32.0017 35.9995C32.5539 35.9995 33.0016 36.4472 33.0016 36.9994C33.0016 37.5516 32.5539 37.9993 32.0017 37.9993Z" fill="#242527"/>
<path d="M30.0017 8.00172C31.6585 8.00172 33.0015 6.6587 33.0015 5.00196C33.0015 3.34522 31.6585 2.0022 30.0017 2.0022C28.345 2.0022 27.002 3.34522 27.002 5.00196C27.002 6.6587 28.345 8.00172 30.0017 8.00172ZM30.0017 4.00204C30.5539 4.00204 31.0016 4.44975 31.0016 5.00196C31.0016 5.55417 30.5539 6.00188 30.0017 6.00188C29.4495 6.00188 29.0018 5.55417 29.0018 5.00196C29.0018 4.44975 29.4494 4.00204 30.0017 4.00204Z" fill="#242527"/>
<path d="M36.0225 9.00167C36.5747 9.00167 37.0224 8.55396 37.0224 8.00175C37.0224 7.44955 36.5747 7.00183 36.0225 7.00183H36.0125C35.4603 7.00458 35.0148 7.45454 35.0176 8.00675C35.0203 8.55896 35.4702 9.00442 36.0225 9.00167Z" fill="#242527"/>
<path d="M13.0236 27.0002H13.0136C12.4586 27.003 12.0109 27.4552 12.0137 28.0102C12.0164 28.5651 12.4686 29.0128 13.0236 29.0101C13.5786 29.0073 14.0263 28.5551 14.0235 28.0002C14.0207 27.4491 13.5747 27.003 13.0236 27.0002Z" fill="#242527"/>
<path d="M16.0236 24.0005H16.0136C15.4586 24.0032 15.0109 24.4555 15.0137 25.0104C15.0164 25.5654 15.4686 26.0131 16.0236 26.0103C16.5786 26.0076 17.0263 25.5554 17.0235 25.0004C17.0207 24.4493 16.5747 24.0032 16.0236 24.0005Z" fill="#242527"/>
<path d="M15.0236 30H15.0136C14.4586 30.0027 14.0109 30.455 14.0137 31.0099C14.0164 31.5649 14.4686 32.0126 15.0236 32.0098C15.5786 32.0071 16.0263 31.5549 16.0235 30.9999C16.0207 30.4488 15.5747 30.0027 15.0236 30Z" fill="#242527"/>
<path d="M23.0236 30H23.0136C22.4586 30.0027 22.0109 30.455 22.0137 31.0099C22.0164 31.5649 22.4686 32.0126 23.0236 32.0098C23.5786 32.0071 24.0263 31.5549 24.0235 30.9999C24.0207 30.4488 23.5747 30.0027 23.0236 30Z" fill="#242527"/>
<path d="M39.0225 31C39.5747 31 40.0224 30.5522 40.0224 30C40.0224 29.4478 39.5747 29.0001 39.0225 29.0001H39.0125C38.4603 29.0029 38.0148 29.4528 38.0176 30.005C38.0203 30.5572 38.4702 31.0027 39.0225 31Z" fill="#242527"/>
<path d="M19.0236 28.0001H19.0136C18.4586 28.0029 18.0109 28.4551 18.0137 29.01C18.0164 29.565 18.4686 30.0127 19.0236 30.01C19.5786 30.0072 20.0263 29.555 20.0235 29C20.0207 28.449 19.5747 28.0029 19.0236 28.0001Z" fill="#242527"/>
</g>
<defs>
<clipPath id="clip0_435_979">
<rect width="60" height="60" fill="white"/>
</clipPath>
</defs>
</svg>
