<svg width="60" height="60" viewBox="0 0 60 60" fill="none" xmlns="http://www.w3.org/2000/svg">
<g clip-path="url(#clip0_435_536)">
<path d="M1 60H59C59.5522 60 60 59.5522 60 59V46H0V59C0 59.5522 0.44775 60 1 60Z" fill="#5AD7FF"/>
<path d="M60 48H0V46H60V48Z" fill="#23AAE6"/>
<path d="M8 51.9999H2V31.3137C2 27.3127 2.77637 23.4097 4.3075 19.7132C5.83862 16.0167 8.0495 12.7079 10.8786 9.87866L15.1213 14.1213C10.529 18.7135 8 24.8192 8 31.3137V51.9999Z" fill="#D26E28"/>
<path d="M12 18C13.6569 18 15 16.6569 15 15C15 13.3431 13.6569 12 12 12C10.3431 12 9 13.3431 9 15C9 16.6569 10.3431 18 12 18Z" fill="#F06423"/>
<path d="M15 20C16.6569 20 18 18.6569 18 17C18 15.3431 16.6569 14 15 14C13.3431 14 12 15.3431 12 17C12 18.6569 13.3431 20 15 20Z" fill="#F06423"/>
<path d="M10 23C11.6569 23 13 21.6569 13 20C13 18.3431 11.6569 17 10 17C8.34315 17 7 18.3431 7 20C7 21.6569 8.34315 23 10 23Z" fill="#FAA019"/>
<path d="M14 12H12V10C12 4.47713 16.4771 0 22 0H23C23.5522 0 24 0.44775 24 1V2C24 7.52287 19.5229 12 14 12Z" fill="#4B9641"/>
<path d="M4 4H0V12H12C12 7.58175 8.41825 4 4 4Z" fill="#5FAA46"/>
<path d="M20 4H23C26.866 4 30 7.134 30 11C30 11.5522 29.5522 12 29 12H12C12 7.58175 15.5817 4 20 4Z" fill="#5FAA46"/>
<path d="M10 10H12V12C12 17.5229 7.52287 22 2 22H1C0.44775 22 0 21.5522 0 21V20C0 14.4771 4.47713 10 10 10Z" fill="#91C83C"/>
<path d="M14 10H12V12C12 17.5229 16.4771 22 22 22H23C23.5522 22 24 21.5522 24 21V20C24 14.4771 19.5229 10 14 10Z" fill="#91C83C"/>
<path d="M3 19.9505V21C3 21.3829 3.21525 21.7155 3.53125 21.8835C8.32725 21.1465 12 17.0021 12 12V10C6.94663 10.5017 3 14.7653 3 19.9505Z" fill="#5FAA46"/>
<path d="M14 10H12C17.0534 10.5017 21 14.7653 21 19.9505V21C21 21.3829 20.7847 21.7155 20.4688 21.8835C20.968 21.9602 21.4794 22 22 22H23C23.5522 22 24 21.5522 24 21V20C24 14.4771 19.5229 10 14 10Z" fill="#5FAA46"/>
<path d="M6.5 28.5001C5.67163 28.5001 5 29.1717 5 30.0001V52.0001H8V30.0001C8 29.1717 7.32837 28.5001 6.5 28.5001Z" fill="#A55023"/>
<path d="M26 32H54V30L40 16L26 30V32Z" fill="#A55023"/>
<path d="M44 18L32 30V50H56V30L44 18Z" fill="#FAA019"/>
<path d="M32 48H56V50H32V48Z" fill="#F06423"/>
<path d="M32 39.9999H56V41.9999H32V39.9999Z" fill="#F06423"/>
<path d="M32 32H56V34H32V32Z" fill="#F06423"/>
<path d="M36 26H52L50 24H38L36 26Z" fill="#F06423"/>
<path d="M48 32H40C38.8954 32 38 32.8954 38 34V50H50V34C50 32.8954 49.1046 32 48 32Z" fill="#F06423"/>
<path d="M40 34.0001H48V50.0001H40V34.0001Z" fill="#555A6E"/>
<path d="M40 34.0001H48V38.0001H40V34.0001Z" fill="#463C4B"/>
<path d="M60 17.1716L57.4141 14.5858C57.0391 14.2106 56.5304 14 56 14H40C39.1911 14 38.4618 14.4872 38.1523 15.2346C37.8428 15.982 38.0139 16.8422 38.5859 17.4142L52.5859 31.4142C52.9609 31.7894 53.4696 32 54 32H60V17.1716Z" fill="#A55023"/>
<path d="M54 32.0001C53.4881 32.0001 52.9764 31.8049 52.5858 31.4144L40 18.8285L27.4142 31.4144C26.6331 32.1954 25.3669 32.1954 24.5857 31.4144C23.8047 30.6334 23.8047 29.367 24.5857 28.586L38.5857 14.586C39.3669 13.805 40.6331 13.805 41.4142 14.586L55.4142 28.586C56.1952 29.367 56.1952 30.6334 55.4142 31.4144C55.0236 31.8049 54.5119 32.0001 54 32.0001Z" fill="#D26E28"/>
<path d="M56 32H60V50H56V32Z" fill="#F06423"/>
<path d="M25 54.0001H60V50.0001H24V53.0001C24 53.5524 24.4477 54.0001 25 54.0001Z" fill="#D26E28"/>
<path d="M49 54H60V50H48V53C48 53.5522 48.4477 54 49 54Z" fill="#A55023"/>
<path d="M33.5 42.0001H30.5C30.2239 42.0001 30 42.224 30 42.5001V50.0001H34V42.5001C34 42.224 33.7761 42.0001 33.5 42.0001Z" fill="#5FAA46"/>
<path d="M31.5 42.0001H30.5C30.2239 42.0001 30 42.224 30 42.5001V50.0001H32V42.5001C32 42.224 31.7761 42.0001 31.5 42.0001Z" fill="#91C83C"/>
<path d="M26 44.0001H32V46.0001H26V44.0001Z" fill="#5FAA46"/>
<path d="M27.5 42.0001H24.5C24.2239 42.0001 24 42.224 24 42.5001V50.0001H28V42.5001C28 42.224 27.7761 42.0001 27.5 42.0001Z" fill="#5FAA46"/>
<path d="M25.5 42.0001H24.5C24.2239 42.0001 24 42.224 24 42.5001V50.0001H26V42.5001C26 42.224 25.7761 42.0001 25.5 42.0001Z" fill="#91C83C"/>
<path d="M49.5 41.9999H46.5C46.2239 41.9999 46 42.2238 46 42.4999V49.9999H50V42.4999C50 42.2238 49.7761 41.9999 49.5 41.9999Z" fill="#5FAA46"/>
<path d="M47.5 41.9999H46.5C46.2239 41.9999 46 42.2238 46 42.4999V49.9999H48V42.4999C48 42.2238 47.7761 41.9999 47.5 41.9999Z" fill="#91C83C"/>
<path d="M55.5 41.9999H52.5C52.2239 41.9999 52 42.2238 52 42.4999V49.9999H56V42.4999C56 42.2238 55.7761 41.9999 55.5 41.9999Z" fill="#5FAA46"/>
<path d="M53.5 41.9999H52.5C52.2239 41.9999 52 42.2238 52 42.4999V49.9999H54V42.4999C54 42.2238 53.7761 41.9999 53.5 41.9999Z" fill="#91C83C"/>
<path d="M48 43.9999H54V45.9999H48V43.9999Z" fill="#5FAA46"/>
<path d="M26 53.9999H30V59.9999H26V53.9999Z" fill="#F06423"/>
<path d="M26 56H28V60H26V56Z" fill="#FAA019"/>
<path d="M50 53.9999H54V59.9999H50V53.9999Z" fill="#F06423"/>
<path d="M50 56H52V60H50V56Z" fill="#FAA019"/>
<path d="M8 50H42V54H8V50Z" fill="#A55023"/>
<path d="M1 60H22C22 54.4771 17.5229 50 12 50H0V59C0 59.5522 0.44775 60 1 60Z" fill="#FAA019"/>
</g>
<defs>
<clipPath id="clip0_435_536">
<rect width="60" height="60" fill="white"/>
</clipPath>
</defs>
</svg>
