<svg width="60" height="60" viewBox="0 0 60 60" fill="none" xmlns="http://www.w3.org/2000/svg">
<g clip-path="url(#clip0_435_1130)">
<path d="M53.3781 28.8478H11.0156V55.6253H53.3781V28.8478Z" fill="#FFD086"/>
<path d="M11.4383 28.8478H6.62305V55.6253H11.4383V28.8478Z" fill="#FFC365"/>
<path d="M27.9362 35.4031H23.8293C23.2666 35.4031 22.8105 35.8592 22.8105 36.4218V46.7724C22.8105 47.335 23.2666 47.7911 23.8293 47.7911H27.9362C28.4988 47.7911 28.9549 47.335 28.9549 46.7724V36.4218C28.9548 35.8591 28.4988 35.4031 27.9362 35.4031Z" fill="#00D2FC"/>
<path d="M26.1554 46.7723V36.4217C26.1554 35.859 26.6115 35.403 27.1741 35.403H23.8293C23.2666 35.403 22.8105 35.859 22.8105 36.4217V46.7723C22.8105 47.3349 23.2666 47.791 23.8293 47.791H27.1741C26.6115 47.791 26.1554 47.3349 26.1554 46.7723Z" fill="#00C2FB"/>
<path d="M37.9518 35.4031H33.8449C33.2823 35.4031 32.8262 35.8592 32.8262 36.4218V46.7724C32.8262 47.335 33.2823 47.7911 33.8449 47.7911H37.9518C38.5145 47.7911 38.9705 47.335 38.9705 46.7724V36.4218C38.9705 35.8591 38.5145 35.4031 37.9518 35.4031Z" fill="#00D2FC"/>
<path d="M36.1711 46.7723V36.4217C36.1711 35.859 36.6271 35.403 37.1898 35.403H33.8449C33.2823 35.403 32.8262 35.859 32.8262 36.4217V46.7723C32.8262 47.3349 33.2823 47.791 33.8449 47.791H37.1898C36.627 47.791 36.1711 47.3349 36.1711 46.7723Z" fill="#00C2FB"/>
<path d="M47.9655 35.4031H43.8586C43.2959 35.4031 42.8398 35.8592 42.8398 36.4218V46.7724C42.8398 47.335 43.2959 47.7911 43.8586 47.7911H47.9655C48.5281 47.7911 48.9842 47.335 48.9842 46.7724V36.4218C48.9842 35.8591 48.5281 35.4031 47.9655 35.4031Z" fill="#00D2FC"/>
<path d="M46.1847 46.7723V36.4217C46.1847 35.859 46.6408 35.403 47.2034 35.403H43.8586C43.2959 35.403 42.8398 35.859 42.8398 36.4217V46.7723C42.8398 47.3349 43.2959 47.791 43.8586 47.791H47.2034C46.6408 47.791 46.1847 47.3349 46.1847 46.7723Z" fill="#00C2FB"/>
<path d="M18.199 35.4031H16.3612L16.0859 35.5568L15.6172 36.1574V55.6253H19.2177V36.4217C19.2177 35.8591 18.7616 35.4031 18.199 35.4031Z" fill="#E39B74"/>
<path d="M16.8496 35.4031H12.0343C11.4717 35.4031 11.0156 35.8592 11.0156 36.4218V55.6255H15.8309V36.4218C15.8309 35.8591 16.287 35.4031 16.8496 35.4031Z" fill="#DD8858"/>
<path d="M41.1137 4.1405C37.4984 4.1405 34.3815 6.27261 32.9508 9.34796C32.7466 9.78718 33.0708 10.2898 33.5552 10.2898H37.9094L38.3961 9.92183H41.1135V4.1405H41.1137Z" fill="#EF6060"/>
<path d="M41.1133 4.1405V9.92183H43.9622L44.3174 10.2898H48.6716C49.156 10.2898 49.4804 9.78707 49.276 9.34796C47.8456 6.27261 44.7285 4.1405 41.1133 4.1405Z" fill="#F67B7B"/>
<path d="M42.3931 4.81006H42.1757L41.1406 6.61123L40.5254 8.84752L40.291 9.98037L40.4683 10.2897H44.318C44.0064 7.80162 43.298 5.79818 42.3931 4.81006Z" fill="#C9F0FE"/>
<path d="M41.1143 4.1405C39.6229 4.1405 38.3575 6.71664 37.9102 10.2898H40.4687C40.7802 7.80167 41.4886 5.79824 42.3935 4.81011C41.9991 4.37933 41.5672 4.1405 41.1143 4.1405Z" fill="#9BE8FD"/>
<path d="M15.3264 5.76489H14.9278L13.9753 6.83024L13.6016 8.20474L13.8522 9.61532L14.3948 10.5558L15.3266 10.8876C16.2118 10.377 16.8079 9.42161 16.8079 8.32626C16.8079 7.23091 16.2117 6.2756 15.3264 5.76489Z" fill="#FFC365"/>
<path d="M13.8452 8.32619C13.8452 7.23084 14.4414 6.27541 15.3265 5.76482C14.8925 5.51439 14.3894 5.37048 13.8522 5.37048C12.2198 5.37048 10.8965 6.69377 10.8965 8.32619C10.8965 9.95861 12.2198 11.2819 13.8522 11.2819C14.3893 11.2819 14.8925 11.1379 15.3265 10.8876C14.4414 10.377 13.8452 9.42154 13.8452 8.32619Z" fill="#FFA90F"/>
<path d="M57.8211 54.9253H6.46009L6.00387 55.1859L5.58398 55.5375V58.0473L5.69145 58.5844L6.19922 59.0434L6.42528 59.1211H57.8211C58.5391 59.1211 59.1212 58.539 59.1212 57.821V56.2253C59.1212 55.5074 58.5391 54.9253 57.8211 54.9253Z" fill="#92DF93"/>
<path d="M5.69414 57.8211V56.2254C5.69414 55.5074 6.27621 54.9253 6.99422 54.9253H2.17898C1.46098 54.9253 0.878906 55.5074 0.878906 56.2254V57.8211C0.878906 58.5391 1.46098 59.1212 2.17898 59.1212H6.99422C6.27621 59.1211 5.69414 58.539 5.69414 57.8211Z" fill="#73D578"/>
<path d="M54.9753 25.2661H9.21153C8.96485 25.4214 8.76762 25.5471 8.76762 25.5471L8.33789 26.1721V28.7893L8.7627 29.258C8.7627 29.258 9.13231 29.3677 9.45388 29.4619H54.9753C55.6933 29.4619 56.2753 28.8799 56.2753 28.1618V26.5661C56.2752 25.8481 55.6933 25.2661 54.9753 25.2661Z" fill="#62DDFC"/>
<path d="M8.53984 28.1619V26.5662C8.53984 25.8482 9.12191 25.2661 9.83992 25.2661H5.02469C4.30668 25.2661 3.72461 25.8482 3.72461 26.5662V28.1619C3.72461 28.8799 4.30668 29.462 5.02469 29.462H9.83992C9.12191 29.4619 8.53984 28.8798 8.53984 28.1619Z" fill="#00D2FC"/>
<path fill-rule="evenodd" clip-rule="evenodd" d="M2.8457 26.5662C2.8457 25.3628 3.82128 24.3872 5.0247 24.3872H54.9751C56.1785 24.3872 57.1541 25.3626 57.1541 26.5662V28.162C57.1541 29.3654 56.1785 30.341 54.9751 30.341H5.0247C3.82128 30.341 2.8457 29.3654 2.8457 28.162V26.5662ZM5.0247 26.145C4.7921 26.145 4.60353 26.3336 4.60353 26.5662V28.162C4.60353 28.3946 4.7921 28.5831 5.0247 28.5831H54.9751C55.2077 28.5831 55.3963 28.3946 55.3963 28.162V26.5662C55.3963 26.3335 55.2078 26.145 54.9751 26.145H5.0247Z" fill="black"/>
<path fill-rule="evenodd" clip-rule="evenodd" d="M13.8522 6.2494C12.7052 6.2494 11.7754 7.17921 11.7754 8.32619C11.7754 9.47317 12.7052 10.403 13.8522 10.403C14.9992 10.403 15.929 9.47317 15.929 8.32619C15.929 7.17921 14.9992 6.2494 13.8522 6.2494ZM10.0176 8.32619C10.0176 6.20839 11.7344 4.49158 13.8522 4.49158C15.97 4.49158 17.6868 6.20839 17.6868 8.32619C17.6868 10.444 15.97 12.1608 13.8522 12.1608C11.7344 12.1608 10.0176 10.444 10.0176 8.32619Z" fill="black"/>
<path fill-rule="evenodd" clip-rule="evenodd" d="M13.8516 0C14.337 0 14.7305 0.393503 14.7305 0.878913V1.98903C14.7305 2.47444 14.337 2.86794 13.8516 2.86794C13.3662 2.86794 12.9727 2.47444 12.9727 1.98903V0.878913C12.9727 0.393503 13.3662 0 13.8516 0Z" fill="black"/>
<path fill-rule="evenodd" clip-rule="evenodd" d="M13.8516 13.7847C14.337 13.7847 14.7305 14.1782 14.7305 14.6636V15.7737C14.7305 16.2591 14.337 16.6526 13.8516 16.6526C13.3662 16.6526 12.9727 16.2591 12.9727 15.7737V14.6636C12.9727 14.1782 13.3662 13.7847 13.8516 13.7847Z" fill="black"/>
<path fill-rule="evenodd" clip-rule="evenodd" d="M7.96451 2.43866C8.30777 2.09544 8.86426 2.09549 9.20748 2.43875L9.9924 3.22379C10.3356 3.56705 10.3356 4.12355 9.99231 4.46676C9.64904 4.80997 9.09255 4.80993 8.74934 4.46667L7.96441 3.68163C7.6212 3.33836 7.62124 2.78187 7.96451 2.43866Z" fill="black"/>
<path fill-rule="evenodd" clip-rule="evenodd" d="M17.7105 12.1859C18.0537 11.8427 18.6102 11.8426 18.9535 12.1858L19.7385 12.9708C20.0818 13.314 20.0818 13.8705 19.7386 14.2137C19.3954 14.557 18.8389 14.557 18.4956 14.2138L17.7106 13.4289C17.3673 13.0857 17.3673 12.5292 17.7105 12.1859Z" fill="black"/>
<path fill-rule="evenodd" clip-rule="evenodd" d="M5.52539 8.32618C5.52539 7.84077 5.91889 7.44727 6.4043 7.44727H7.51442C7.99983 7.44727 8.39333 7.84077 8.39333 8.32618C8.39333 8.81159 7.99983 9.20509 7.51442 9.20509H6.4043C5.91889 9.20509 5.52539 8.81159 5.52539 8.32618Z" fill="black"/>
<path fill-rule="evenodd" clip-rule="evenodd" d="M19.3105 8.32618C19.3105 7.84077 19.704 7.44727 20.1895 7.44727H21.2996C21.785 7.44727 22.1785 7.84077 22.1785 8.32618C22.1785 8.81159 21.785 9.20509 21.2996 9.20509H20.1895C19.704 9.20509 19.3105 8.81159 19.3105 8.32618Z" fill="black"/>
<path fill-rule="evenodd" clip-rule="evenodd" d="M9.99235 12.1859C10.3356 12.5291 10.3356 13.0856 9.99235 13.4289L9.20743 14.2138C8.86419 14.557 8.3077 14.557 7.96446 14.2138C7.62122 13.8705 7.62122 13.3141 7.96446 12.9708L8.74938 12.1859C9.09262 11.8427 9.64912 11.8427 9.99235 12.1859Z" fill="black"/>
<path fill-rule="evenodd" clip-rule="evenodd" d="M19.7386 2.4387C20.0818 2.78194 20.0818 3.33844 19.7386 3.68167L18.9535 4.46671C18.6103 4.80995 18.0538 4.80995 17.7106 4.46671C17.3673 4.12347 17.3673 3.56698 17.7106 3.22374L18.4956 2.4387C18.8388 2.09547 19.3953 2.09547 19.7386 2.4387Z" fill="black"/>
<path fill-rule="evenodd" clip-rule="evenodd" d="M32.3535 14.9928C32.8389 14.9928 33.2324 15.3863 33.2324 15.8717V25.1489C33.2324 25.6343 32.8389 26.0278 32.3535 26.0278C31.8681 26.0278 31.4746 25.6343 31.4746 25.1489V15.8717C31.4746 15.3863 31.8681 14.9928 32.3535 14.9928Z" fill="black"/>
<path fill-rule="evenodd" clip-rule="evenodd" d="M31.4746 20.8098C31.4746 20.3244 31.8681 19.9309 32.3535 19.9309H37.2754C37.7608 19.9309 38.1543 20.3244 38.1543 20.8098V25.1488C38.1543 25.6342 37.7608 26.0277 37.2754 26.0277C36.79 26.0277 36.3965 25.6342 36.3965 25.1488V21.6887H32.3535C31.8681 21.6887 31.4746 21.2952 31.4746 20.8098Z" fill="black"/>
<path fill-rule="evenodd" clip-rule="evenodd" d="M49.8731 14.9928C50.3585 14.9928 50.752 15.3863 50.752 15.8717V25.1489C50.752 25.6343 50.3585 26.0278 49.8731 26.0278C49.3876 26.0278 48.9941 25.6343 48.9941 25.1489V15.8717C48.9941 15.3863 49.3876 14.9928 49.8731 14.9928Z" fill="black"/>
<path fill-rule="evenodd" clip-rule="evenodd" d="M44.0723 20.8098C44.0723 20.3244 44.4658 19.9309 44.9512 19.9309H49.8731C50.3585 19.9309 50.752 20.3244 50.752 20.8098C50.752 21.2952 50.3585 21.6887 49.8731 21.6887H45.8301V25.1488C45.8301 25.6342 45.4366 26.0277 44.9512 26.0277C44.4658 26.0277 44.0723 25.6342 44.0723 25.1488V20.8098Z" fill="black"/>
<path fill-rule="evenodd" clip-rule="evenodd" d="M36.5234 17.778C36.5234 17.2926 36.9169 16.899 37.4024 16.899H44.8242C45.3096 16.899 45.7031 17.2926 45.7031 17.778C45.7031 18.2634 45.3096 18.6569 44.8242 18.6569H37.4024C36.9169 18.6569 36.5234 18.2634 36.5234 17.778Z" fill="black"/>
<path fill-rule="evenodd" clip-rule="evenodd" d="M41.1133 17.3893C41.5987 17.3893 41.9922 17.7828 41.9922 18.2682V25.1489C41.9922 25.6343 41.5987 26.0278 41.1133 26.0278C40.6279 26.0278 40.2344 25.6343 40.2344 25.1489V18.2682C40.2344 17.7828 40.6279 17.3893 41.1133 17.3893Z" fill="black"/>
<path fill-rule="evenodd" clip-rule="evenodd" d="M41.1133 9.56299C41.5987 9.56299 41.9922 9.95649 41.9922 10.4419V17.6099C41.9922 18.0953 41.5987 18.4888 41.1133 18.4888C40.6279 18.4888 40.2344 18.0953 40.2344 17.6099V10.4419C40.2344 9.95649 40.6279 9.56299 41.1133 9.56299Z" fill="black"/>
<path fill-rule="evenodd" clip-rule="evenodd" d="M41.1133 1.32068C41.5987 1.32068 41.9922 1.71418 41.9922 2.19959V3.9574C41.9922 4.44281 41.5987 4.83632 41.1133 4.83632C40.6279 4.83632 40.2344 4.44281 40.2344 3.9574V2.19959C40.2344 1.71418 40.6279 1.32068 41.1133 1.32068Z" fill="black"/>
<path fill-rule="evenodd" clip-rule="evenodd" d="M32.1535 8.9773C33.7229 5.60359 37.1435 3.2616 41.1133 3.2616C45.0831 3.2616 48.5037 5.60359 50.0731 8.9773L50.0731 8.97739C50.5517 10.0064 49.7907 11.1688 48.6717 11.1688H33.5548C32.4357 11.1688 31.675 10.0063 32.1535 8.97739L32.1535 8.9773ZM33.8985 9.41094H48.3281C46.9765 6.80066 44.2522 5.01942 41.1133 5.01942C37.9744 5.01942 35.2501 6.80066 33.8985 9.41094ZM48.4792 9.71863C48.4791 9.71842 48.479 9.71821 48.4789 9.718C48.479 9.71821 48.4791 9.71842 48.4792 9.71863Z" fill="black"/>
<path fill-rule="evenodd" clip-rule="evenodd" d="M38.3385 5.47451C38.9215 4.33631 39.8324 3.2616 41.1143 3.2616C42.3963 3.2616 43.3071 4.33631 43.8901 5.47451C44.5106 6.68571 44.959 8.33121 45.1906 10.1806C45.2219 10.4308 45.1442 10.6824 44.9774 10.8714C44.8106 11.0604 44.5706 11.1687 44.3184 11.1687H37.9102C37.658 11.1687 37.4181 11.0604 37.2512 10.8714C37.0844 10.6824 37.0067 10.4308 37.0381 10.1806C37.2696 8.33121 37.718 6.68571 38.3385 5.47451ZM38.9323 9.41089H43.2963C43.0655 8.12723 42.7242 7.05398 42.3256 6.27593C41.7913 5.23277 41.3237 5.01942 41.1143 5.01942C40.9049 5.01942 40.4373 5.23277 39.903 6.27593C39.5044 7.05398 39.1631 8.12723 38.9323 9.41089Z" fill="black"/>
<path fill-rule="evenodd" clip-rule="evenodd" d="M16.2305 43.8312C16.7159 43.8312 17.1094 44.2247 17.1094 44.7101V45.6183C17.1094 46.1037 16.7159 46.4972 16.2305 46.4972C15.7451 46.4972 15.3516 46.1037 15.3516 45.6183V44.7101C15.3516 44.2247 15.7451 43.8312 16.2305 43.8312Z" fill="black"/>
<path fill-rule="evenodd" clip-rule="evenodd" d="M10.1367 36.4218C10.1367 35.3738 10.9863 34.5242 12.0344 34.5242H18.2002C19.248 34.5242 20.0979 35.3734 20.0977 36.4217C20.0977 36.4217 20.0977 36.4218 20.0977 36.4219V54.9254C20.0977 55.4108 19.7042 55.8043 19.2188 55.8043H11.0156C10.5302 55.8043 10.1367 55.4108 10.1367 54.9254V36.4218ZM12.0344 36.282C11.9571 36.282 11.8945 36.3446 11.8945 36.4218V54.0465H18.3399V36.4215C18.3399 36.3446 18.2776 36.282 18.2002 36.282H12.0344Z" fill="black"/>
<path fill-rule="evenodd" clip-rule="evenodd" d="M21.9316 36.4218C21.9316 35.3738 22.7812 34.5242 23.8293 34.5242H27.9362C28.9843 34.5242 29.8336 35.3737 29.8338 36.4216L29.8338 36.4218V46.7724C29.8338 47.8204 28.9842 48.67 27.9362 48.67H23.8293C22.7812 48.67 21.9316 47.8204 21.9316 46.7724V36.4218ZM23.8293 36.282C23.7521 36.282 23.6895 36.3446 23.6895 36.4218V46.7724C23.6895 46.8496 23.7521 46.9122 23.8293 46.9122H27.9362C28.0134 46.9122 28.076 46.8496 28.076 46.7724V36.422V36.4218C28.076 36.4219 28.076 36.4219 28.076 36.422M28.076 36.4218C28.0759 36.3443 28.0133 36.282 27.9362 36.282H23.8293" fill="black"/>
<path fill-rule="evenodd" clip-rule="evenodd" d="M31.9473 36.4218C31.9473 35.3738 32.7969 34.5242 33.8449 34.5242H37.9518C38.9998 34.5242 39.8495 35.3736 39.8495 36.4218V46.7724C39.8495 47.8204 38.9999 48.67 37.9518 48.67H33.8449C32.7969 48.67 31.9473 47.8204 31.9473 46.7724V36.4218ZM33.8449 36.282C33.7677 36.282 33.7051 36.3446 33.7051 36.4218V46.7724C33.7051 46.8496 33.7677 46.9122 33.8449 46.9122H37.9518C38.0291 46.9122 38.0916 46.8496 38.0916 46.7724V36.4218C38.0916 36.3445 38.0291 36.282 37.9518 36.282H33.8449Z" fill="black"/>
<path fill-rule="evenodd" clip-rule="evenodd" d="M41.9609 36.4218C41.9609 35.3738 42.8105 34.5242 43.8586 34.5242H47.9655C49.0135 34.5242 49.8631 35.3736 49.8631 36.4218V46.7724C49.8631 47.8204 49.0135 48.67 47.9655 48.67H43.8586C42.8105 48.67 41.9609 47.8204 41.9609 46.7724V36.4218ZM43.8586 36.282C43.7814 36.282 43.7188 36.3446 43.7188 36.4218V46.7724C43.7188 46.8496 43.7814 46.9122 43.8586 46.9122H47.9655C48.0427 46.9122 48.1053 46.8496 48.1053 46.7724V36.4218C48.1053 36.3445 48.0428 36.282 47.9655 36.282H43.8586Z" fill="black"/>
<path fill-rule="evenodd" clip-rule="evenodd" d="M22.5488 41.5971C22.5488 41.1116 22.9423 40.7181 23.4277 40.7181H28.3496C28.835 40.7181 29.2285 41.1116 29.2285 41.5971C29.2285 42.0825 28.835 42.476 28.3496 42.476H23.4277C22.9423 42.476 22.5488 42.0825 22.5488 41.5971Z" fill="black"/>
<path fill-rule="evenodd" clip-rule="evenodd" d="M32.5391 41.5971C32.5391 41.1116 32.9326 40.7181 33.418 40.7181H38.3106C38.796 40.7181 39.1895 41.1116 39.1895 41.5971C39.1895 42.0825 38.796 42.476 38.3106 42.476H33.418C32.9326 42.476 32.5391 42.0825 32.5391 41.5971Z" fill="black"/>
<path fill-rule="evenodd" clip-rule="evenodd" d="M42.5586 41.5971C42.5586 41.1116 42.9521 40.7181 43.4375 40.7181H48.3985C48.8839 40.7181 49.2774 41.1116 49.2774 41.5971C49.2774 42.0825 48.8839 42.476 48.3985 42.476H43.4375C42.9521 42.476 42.5586 42.0825 42.5586 41.5971Z" fill="black"/>
<path fill-rule="evenodd" clip-rule="evenodd" d="M0 56.2253C0 55.0218 0.975578 54.0463 2.179 54.0463H57.821C59.0244 54.0463 60 55.0218 60 56.2253V57.821C60 59.0244 59.0244 60 57.821 60H32.0508C31.5654 60 31.1719 59.6065 31.1719 59.1211C31.1719 58.6357 31.5654 58.2422 32.0508 58.2422H57.821C58.0536 58.2422 58.2422 58.0536 58.2422 57.821V56.2253C58.2422 55.9927 58.0536 55.8041 57.821 55.8041H2.179C1.9464 55.8041 1.75783 55.9927 1.75783 56.2253V57.821C1.75783 58.0536 1.9464 58.2422 2.179 58.2422H27.9492C28.4346 58.2422 28.8281 58.6357 28.8281 59.1211C28.8281 59.6065 28.4346 60 27.9492 60H2.179C0.975578 60 0 59.0244 0 57.821V56.2253Z" fill="black"/>
<path fill-rule="evenodd" clip-rule="evenodd" d="M5.74414 29.4619C5.74414 28.9765 6.13764 28.583 6.62305 28.583H53.3789C53.8643 28.583 54.2578 28.9765 54.2578 29.4619V39.5463C54.2578 40.0317 53.8643 40.4252 53.3789 40.4252C52.8935 40.4252 52.5 40.0317 52.5 39.5463V30.3408H7.50197V54.0464H52.5V43.6479C52.5 43.1625 52.8935 42.769 53.3789 42.769C53.8643 42.769 54.2578 43.1625 54.2578 43.6479V54.9253C54.2578 55.4107 53.8643 55.8042 53.3789 55.8042H6.62305C6.13764 55.8042 5.74414 55.4107 5.74414 54.9253V29.4619Z" fill="black"/>
</g>
<defs>
<clipPath id="clip0_435_1130">
<rect width="60" height="60" fill="white"/>
</clipPath>
</defs>
</svg>
