<svg width="22" height="22" viewBox="0 0 22 22" fill="none" xmlns="http://www.w3.org/2000/svg">
<g clip-path="url(#clip0_36_828)">
<path d="M7.01746 17.1119C5.74897 17.1119 4.7207 18.1403 4.7207 19.4087C4.7207 20.6772 5.74902 21.7055 7.01746 21.7055C8.28596 21.7055 9.31422 20.6771 9.31422 19.4087C9.31427 18.1403 8.28596 17.1119 7.01746 17.1119ZM7.01746 20.6847C6.31276 20.6847 5.7415 20.1135 5.7415 19.4087C5.7415 18.704 6.31276 18.1328 7.01746 18.1328C7.72217 18.1328 8.29343 18.704 8.29343 19.4087C8.29348 20.1135 7.72217 20.6847 7.01746 20.6847Z" fill="black"/>
<path d="M16.7157 17.1119C15.4472 17.1119 14.4189 18.1403 14.4189 19.4087C14.4189 20.6772 15.4473 21.7055 16.7157 21.7055C17.9842 21.7055 19.0125 20.6771 19.0125 19.4087C19.0125 18.1403 17.9842 17.1119 16.7157 17.1119ZM16.7157 20.6847C16.011 20.6847 15.4397 20.1135 15.4397 19.4087C15.4397 18.704 16.011 18.1328 16.7157 18.1328C17.4204 18.1328 17.9917 18.704 17.9917 19.4087C17.9917 20.1135 17.4204 20.6847 16.7157 20.6847Z" fill="black"/>
<path d="M21.896 3.71412C21.7897 3.59802 21.6443 3.52533 21.4877 3.50995L4.87429 3.28027L4.41494 1.87667C4.09133 0.938376 3.21268 0.304936 2.22022 0.294434H0.510397C0.228504 0.294434 0 0.522937 0 0.80483C0 1.08672 0.228504 1.31523 0.510397 1.31523H2.22022C2.77516 1.32749 3.26382 1.68382 3.44519 2.20843L6.6862 11.9825L6.43103 12.5694C6.1464 13.3034 6.23188 14.1295 6.6607 14.7897C7.08542 15.4381 7.79995 15.8382 8.5747 15.8615H18.5019C18.7838 15.8615 19.0123 15.633 19.0123 15.3511C19.0123 15.0692 18.7838 14.8407 18.5019 14.8407H8.57465C8.13713 14.8298 7.7344 14.5996 7.50281 14.2282C7.27382 13.8614 7.22678 13.4095 7.37523 13.0033L7.57941 12.5439L18.3232 11.421C19.5034 11.291 20.4741 10.4327 20.7476 9.27734L21.9726 4.14788C22.0278 4.00017 21.9985 3.83404 21.896 3.71412ZM19.7523 9.04772C19.5866 9.79145 18.9552 10.34 18.1956 10.4003L7.57941 11.4976L5.20605 4.30106L20.8497 4.53074L19.7523 9.04772Z" fill="black"/>
</g>
<defs>
<clipPath id="clip0_36_828">
<rect width="22" height="22" fill="white"/>
</clipPath>
</defs>
</svg>
