<svg width="20" height="20" viewBox="0 0 20 20" fill="none" xmlns="http://www.w3.org/2000/svg">
<path d="M10 6.72727C8.19182 6.72727 6.72727 8.19182 6.72727 10C6.72727 11.8082 8.19182 13.2727 10 13.2727C11.8082 13.2727 13.2727 11.8082 13.2727 10C13.2727 8.19182 11.8082 6.72727 10 6.72727ZM17.3145 9.18182C17.1292 7.52264 16.3852 5.9758 15.2047 4.7953C14.0242 3.61479 12.4774 2.87078 10.8182 2.68545V1H9.18182V2.68545C7.52264 2.87078 5.9758 3.61479 4.7953 4.7953C3.61479 5.9758 2.87078 7.52264 2.68545 9.18182H1V10.8182H2.68545C2.87078 12.4774 3.61479 14.0242 4.7953 15.2047C5.9758 16.3852 7.52264 17.1292 9.18182 17.3145V19H10.8182V17.3145C12.4774 17.1292 14.0242 16.3852 15.2047 15.2047C16.3852 14.0242 17.1292 12.4774 17.3145 10.8182H19V9.18182H17.3145ZM10 15.7273C6.83364 15.7273 4.27273 13.1664 4.27273 10C4.27273 6.83364 6.83364 4.27273 10 4.27273C13.1664 4.27273 15.7273 6.83364 15.7273 10C15.7273 13.1664 13.1664 15.7273 10 15.7273Z" fill="#A09EAC"/>
</svg>
