<svg width="60" height="60" viewBox="0 0 60 60" fill="none" xmlns="http://www.w3.org/2000/svg">
<g clip-path="url(#clip0_14_2258)">
<path fill-rule="evenodd" clip-rule="evenodd" d="M15.8194 2.81181C19.5681 -0.937039 25.646 -0.937005 29.3947 2.81179L30 3.41699L30.6052 2.81179C34.3539 -0.936982 40.4317 -0.93704 44.1805 2.81174C47.9293 6.56033 47.9293 12.6383 44.1805 16.387C44.1805 16.387 44.1805 16.387 44.1805 16.387L31.2429 29.3247C30.9133 29.6544 30.4662 29.8396 30 29.8396C29.5337 29.8396 29.0866 29.6544 28.757 29.3247L15.8194 16.3871C15.8194 16.387 15.8194 16.3871 15.8194 16.3871C12.0707 12.6384 12.0706 6.5604 15.8194 2.81181ZM26.9088 5.29771C24.5329 2.92182 20.6811 2.92186 18.3053 5.29768L18.3053 5.29775C15.9295 7.67337 15.9294 11.5253 18.3053 13.9011L30 25.5958L41.6946 13.9011C44.0704 11.5254 44.0704 7.67337 41.6946 5.29775L41.6946 5.29768C39.3188 2.92186 35.467 2.92182 33.0911 5.29771L31.2429 7.14587C30.5564 7.83233 29.4435 7.83233 28.757 7.14587L26.9088 5.29771ZM5.27343 13.1252C4.30268 13.1252 3.51562 13.9122 3.51562 14.883V33.8477C3.51562 34.889 3.82379 35.9068 4.40122 36.7728L4.40129 36.7729L12.5954 49.0641C12.7879 49.3529 12.8906 49.6921 12.8906 50.0392V56.4845H24.0062L24.0062 41.2329C24.0062 39.8342 23.4506 38.493 22.4616 37.5041L14.4352 29.4775C13.7487 28.791 12.6357 28.791 11.9492 29.4775C11.2628 30.1639 11.2628 31.277 11.9492 31.9634L18.2351 38.2493C18.9216 38.9358 18.9216 40.0488 18.2351 40.7353C17.5487 41.4217 16.4357 41.4217 15.7492 40.7353L8.91906 33.9051C7.71027 32.6963 7.03124 31.057 7.03124 29.3476V14.883C7.03124 13.9122 6.24418 13.1252 5.27343 13.1252ZM10.5469 26.157V14.883C10.5469 11.9706 8.1858 9.60954 5.27343 9.60954C2.36106 9.60954 0 11.9706 0 14.883V33.8477C0 35.5829 0.513546 37.2794 1.47619 38.7231L9.37499 50.5714V58.2423C9.37499 59.2131 10.162 60.0001 11.1328 60.0001H25.764C26.7348 60.0001 27.5218 59.2131 27.5218 58.2423L27.5218 41.2329C27.5218 38.9017 26.5957 36.6663 24.9475 35.0181L16.9211 26.9916C15.1933 25.2638 12.5647 24.9856 10.5469 26.157ZM49.453 14.883C49.453 11.9706 51.8141 9.60954 54.7265 9.60954C57.6388 9.60954 59.9999 11.9706 59.9999 14.883V33.8477C59.9999 35.5829 59.4864 37.2793 58.5238 38.723C58.5238 38.7231 58.5237 38.7231 58.5237 38.7231L50.6249 50.5714V58.2423C50.6249 59.2131 49.8379 60.0001 48.8671 60.0001H34.2359C33.2651 60.0001 32.4781 59.2131 32.4781 58.2423V41.2329C32.4781 38.9017 33.4042 36.6663 35.0524 35.0181L43.0788 26.9916C44.8066 25.2638 47.4352 24.9856 49.453 26.157V14.883ZM48.0507 31.9634C48.7371 31.277 48.7371 30.1639 48.0507 29.4775C47.3642 28.791 46.2512 28.791 45.5647 29.4775L37.5383 37.504C36.5494 38.493 35.9937 39.8342 35.9937 41.2329V56.4845H47.1093V50.0392C47.1093 49.6921 47.212 49.3529 47.4045 49.0641L55.5986 36.7729L55.5987 36.7728C56.1761 35.9068 56.4843 34.889 56.4843 33.8477V14.883C56.4843 13.9122 55.6972 13.1252 54.7265 13.1252C53.7557 13.1252 52.9687 13.9122 52.9687 14.883V29.3476C52.9687 31.057 52.2896 32.6963 51.0808 33.9051L44.2507 40.7353C43.5642 41.4217 42.4512 41.4217 41.7648 40.7353C41.0783 40.0488 41.0783 38.9358 41.7648 38.2493L48.0507 31.9634Z" fill="#444156"/>
</g>
<defs>
<clipPath id="clip0_14_2258">
<rect width="59.9999" height="60" fill="white"/>
</clipPath>
</defs>
</svg>
