<svg width="60" height="60" viewBox="0 0 60 60" fill="none" xmlns="http://www.w3.org/2000/svg">
<g clip-path="url(#clip0_14_2285)">
<path fill-rule="evenodd" clip-rule="evenodd" d="M58.9697 41.8977L52.2316 35.1596C59.9603 18.9418 48.081 0.00167084 30.0004 0.00167084C11.9511 0.00167084 0.024985 18.9092 7.76915 35.1596L1.03105 41.8977C-0.844201 43.7729 -0.046851 46.9732 2.4959 47.7476L9.98049 50.021L12.2538 57.5055C13.025 60.0382 16.2188 60.852 18.1038 58.9704L27.9403 49.1338C29.2926 49.246 30.662 49.2497 32.0605 49.1338L41.8971 58.9704C43.7753 60.8486 46.9742 60.0434 47.747 57.5055L50.0204 50.021L57.505 47.7476C60.0517 46.9721 60.8418 43.7698 58.9697 41.8977ZM15.6183 56.4838L13.3438 48.9992C13.0028 47.8742 12.1274 46.9988 11.0025 46.6567L3.5179 44.3834L9.57643 38.3248C12.867 43.2091 17.8614 46.8548 23.7008 48.4016L15.6183 56.4838ZM12.1167 35.7842C3.2847 21.7195 13.5602 3.5172 30.0004 3.5172C46.5733 3.5172 56.6367 21.8457 47.884 35.7841C39.5968 49.0007 20.4028 48.999 12.1167 35.7842ZM48.9985 46.6566C47.8735 46.9988 46.9981 47.8742 46.656 48.9991L44.3827 56.4837L36.3004 48.4014C42.1398 46.8545 47.1341 43.2089 50.4248 38.3246L56.4833 44.3831L48.9985 46.6566ZM30.0004 7.03286C18.237 7.03286 9.73266 18.4512 13.1867 29.7422C16.1295 39.3852 26.5685 44.5088 35.9066 41.1677C42.7078 38.7336 47.5782 32.2268 47.5782 24.6106C47.5782 14.9182 39.6928 7.03286 30.0004 7.03286ZM20.5202 34.9862C11.0282 26.3224 17.2726 10.5484 30.0004 10.5484C38.6626 10.5484 45.2564 18.3427 43.888 26.816C42.1664 37.7991 28.798 42.5611 20.5202 34.9862ZM27.5855 25.6079L35.3335 19.8568C36.1131 19.2782 37.214 19.4411 37.7926 20.2205C38.3712 21.0001 38.2084 22.1012 37.4288 22.6797L28.4232 29.3643C27.707 29.8958 26.7051 29.8071 26.0938 29.1557L22.338 25.1538C21.6736 24.446 21.709 23.3335 22.4168 22.6692C23.1247 22.0047 24.237 22.04 24.9014 22.748L27.5855 25.6079Z" fill="#444156"/>
</g>
<defs>
<clipPath id="clip0_14_2285">
<rect width="59.9999" height="60" fill="white"/>
</clipPath>
</defs>
</svg>
