<svg width="60" height="60" viewBox="0 0 60 60" fill="none" xmlns="http://www.w3.org/2000/svg">
<g clip-path="url(#clip0_14_2232)">
<path fill-rule="evenodd" clip-rule="evenodd" d="M23.5687 0.80117C23.7282 0.322709 24.176 0 24.6804 0H35.3197C35.8243 0 36.2722 0.322944 36.4316 0.801652L36.5388 1.1236C36.9078 2.23053 37.8508 3.04833 38.9987 3.25702C39.5559 3.35832 39.9609 3.84364 39.9609 4.40999V12.7807C39.9609 15.0592 39.3069 17.2264 38.1479 19.0689L44.8848 19.5034L58.246 11.8555C58.6087 11.6479 59.0544 11.6492 59.416 11.8588C59.7775 12.0684 60 12.4547 60 12.8726V17.7479C60 18.3951 59.4753 18.9198 58.8281 18.9198C58.1809 18.9198 57.6562 18.3951 57.6562 17.7479V14.8936L45.7668 21.699C45.5691 21.8186 45.3341 21.881 45.0861 21.865L36.3309 21.3003C35.1799 22.4061 33.7945 23.2884 32.2329 23.8637L30.4051 24.5371C30.1436 24.6334 29.8563 24.6334 29.5948 24.5371L27.8821 23.906L20.6658 28.0723C19.6849 28.6387 19.3488 29.8929 19.9151 30.8738C20.4814 31.8547 21.7357 32.1908 22.7165 31.6245L23.3025 32.6393L22.7165 31.6245L31.0892 26.7905C31.6497 26.4669 32.3664 26.6589 32.69 27.2194C33.8868 29.2922 36.0563 30.4487 38.2871 30.4445C38.2969 30.4444 38.3067 30.4443 38.3165 30.4444C39.397 30.4374 40.4908 30.1581 41.4946 29.5786C42.0551 29.255 42.7718 29.4471 43.0954 30.0076C43.419 30.5681 43.2269 31.2848 42.6664 31.6084C42.0555 31.961 41.4201 32.2321 40.7728 32.425L49.7641 41.4164C51.1889 39.7503 52.2404 37.7731 52.8186 35.6154C52.9001 35.3111 53.1007 35.0524 53.3752 34.8978L57.6562 32.4854V28.295C57.6562 27.6477 58.1809 27.1231 58.8281 27.1231C59.4753 27.1231 60 27.6477 60 28.295V33.1702C60 33.5932 59.772 33.9834 59.4034 34.1911L54.9461 36.7028C54.2184 39.1336 52.9676 41.3525 51.3041 43.2158C52.1191 44.764 51.8756 46.7239 50.5734 48.0261C49.9465 48.653 49.1671 49.0346 48.3545 49.1707C48.6623 50.5032 48.2971 51.9597 47.2588 52.998C46.2205 54.0363 44.7641 54.4015 43.4317 54.0938C43.2955 54.9063 42.914 55.6858 42.287 56.3127C40.9967 57.603 39.0605 57.8539 37.5191 57.0653C37.3314 57.6998 36.9872 58.2978 36.4865 58.7986C34.8847 60.4003 32.2878 60.4003 30.686 58.7986L30 58.1126L29.3139 58.7987C27.7122 60.4004 25.1152 60.4004 23.5135 58.7987C23.0127 58.2979 22.6685 57.6998 22.4808 57.0653C20.9394 57.8538 19.0034 57.6029 17.7131 56.3126C17.0862 55.6857 16.7047 54.9064 16.5685 54.0939C15.236 54.4017 13.7795 54.0365 12.7412 52.9982C11.7029 51.9598 11.3376 50.5033 11.6456 49.1707C10.833 49.0345 10.0536 48.653 9.42669 48.026C8.1245 46.7238 7.88097 44.7639 8.69609 43.2157C7.03251 41.3524 5.78155 39.1334 5.05385 36.7025L0.596593 34.1909C0.228022 33.9832 0 33.593 0 33.17V12.8726C0 12.4547 0.222536 12.0684 0.584052 11.8588C0.945569 11.6492 1.39136 11.6479 1.75404 11.8555L15.1148 19.5033L21.8521 19.0687C20.6931 17.2263 20.0391 15.0591 20.0391 12.7806V4.40988C20.0391 3.84351 20.4441 3.3582 21.0013 3.2569C22.1493 3.0482 23.0922 2.2304 23.4612 1.12356L23.5687 0.80117ZM31.3132 29.3675C32.911 31.4442 35.3095 32.6428 37.8094 32.7762L48.9161 43.8829L48.9338 43.9009C48.9421 43.9098 48.9505 43.9186 48.9591 43.9274C49.6023 44.6166 49.588 45.697 48.9161 46.3688C48.2297 47.0553 47.1167 47.0553 46.4303 46.3688L41.0441 40.9826C40.5864 40.525 39.8444 40.525 39.3868 40.9826C39.3251 41.0443 39.2717 41.1112 39.2267 41.1818C38.9374 41.6352 38.9907 42.2441 39.3867 42.6401L45.6015 48.8549C46.288 49.5413 46.288 50.6543 45.6015 51.3407C44.9151 52.0272 43.8021 52.0272 43.1156 51.3407L36.9008 45.1259C36.4432 44.6683 35.7012 44.6683 35.2435 45.1259C35.0361 45.3334 34.9226 45.5994 34.9033 45.8708C34.896 45.9735 34.9021 46.077 34.9218 46.1784C34.9647 46.4001 35.0719 46.6117 35.2436 46.7834L40.6297 52.1696C41.3162 52.856 41.3162 53.969 40.6297 54.6554C39.9433 55.3419 38.8303 55.3419 38.1439 54.6554C38.1346 54.6461 38.1251 54.637 38.1155 54.628L38.1 54.6138L36.9974 53.6194C36.8505 53.4001 36.6802 53.1919 36.4865 52.9981C36.4509 52.9626 36.4131 52.9293 36.3733 52.8986L35.1415 51.9492C34.8486 51.7173 34.4741 51.6466 34.1321 51.7313C34.0501 51.7517 33.9699 51.7809 33.8932 51.819C33.7388 51.8956 33.599 52.0075 33.4867 52.1532C33.4691 52.1761 33.4525 52.1993 33.4368 52.223C33.2521 52.5021 33.2005 52.8402 33.2776 53.1516C33.2966 53.2281 33.3233 53.303 33.3578 53.375C33.4242 53.5139 33.5189 53.6415 33.6408 53.7486L35.1638 55.122C35.487 55.7786 35.3755 56.595 34.8292 57.1413C34.1427 57.8278 33.0298 57.8278 32.3433 57.1413L30.811 55.609C30.3533 55.1513 29.6113 55.1513 29.1537 55.609C29.119 55.6436 29.087 55.6799 29.0576 55.7176C29.5813 55.0286 29.5287 54.0415 28.8996 53.4125C28.2132 52.7261 27.1002 52.7261 26.4137 53.4125L26.4137 53.4125L26.8281 52.9981C27.1975 52.6286 27.4818 52.2062 27.6808 51.7552L30.5569 51.7552C29.844 51.0424 28.9341 50.6468 28.0025 50.5685C28.1403 49.3681 27.7488 48.1184 26.8281 47.1976C26.0165 46.3861 24.9495 45.9857 23.8859 45.9965C23.8967 44.933 23.4963 43.8661 22.6848 43.0546C21.8733 42.2431 20.8063 41.8427 19.7428 41.8535C19.7536 40.7898 19.3533 39.7227 18.5417 38.9111C16.9399 37.3093 14.343 37.3093 12.7412 38.9111L10.236 41.4163C8.81116 39.7501 7.75956 37.773 7.1814 35.6151C7.09986 35.3108 6.89922 35.0521 6.62474 34.8974L2.34375 32.4852V14.8936L14.2564 21.7124C14.4559 21.8266 14.6845 21.8796 14.9139 21.8648L23.6691 21.3002C24.1885 21.7992 24.7556 22.2526 25.365 22.6529L19.4939 26.0426C17.392 27.2561 16.6718 29.9438 17.8853 32.0457C19.0989 34.1475 21.7865 34.8677 23.8884 33.6542L31.3132 29.3675ZM28.8996 55.8984L27.6566 57.1414C26.9702 57.8279 25.8572 57.8279 25.1707 57.1414C24.4843 56.455 24.4843 55.342 25.1707 54.6555L26.4137 53.4125L28.8996 55.8984ZM28.8996 55.8984C28.9527 55.8453 29.0017 55.7897 29.0466 55.7319C29 55.7935 28.9603 55.8586 28.9275 55.9263L28.8996 55.8984ZM37.6172 12.7807C37.6172 15.259 36.6519 17.5733 35.0196 19.2954C34.0395 20.3294 32.819 21.15 31.4226 21.6645L30 22.1886L28.5774 21.6644C27.1815 21.1501 25.9614 20.3299 24.9815 19.2965L24.9737 19.2882C23.3455 17.5668 22.3828 15.2555 22.3828 12.7806V5.2966C23.7698 4.77417 24.8981 3.71242 25.5 2.34375H34.5C35.1019 3.71244 36.2302 4.77424 37.6172 5.2967V12.7807ZM22.6848 48.8551L22.6933 48.8466C23.3804 48.1685 24.4871 48.1712 25.1708 48.8549C25.8572 49.5414 25.8572 50.6543 25.1708 51.3408L21.8563 54.6553C21.1698 55.3418 20.0568 55.3418 19.3704 54.6553C18.6872 53.9722 18.6839 52.8667 19.3604 52.1794L19.3704 52.1694L22.6848 48.8551ZM21.0358 47.1895C21.714 46.5024 21.7113 45.3956 21.0276 44.7119C20.3411 44.0254 19.2281 44.0254 18.5417 44.7119L14.3985 48.8551C13.7121 49.5415 13.7121 50.6545 14.3985 51.3409C15.085 52.0274 16.1979 52.0274 16.8844 51.3409L17.6985 50.5269L17.7131 50.5122L21.0276 47.1978L21.0276 47.1976L21.0358 47.1895ZM14.3985 40.5683C15.085 39.8819 16.1979 39.8819 16.8844 40.5683C17.5708 41.2548 17.5708 42.3678 16.8844 43.0542L13.5699 46.3687C12.8834 47.0552 11.7704 47.0552 11.084 46.3687C10.3975 45.6823 10.3975 44.5693 11.084 43.8829L14.3985 40.5683ZM34.3503 10.5054C34.808 10.0477 34.808 9.30573 34.3503 8.84808C33.8927 8.39044 33.1507 8.39044 32.6931 8.84808L28.5499 12.9912L27.3069 11.7482C26.8493 11.2906 26.1073 11.2906 25.6496 11.7482C25.192 12.2059 25.192 12.9479 25.6496 13.4055L27.7213 15.4772C28.1789 15.9348 28.9209 15.9348 29.3785 15.4772L34.3503 10.5054Z" fill="#444156"/>
</g>
<defs>
<clipPath id="clip0_14_2232">
<rect width="60" height="60" fill="white"/>
</clipPath>
</defs>
</svg>
