<svg width="40" height="40" viewBox="0 0 40 40" fill="none" xmlns="http://www.w3.org/2000/svg">
<rect width="40" height="40" rx="8" fill="#242527"/>
<path fill-rule="evenodd" clip-rule="evenodd" d="M13.0559 11.6666C12.2888 11.6666 11.667 12.2885 11.667 13.0555C11.667 13.8226 12.2888 14.4444 13.0559 14.4444H24.1972L12.0993 25.9375C11.5432 26.4658 11.5206 27.3449 12.0489 27.901C12.5773 28.4571 13.4564 28.4797 14.0125 27.9513L25.5559 16.9851V26.9444C25.5559 27.7115 26.1777 28.3333 26.9448 28.3333C27.7118 28.3333 28.3337 27.7115 28.3337 26.9444V13.7541C28.3337 13.7512 28.3337 13.7483 28.3337 13.7454V13.0555C28.3337 12.2885 27.7118 11.6666 26.9448 11.6666H13.0559Z" fill="white"/>
</svg>
