<svg width="18" height="18" viewBox="0 0 18 18" fill="none" xmlns="http://www.w3.org/2000/svg">
<g clip-path="url(#clip0_36_875)">
<path d="M11.0151 18C10.6595 17.9995 10.3186 17.8581 10.0672 17.6067C9.81581 17.3552 9.6744 17.0143 9.674 16.6588V13.234C9.67398 13.2098 9.669 13.186 9.65937 13.1639C9.64975 13.1417 9.63568 13.1218 9.61804 13.1054L8.59734 12.1553L7.96306 13.5023C7.94086 13.5494 7.91402 13.5942 7.88294 13.6359L5.50052 16.8234C5.40163 16.9811 5.27125 17.1166 5.11754 17.2215C4.96383 17.3264 4.79011 17.3985 4.60726 17.4331C4.3444 17.4841 4.07234 17.4569 3.82477 17.3549C3.5772 17.2529 3.365 17.0805 3.21443 16.859C3.06387 16.6376 2.98155 16.3769 2.97768 16.1091C2.97381 15.8414 3.04856 15.5784 3.19266 15.3527L5.39167 12.213C5.40293 12.197 5.41135 12.1791 5.41657 12.1602L6.85872 7.06375C6.86715 7.03498 6.86795 7.00451 6.86104 6.97533C6.85413 6.94616 6.83975 6.91928 6.81931 6.89735C6.80947 6.88676 6.79847 6.87732 6.7865 6.86922L5.74573 9.20301C5.68411 9.34564 5.59496 9.4747 5.48338 9.58282C5.3718 9.69093 5.23998 9.77596 5.09548 9.83304C4.95098 9.89012 4.79663 9.91813 4.64129 9.91546C4.48595 9.91279 4.33266 9.87949 4.1902 9.81748C4.04775 9.75546 3.91893 9.66595 3.81113 9.55406C3.70334 9.44218 3.61867 9.31013 3.562 9.16546C3.50532 9.0208 3.47775 8.86638 3.48085 8.71105C3.48396 8.55571 3.51769 8.40252 3.5801 8.26024L4.95588 5.19696C5.06849 4.9761 5.2448 4.79412 5.46198 4.67459C5.47432 4.66806 5.48705 4.66229 5.50008 4.65731L8.34496 3.58533C8.53517 3.513 8.74626 3.51879 8.93221 3.60145L10.6931 4.38162C10.8521 4.45225 10.9829 4.57418 11.0644 4.72791L11.5635 5.67068C11.5803 5.702 11.6061 5.7276 11.6375 5.74422L14.3625 7.17801C14.5059 7.25276 14.633 7.35503 14.7368 7.47898C14.8406 7.60292 14.9189 7.7461 14.9673 7.90034C15.0157 8.05457 15.0332 8.21683 15.0188 8.37784C15.0044 8.53884 14.9584 8.69544 14.8835 8.83866C14.8086 8.98188 14.7061 9.10893 14.582 9.21253C14.4579 9.31613 14.3147 9.39425 14.1604 9.44243C14.0061 9.49061 13.8438 9.5079 13.6828 9.49331C13.5218 9.47872 13.3653 9.43254 13.2222 9.35741C13.2207 9.35653 11.537 8.46033 10.6615 7.99246C10.6384 7.98023 10.613 7.97327 10.587 7.97211C10.5609 7.97094 10.5349 7.97559 10.5109 7.98572C10.4869 7.99585 10.4654 8.0112 10.4481 8.03066C10.4308 8.05012 10.418 8.0732 10.4107 8.09823L10.073 9.25135C10.0655 9.27714 10.064 9.3043 10.0687 9.33076C10.0733 9.35721 10.0839 9.38226 10.0997 9.40399L12.1805 12.254C12.295 12.4102 12.3566 12.599 12.3563 12.7928V16.6588C12.3559 17.0144 12.2144 17.3553 11.963 17.6067C11.7115 17.8581 11.3706 17.9996 11.0151 18ZM8.50096 11.3557C8.57678 11.3557 8.6498 11.3844 8.70531 11.436L10.0269 12.6662C10.1047 12.7389 10.1668 12.8268 10.2093 12.9245C10.2518 13.0221 10.2739 13.1275 10.274 13.234V16.6588C10.274 16.7561 10.2932 16.8525 10.3304 16.9424C10.3677 17.0323 10.4223 17.114 10.4911 17.1828C10.5599 17.2517 10.6416 17.3062 10.7315 17.3435C10.8214 17.3807 10.9178 17.3999 11.0151 17.3999C11.1125 17.3999 11.2089 17.3807 11.2988 17.3435C11.3887 17.3062 11.4704 17.2517 11.5392 17.1828C11.608 17.114 11.6626 17.0323 11.6999 16.9424C11.7371 16.8525 11.7563 16.7561 11.7563 16.6588V12.7928C11.7563 12.7262 11.7351 12.6613 11.6958 12.6076L9.61512 9.7579C9.54537 9.66174 9.4985 9.55091 9.47809 9.43388C9.45768 9.31685 9.46426 9.1967 9.49735 9.0826L9.835 7.92948C9.86734 7.81884 9.92395 7.71681 10.0007 7.63081C10.0775 7.54482 10.1724 7.47703 10.2787 7.43238C10.385 7.38772 10.4999 7.36734 10.615 7.3727C10.7302 7.37806 10.8427 7.40903 10.9443 7.46336C11.8194 7.93123 13.5025 8.82684 13.5025 8.82684C13.5788 8.86661 13.6625 8.89033 13.7483 8.89652C13.8341 8.90271 13.9203 8.89124 14.0015 8.86283C14.0827 8.83441 14.1573 8.78965 14.2205 8.73131C14.2838 8.67297 14.3344 8.60228 14.3693 8.52362C14.4339 8.37716 14.4404 8.21161 14.3876 8.0605C14.3348 7.90939 14.2265 7.78401 14.0846 7.70975L14.0835 7.70915L11.3575 6.27478C11.2194 6.20221 11.1064 6.08957 11.0334 5.95164L10.5342 5.00858C10.5158 4.97381 10.4863 4.94624 10.4504 4.93035L8.68948 4.15018C8.64747 4.13162 8.59984 4.13036 8.55691 4.14667L5.73313 5.21044C5.63195 5.26972 5.54943 5.3562 5.49495 5.46004L4.12854 8.50369C4.09828 8.5738 4.08214 8.64918 4.08104 8.72553C4.07994 8.80188 4.0939 8.8777 4.12213 8.94865C4.15035 9.0196 4.19228 9.08429 4.24553 9.13902C4.29877 9.19375 4.36228 9.23745 4.43242 9.26762C4.50257 9.29779 4.57797 9.31383 4.65432 9.31484C4.73067 9.31584 4.80647 9.30179 4.87739 9.27348C4.9483 9.24516 5.01294 9.20315 5.0676 9.14984C5.12227 9.09653 5.16589 9.03296 5.19597 8.96278L6.32654 6.42655C6.34629 6.38231 6.37646 6.34351 6.41447 6.31346C6.45248 6.28341 6.49719 6.26301 6.5448 6.25399C6.67469 6.22931 6.80874 6.23824 6.93422 6.27992C7.05969 6.32161 7.17243 6.39467 7.26174 6.49218C7.35104 6.58968 7.41394 6.70839 7.44446 6.83704C7.47499 6.96569 7.47213 7.1 7.43616 7.22723L5.99402 12.3237C5.97045 12.4071 5.93301 12.4859 5.88328 12.5569L3.69114 15.6864C3.59077 15.85 3.55513 16.0452 3.5912 16.2337C3.62727 16.4222 3.73244 16.5904 3.88611 16.7054C3.972 16.7695 4.07036 16.815 4.17487 16.8389C4.27939 16.8628 4.38775 16.8646 4.49299 16.8442C4.59824 16.8238 4.69805 16.7815 4.78602 16.7202C4.87398 16.6589 4.94816 16.5799 5.00378 16.4883L7.40203 13.2773C7.40905 13.2679 7.41508 13.2578 7.42003 13.2472L8.2295 11.528C8.24958 11.4853 8.27949 11.4479 8.31679 11.4189C8.35409 11.3899 8.39771 11.3702 8.4441 11.3613C8.46282 11.3576 8.48187 11.3557 8.50096 11.3557ZM10.5012 3.6492C10.1403 3.6492 9.78757 3.54219 9.48751 3.3417C9.18746 3.14121 8.9536 2.85625 8.8155 2.52285C8.6774 2.18944 8.64126 1.82258 8.71167 1.46864C8.78207 1.1147 8.95584 0.789589 9.21102 0.534414C9.46619 0.279239 9.79131 0.105463 10.1452 0.03506C10.4992 -0.0353426 10.866 0.000790572 11.1995 0.13889C11.5329 0.27699 11.8178 0.510853 12.0183 0.810907C12.2188 1.11096 12.3258 1.46373 12.3258 1.8246C12.3252 2.30834 12.1328 2.77211 11.7908 3.11417C11.4487 3.45623 10.985 3.64864 10.5012 3.6492ZM10.5012 0.599983C10.259 0.599983 10.0222 0.671804 9.82084 0.806365C9.61946 0.940926 9.4625 1.13218 9.36981 1.35595C9.27712 1.57972 9.25287 1.82594 9.30013 2.06349C9.34738 2.30104 9.46401 2.51924 9.63527 2.69051C9.80654 2.86177 10.0247 2.9784 10.2623 3.02565C10.4998 3.0729 10.7461 3.04865 10.9698 2.95597C11.1936 2.86328 11.3849 2.70632 11.5194 2.50493C11.654 2.30355 11.7258 2.06679 11.7258 1.82458C11.7254 1.49991 11.5963 1.18863 11.3667 0.959052C11.1371 0.729472 10.8259 0.600338 10.5012 0.599983Z" fill="black"/>
</g>
<defs>
<clipPath id="clip0_36_875">
<rect width="18" height="18" fill="white"/>
</clipPath>
</defs>
</svg>
